<?xml version="1.0" encoding="utf-8"?>
<!-- Generator: Adobe Illustrator 27.5.0, SVG Export Plug-In . SVG Version: 6.00 Build 0)  -->
<svg version="1.1" id="Layer_1" xmlns="http://www.w3.org/2000/svg" xmlns:xlink="http://www.w3.org/1999/xlink" x="0px" y="0px"
	 viewBox="400 500 4000 4000" style="enable-background:new 0 0 4000 4000;" xml:space="preserve">
<g>
	<g>
		<g>
			<g>
				<g>
					<path style="fill:#FFFFFF;" d="M2791.115,2494.225c19.064,197.447,56.915,347.961,215.149,516.085
						c141.617,150.468,68.225,236.39-144.34,322.723c-415.319,168.681-1021.277,68.085-1021.277,68.085l398.979-887.83
						l382.638-132.085L2791.115,2494.225z"/>
				</g>
			</g>
			<g>
				<g>
					<path style="fill:#FFFFFF;" d="M2791.115,2494.225c19.064,197.447,56.915,347.961,215.149,516.085
						c141.617,150.468,68.225,236.39-144.34,322.723c-415.319,168.681-1021.277,68.085-1021.277,68.085l398.979-887.83
						l382.638-132.085L2791.115,2494.225z"/>
				</g>
			</g>
			<g>
				<g>
					<path style="fill:#B7CCE2;" d="M1856.853,3365.057c136.125,18.311,630.293,70.845,985.27-73.328
						c115.598-46.95,196.991-93.333,193.064-152.385c-141.263,47.647-107.303-85.236-211.817-188.097c0,0,18.383-2.042,26.298-9.494
						c-79.49-40.096-42.553-100.974-114.723-178.251c0,0,13.106,8.106,37.106,6.728c-61.617-75.494-60.255-214.728-102.892-357.635
						l-46.896-31.39l-382.639,132.085L1856.853,3365.057z"/>
				</g>
			</g>
			<g>
				<g>
					<path style="fill:#410700;" d="M2248.668,3446.867c-18.445,0-36.272-0.196-53.445-0.537
						c-202.224-4.043-355.669-29.175-357.195-29.424l-20.486-3.403l410.325-913.081l396.692-136.938l181.753,121.66l0.728,7.544
						c19.722,204.233,59.167,345.464,210.874,506.655c61.392,65.23,85.813,121.768,74.661,172.852
						c-14.177,64.937-81.358,117.476-224.629,175.664C2670.809,3427.927,2431.148,3446.867,2248.668,3446.867z M1863.902,3388.405
						c109.297,15.381,628.389,77.49,992.002-70.195c130.557-53.027,193.904-100.161,205.405-152.842
						c8.733-39.995-13.083-87.129-66.697-144.092c-155.281-164.99-198.447-315.459-218.682-517.959l-155.962-104.395
						l-368.586,127.231L1863.902,3388.405z"/>
				</g>
			</g>
			<g>
				<g>
					<path style="fill:#B71818;" d="M2647.729,2564.284c15.385,260.835,146.79,434.452,189.683,500.835
						s37.447,107.574-66.723,157.617c-104.17,50.043-481.702,152.851-902.808,57.192L2647.729,2564.284z"/>
				</g>
			</g>
			<g>
				<g>
					<path style="fill:#410700;" d="M2224.031,3334.753c-113.303,0.005-235.466-11.001-359.695-39.224l7.09-31.201
						c397.956,90.396,773.037,1.299,892.334-56.016c49.365-23.716,75.21-44.883,81.333-66.616
						c4.778-16.958-1.736-37.896-21.118-67.896c-3.738-5.781-8.154-12.388-13.11-19.8
						c-53.499-80.029-164.819-246.563-179.106-488.774l31.943-1.885c13.777,233.535,121.836,395.19,173.767,472.876
						c5.061,7.569,9.568,14.312,13.381,20.22c16.702,25.845,34.641,59.878,25.044,93.94c-8.918,31.65-39.228,58.413-98.276,86.782
						C2692.528,3278.034,2481.183,3334.748,2224.031,3334.753z"/>
				</g>
			</g>
		</g>
		<g>
			<g>
				<g>
					<polyline style="fill:#568BC1;" points="1482.179,2936.825 1492.186,3410.31 1911.115,3387.502 1965.311,3210.481 
						2019.03,3215.247 2052.392,3399.076 2413.924,3396.353 2483.03,3356.693 2596.392,3010.31 1902.945,2821.034 					"/>
				</g>
			</g>
			<g>
				<g>
					<polygon style="fill:#66A1D1;" points="1911.115,3215.247 1748.477,3215.247 1753.035,3396.108 1874.752,3389.482 					"/>
				</g>
			</g>
			<g>
				<g>
					<polygon style="fill:#66A1D1;" points="2320.377,3397.058 2413.923,3396.353 2419.106,3393.379 2454.002,3203.247 
						2316,3215.247 					"/>
				</g>
			</g>
			<g>
				<g>
					<path style="fill:#2E66A3;" d="M1482.179,2936.825l10.007,473.486l218.706-11.907l-31.606-243.071l339.744,33.872
						l69.107-141.106l48.34,141.106c0,0,205.617,4.093,426.858-77.884l33.057-101.01l-693.446-189.277L1482.179,2936.825z"/>
				</g>
			</g>
			<g style="opacity:0.6;">
				<g>
					<polygon style="fill:#FFFFFF;" points="2439.959,3381.411 2483.03,3356.693 2596.391,3010.31 2525.049,2990.837 					"/>
				</g>
			</g>
			<g>
				<g>
					<polygon style="fill:#2E66A3;" points="2019.03,3215.247 2052.391,3399.076 2216.997,3397.836 2191.966,3266.31 
						2254.775,3229.544 2184.043,3221.374 2248.986,3193.297 					"/>
				</g>
			</g>
			<g>
				<g>
					<polygon style="fill:#410700;" points="1476.539,3427.184 1466.182,2937.16 1498.175,2936.486 1507.833,3393.434 
						1899.085,3372.131 1953.807,3193.395 2032.594,3200.387 2065.731,3382.98 2409.603,3380.387 2469.735,3345.876 
						2575.955,3021.315 1898.731,2836.467 1907.159,2805.597 2616.829,2999.303 2496.326,3367.507 2418.245,3412.321 
						2039.051,3415.177 2005.465,3230.104 1976.815,3227.565 1923.143,3402.873 					"/>
				</g>
			</g>
			<g>
				<g>
					<g>
						<line style="fill:#FFFFFF;" x1="2157.243" y1="3203.247" x2="2019.03" y2="3215.247"/>
					</g>
				</g>
				<g>
					<g>
						<polygon style="fill:#410700;" points="2157.242,3203.247 2020.414,3231.187 2017.646,3199.307 2157.242,3203.247 						"/>
					</g>
				</g>
			</g>
		</g>
		<g>
			<g>
				<g>
					<path style="fill:#BF7430;" d="M1607.796,3360.949c121.191,10.213,224.17,10.042,309.447-9.362c0,0,53.234,3.702,47.66,44.426
						c-4.177,30.511-46.298,33.362-46.298,33.362l-7.489,50.723c0,0,28.073,20.106,34.383,51.234
						c5.106,25.191-2.213,55.319-56.17,58.124c-49.975,2.598-394.412,2.433-416.34-20.167
						c-16.681-17.191-16.681-206.298-16.681-206.298L1607.796,3360.949z"/>
				</g>
			</g>
			<g>
				<g>
					<path style="fill:#BF7430;" d="M1607.796,3360.949c121.191,10.213,224.17,10.042,309.447-9.362c0,0,53.234,3.702,47.66,44.426
						c-4.177,30.511-46.298,33.362-46.298,33.362l-7.489,50.723c0,0,28.073,20.106,34.383,51.234
						c5.106,25.191-2.213,55.319-56.17,58.124c-49.975,2.598-394.412,2.433-416.34-20.167
						c-16.681-17.191-16.681-206.298-16.681-206.298L1607.796,3360.949z"/>
				</g>
			</g>
			<g>
				<g>
					<path style="fill:#D88B36;" d="M1598.264,3389.582c123.234,9.495,246.825,10.21,335.319,0
						C1790.264,3444.693,1598.264,3389.582,1598.264,3389.582z"/>
				</g>
			</g>
			<g>
				<g>
					<path style="fill:#D88B36;" d="M1652.392,3504.098c0,0,66.652-42.279,156.272-27.547
						c71.221,11.708,91.597,40.395,91.597,40.395S1752.287,3531.124,1652.392,3504.098z"/>
				</g>
			</g>
			<g>
				<g>
					<path style="fill:#91490D;" d="M1945.498,3531.332c-0.235-1.159-0.558-2.271-0.85-3.399
						c-44.388,30.463-312.342,20.25-331.406-10.388c-8.043-12.926,61.276-56.51,122.836-68.692
						c-38.524-11.088-150.24,22.231-150.24,22.231l10.296-109.977l-104.458,1.408c0.295,40.163,2.348,180.912,16.631,195.633
						c21.928,22.599,366.365,22.764,416.34,20.167c1.92-0.1,3.766-0.243,5.569-0.411
						C1946.867,3566.219,1948.823,3547.733,1945.498,3531.332z"/>
				</g>
			</g>
			<g style="opacity:0.5;">
				<g>
					<path style="fill:#FFFFFF;" d="M1945.498,3531.332c-6.311-31.128-34.384-51.234-34.384-51.234l0.392-2.647
						c-158.654-83.477-325.668,24.264-325.668,24.264s216.284-62.914,359.879,30.796
						C1945.644,3532.118,1945.578,3531.723,1945.498,3531.332z"/>
				</g>
			</g>
			<g>
				<g>
					<path style="fill:#410700;" d="M1807.408,3606.594c-40.356,0-89.517-0.503-137.195-1.777
						c-189.976-5.078-202.161-17.637-208.708-24.385c-5.488-5.659-14.673-15.122-19.099-120.063
						c-2.075-49.194-2.1-96.899-2.1-97.378h32.002c0,80.898,4.71,176.27,12.366,194.81c36.392,15.845,333.811,19.307,403.823,15.679
						c18.552-0.967,31.567-5.615,37.639-13.447c5.801-7.48,5.205-18.008,3.682-25.522c-4.937-24.346-27.839-41.27-28.071-41.436
						l-7.82-5.698l1.36-9.614l9.373-63.477l12.864-0.869c0.225-0.02,29.219-2.705,31.528-19.57
						c1.042-7.617-1.27-11.514-3.101-13.784c-6.404-7.939-20.867-11.348-27.773-12.285c-78.772,17.51-177.949,20.405-311.724,9.116
						l2.686-31.885c131.887,11.108,228.662,8.247,304.553-9.019l2.302-0.522l2.358,0.161c3.547,0.249,35.168,3.022,52.383,24.194
						c8.55,10.517,12.014,23.779,10.02,38.359c-3.801,27.769-28.074,40.581-48.044,45.186l-4.461,30.22
						c10.3,9.429,27.669,28.613,32.93,54.565c4.089,20.181,0.715,37.984-9.756,51.49c-12.119,15.63-32.734,24.312-61.267,25.791
						C1876.81,3606.125,1846.17,3606.594,1807.408,3606.594z M1485.387,3559.289L1485.387,3559.289L1485.387,3559.289z"/>
				</g>
			</g>
			<g>
				<g>
					<path style="fill:#410700;" d="M1585.839,3501.715c46.248-35.341,102.297-55.655,159.612-65.49
						c58.79-9.742,122.58-1.758,174.212,30.347c0,0-17.093,27.052-17.093,27.052c-16.817-10.488-34.774-19.464-53.883-25.027
						C1761.12,3441.576,1668.584,3468.989,1585.839,3501.715L1585.839,3501.715z"/>
				</g>
			</g>
		</g>
		<g>
			<g>
				<g>
					<path style="fill:#BF7430;" d="M2043.2,3429.034c-42.213-15.319-41.192-64.34,0-83.404c0,0,254.468,25.873,439.83,11.064
						c0,0,64,40-26.553,76.085l-3.064,26.553c30.383,18.638,61.021,57.702,44.937,89.873c-12.789,25.579-52.085,34.042-227.745,32
						c-163.484-1.901-228.766-20.085-234.213-29.617C2030.945,3542.055,2043.2,3429.034,2043.2,3429.034z"/>
				</g>
			</g>
			<g>
				<g>
					<path style="fill:#D88B36;" d="M2208.562,3495.842c0,0,153.702-64.959,254.553,10.979
						C2463.115,3506.821,2390.604,3524.183,2208.562,3495.842z"/>
				</g>
			</g>
			<g>
				<g>
					<path style="fill:#D88B36;" d="M2192.306,3389.962c0,0,149.787-3.141,267.616,7.096
						C2459.923,3397.058,2342.775,3430.055,2192.306,3389.962z"/>
				</g>
			</g>
			<g>
				<g>
					<path style="fill:#91490D;" d="M2498.35,3549.204c3.299-6.599,4.605-13.488,4.379-20.431
						c-43.07,4.011-110.785,8.315-177.486,4.346c-85.66-5.097-169.531-18.638-167.489-34.468
						c2.042-15.83,92.681-42.639,92.681-42.639s-100.452,28.259-108.511,3.928c-5.106-15.417,14.809-41.29,14.809-41.29
						c-6.552-7.633-14.483-12.16-13.276-37.24c0,0-45.617,0.644-78.639-7.356c-7.148,18.893,12.767,44.426,12.767,44.426
						s-6.656,98.359-7.157,114.03c-0.24,7.475,41.687,26.252,85.609,43.851c31.129,2.518,69.029,4.313,114.569,4.842
						C2446.264,3583.247,2485.56,3574.783,2498.35,3549.204z"/>
				</g>
			</g>
			<g style="opacity:0.5;">
				<g>
					<path style="fill:#FFFFFF;" d="M2194.361,3473.585c-5.792,2.75-23.243,12.834-23.243,12.834s192.859-46.43,323.216,14.608
						c-7.413-13.375-18.904-25.684-31.217-35.031l-0.002,0C2463.115,3465.997,2351.285,3399.076,2194.361,3473.585z"/>
				</g>
			</g>
			<g>
				<g>
					<path style="fill:#410700;" d="M2319.588,3597.521c-15.164,0-31.506-0.112-49.17-0.317
						c-53.464-0.625-229.343-5.176-247.917-37.676c-2.517-4.404-7.666-13.408,3.577-120.815
						c-18.237-10.386-29.255-27.402-30.105-47.319c-1.072-25.127,14.448-48.223,40.508-60.283l3.977-1.841l4.36,0.444
						c2.529,0.259,255.2,25.542,436.938,11.031l5.271-0.425l4.482,2.802c3.271,2.046,31.89,20.806,29.314,49.453
						c-1.828,20.346-18.057,37.183-49.521,51.304l-0.874,7.583c35.122,25.361,60.508,68.345,42.234,104.897
						C2496.749,3588.18,2458.363,3597.516,2319.588,3597.521z M2051.031,3542.546c15.039,6.738,75.613,20.981,219.758,22.656
						c149.922,1.768,203.718-4.097,213.25-23.154c11.787-23.574-16.299-55.156-38.992-69.077l-8.699-5.337l5.33-46.182l8.877-3.535
						c27.368-10.908,37.778-21.699,38.394-28.164c0.537-5.635-5.586-12.446-10.605-16.65c-170.176,12.69-396.66-7.72-432.051-11.094
						c-11.868,6.699-18.814,17.163-18.35,28.022c0.452,10.615,8.003,19.351,20.715,23.965l11.802,4.282l-1.355,12.48
						C2054.366,3474.484,2050.281,3526.237,2051.031,3542.546z M2048.079,3540.944"/>
				</g>
			</g>
			<g>
				<g>
					<path style="fill:#410700;" d="M2178.009,3481.8c75.494-55.904,194.575-74.53,281.818-37.126
						c0,0.001-12.829,29.316-12.829,29.316C2361.283,3434.154,2264.359,3451.891,2178.009,3481.8L2178.009,3481.8z"/>
				</g>
			</g>
		</g>
		<g>
			<g>
				<g>
					<path style="fill:#55B6FF;" d="M2798.604,2039.757c24.51,0.34,123.802,53.347,143.489,226.213
						c20.936,183.83-98.553,313.362-331.404,255.83c-231.274-57.142-190.333-407.458-190.333-407.458L2798.604,2039.757z"/>
				</g>
			</g>
			<g>
				<g>
					<path style="fill:#55B6FF;" d="M2798.604,2039.757c24.51,0.34,123.802,53.347,143.489,226.213
						c20.936,183.83-98.553,313.362-331.404,255.83c-231.274-57.142-190.333-407.458-190.333-407.458L2798.604,2039.757z"/>
				</g>
			</g>
			<g>
				<g>
					<path style="fill:#337ED1;" d="M2885.551,2423.821c-42.683,26.967-109.225,46.69-196.224,4.022
						c-54.913-26.932-85.106-99.064-85.106-99.064l-12.255,25.191c0,0-25.532-64-14.979-115.064
						c10.236-49.532-31.708-105.479-0.729-155.306l-155.903,30.741c0,0-17.707,151.6,36.012,271.612
						c28.934,49.488,72.858,90.057,139.236,106.458C2734.522,2526.734,2833.077,2494.466,2885.551,2423.821z"/>
				</g>
			</g>
			<g>
				<g>
					<path style="fill:#FFD345;" d="M2933.601,2216.341c-30.904-133.534-113.012-176.278-134.997-176.583l-251.775,49.646
						c-9.541,39.561-8.249,85.499,8.278,137.248c20.094,83.064,100.519,121.191,204.689,116.426
						C2921.608,2335.673,2933.24,2220.427,2933.601,2216.341z"/>
				</g>
			</g>
			<g>
				<g>
					<path style="fill:#FFE888;" d="M2634.058,2259.747l-12.475,21.712c0,0,67.81,33.332,154.553,20.426
						c95.489-14.208,106.213-51.745,106.213-51.745c-7.49-35.574-28.255-72.17-28.255-72.17
						C2828.039,2215.757,2779.881,2264.098,2634.058,2259.747z"/>
				</g>
			</g>
			<g>
				<g>
					<path style="fill:#EF9D18;" d="M2845.583,2068.855c-0.012-2.127-0.015-4.118-0.02-6.152
						c-20.425-16.122-38.33-22.826-46.96-22.946l-251.775,49.646c-9.541,39.561-8.249,85.499,8.278,137.248
						c4.684,19.361,12.683,36.25,23.46,50.754l27.527-34.413C2730.179,2254.566,2846.264,2191.615,2845.583,2068.855z"/>
				</g>
			</g>
			<g style="opacity:0.6;">
				<g>
					<path style="fill:#FFFFFF;" d="M2942.094,2265.97c-19.688-172.866-118.979-225.872-143.49-226.213l-46.08,9.086
						c97.11,49.745,234.44,245.607,100.038,449.804C2922.287,2452.65,2953.67,2367.623,2942.094,2265.97z"/>
				</g>
			</g>
			<g>
				<g>
					<path style="fill:#410700;" d="M2716.102,2551.755c-31.865,0-68.108-4.258-109.25-14.424
						c-101.033-24.961-168.032-107.119-193.755-237.593c-18.94-96.079-9.06-183.574-8.63-187.251l31.785,3.706
						c-0.391,3.364-36.538,337.002,178.276,390.073c106.182,26.23,192.09,13.926,248.445-35.596
						c50.605-44.478,73.059-116.528,63.225-202.891c-19.221-168.755-114.875-211.846-127.815-212.026l0.444-31.992
						c33.831,0.469,138.684,60.567,159.165,240.396c11.055,97.08-15.188,178.955-73.896,230.547
						C2851.622,2523.244,2798.531,2551.755,2716.102,2551.755z"/>
				</g>
			</g>
			<g>
				<g>
					<path style="fill:#410700;" d="M2555.107,2226.651c30.988,55.359,72.253,88.076,135.138,97.118
						c71.756,9.082,161.498,2.901,207.161-60.492c10.064-14.334,17.425-30.952,20.252-48.272c0,0,31.906,2.429,31.906,2.429
						c-0.187,2.246-0.349,3.5-0.579,5.093c-1.496,10.072-4.213,19.997-7.85,29.449c-20.027,54.134-72.953,90.169-127.761,101.142
						c-63.598,12.537-132.094,9.275-190.152-21.628C2585,2311.527,2551.837,2271.456,2555.107,2226.651L2555.107,2226.651z"/>
				</g>
			</g>
		</g>
		<g>
			<g>
				<g>
					<g>
						<g>
							<g>
								<path style="fill:#55B6FF;" d="M2494.264,2184.779c62.638,97.702,68.781,190.298,68.781,190.298
									s154.878,194.723,67.049,419.404l-19.404,82.723l71.489,116.425c0,0-182.808,161.362-505.532,161.362l-31.66-97.021
									l-62.298-7.149l-39.149,109.958c0,0-291.486-18.383-498.808-130.383c0,0-31.948-711.149,179.643-990.638l563.591-136.851
									L2494.264,2184.779z"/>
							</g>
						</g>
						<g>
							<g>
								<path style="fill:#74BFF7;" d="M2373.939,2754.398c-515.416,93.207-637.462-222.556-637.462-222.556
									s249.494,44.502,542.298,0c130.89-19.893,256.466-71.972,262.084-68.255c9.552,6.319,55.532,132.255,27.447,201.702
									C2556.86,2693.593,2479.455,2735.317,2373.939,2754.398z"/>
							</g>
						</g>
						<g>
							<g>
								<path style="fill:#337ED1;" d="M2610.69,2877.204l19.404-82.723c12.744-32.601,20.35-64.563,24.089-95.399
									c-229.136,239.355-900.128,173.854-953.451,15.74c-11.517-34.151,115.404-333.617,118.468-408.51
									c1.833-44.803-107.703-52.834-196.025-52.058c-75.034,246.93-81.32,566.88-80.019,706.186
									c152.391,105.401,337.245,152.374,516.861,154.062l22.673-63.68l62.298,7.149l17.177,52.64
									c190.295-16.366,366.063-82.645,479.858-182.376L2610.69,2877.204z"/>
							</g>
						</g>
						<g style="opacity:0.6;">
							<g>
								<path style="fill:#FFFFFF;" d="M2610.69,2877.204l19.404-82.723c87.829-224.681-67.049-419.404-67.049-419.404
									s-6.143-92.596-68.781-190.298l-80.514-110.008c2.655,12.49,8.82,28.164,19.639,47.781
									c75.4,136.714,89.47,263.929,89.47,263.929s122.992,169.271,51.24,449.688l68.352,186.785
									c26.178-17.377,39.729-29.324,39.729-29.324L2610.69,2877.204z"/>
							</g>
						</g>
						<g>
							<g>
								<path style="fill:#337ED1;" d="M1674.899,2120.951c-17.583,35.387-32.857,74.272-46.123,115.422
									c370.82,108.352,626.419,87.729,803.935-135.697l-113.84-155.544L1674.899,2120.951z"/>
							</g>
						</g>
						<g>
							<g>
								<path style="fill:#410700;" d="M2494.264,2184.778c48.236,50.994,77.154,119.507,84.709,189.24
									c-0.001,0-3.436-8.878-3.436-8.878c6.409,8.236,11.509,15.859,16.782,23.992c79.43,122.487,105.673,279.767,53.498,409.038
									c0.002,0-19.373,82.729-19.373,82.729l-1.964-12.162l71.53,116.399l7.284,11.852
									c-38.429,33.663-82.34,60.317-127.837,83.089c-45.553,22.952-95.156,41.956-144.254,55.95
									c-8.336,2.112-24.891,6.855-33.209,8.998c-11.13,2.727-38.843,8.29-50.434,10.858c-16.304,2.875-34.532,5.204-50.964,7.889
									c-11.569,1.696-39.341,3.648-51.307,4.969c-4.226,0.475-12.872,1.066-17.139,1.072c-11.13,0.464-40.063,1.167-51.5,1.6
									c0,0-11.792,0.364-11.792,0.364l-3.821-11.692l-31.693-97.009l13.768,11.244l-62.299-7.126l17.402-10.844
									c-1.607,3.825-43.365,122.434-43.333,121.839c-26.079-1.867-52.326-4.212-77.889-7.528
									c-151.707-19.714-303.672-54.248-440.2-125.568c0-0.001-8.382-4.371-8.382-4.371l-0.366-9.577
									c-5.346-171.367,1.636-342.504,23.417-512.619c17.516-127.816,42.725-255.846,94.573-374.809
									c18.284-41.523,40.402-82.11,68.671-118.693c0,0,5.754-1.391,5.754-1.391l563.73-136.274l7.551,31.097l-563.451,137.427
									l9.313-6.109c-24.568,32.675-44.265,69.385-60.965,107.44c-33.607,76.696-54.822,158.629-71.332,240.787
									c-24.091,124.537-36.348,251.055-42.052,377.844c-3.651,84.356-4.777,169.569-1.837,253.802c0,0-8.747-13.945-8.747-13.945
									c113.216,59.534,239.016,92.072,364.803,112.999c42.166,6.805,85.045,12.375,127.105,15.592l-16.603,10.946l39.187-109.943
									l4.399-12.342c7.043,0.926,66.596,7.583,75.299,8.668c0,0,10.5,1.208,10.5,1.208c0.498,0.857,33.244,102.484,34.896,107.068
									c0,0.001-15.611-11.326-15.611-11.326c11.246-0.261,38.943-1.255,49.755-1.517c4.167,0,12.417-0.542,16.549-1.024
									c11.74-1.166,38.238-3.254,49.517-4.755c15.859-2.698,33.396-4.826,49.148-7.571c18.691-4.061,46.449-9.331,64.591-14.754
									c52.874-13.793,105.878-33.483,154.68-57.987c38.781-19.358,77.014-42.065,110.551-69.5c0,0-3.091,20.661-3.091,20.661
									l-71.448-116.45l-3.488-5.684l1.522-6.48l19.434-82.716l0.249-1.061c54.266-134.012,19.299-290.384-64.064-404.719
									c0.001,0-3.034-3.991-3.034-3.991l-0.399-4.888C2539.945,2310.074,2517.823,2246.705,2494.264,2184.778L2494.264,2184.778z"
									/>
							</g>
						</g>
					</g>
					<g>
						<g>
							<g>
								<path style="fill:#FFFFFF;" d="M1769.158,2196.958c0,0,311.149,155.651,422.808,114.119
									c111.659-41.532,193.021-297.447,193.021-297.447l-124.596-116.851l-497.362,103.277"/>
							</g>
						</g>
						<g>
							<g>
								<path style="fill:#B7CCE2;" d="M1769.158,2196.958c0,0,136.938,68.491,261.727,102.479
									c92.946-3.424,175.059-24.139,247.653-64.776c64.711-89.766,106.45-221.031,106.45-221.031l-71.478-67.034l-547.492,149.478
									L1769.158,2196.958z"/>
							</g>
						</g>
						<g>
							<g>
								<path style="fill:#410700;" d="M2145.863,2333.884c-136.96,0-372.522-116.943-383.862-122.612l14.316-28.623
									c84.827,42.422,323.872,145.508,410.071,113.433c81.921-30.474,154.841-202.437,180.22-277.754l-111.099-104.192
									l-489.226,101.584l-6.504-31.331l505.496-104.966l138.017,129.436l-3.057,9.619c-3.42,10.752-85.076,263.848-202.69,307.593
									C2182.955,2331.501,2165.408,2333.884,2145.863,2333.884z"/>
							</g>
						</g>
					</g>
					<g>
						<g>
							<g>
								<path style="fill:#E8A289;" d="M1816.136,2116.353c0,0,279.83,120.754,339.745,99.866
									c59.915-20.887,131.404-216.164,131.404-216.164"/>
							</g>
						</g>
						<g>
							<g>
								<path style="fill:#410700;" d="M2138.468,2234.382c-84.507,0-285.571-84.736-328.672-103.335l12.678-29.385
									c105.984,45.732,288.777,113.179,328.142,99.448c38.438-13.398,95.012-133.804,121.646-206.555l30.049,11.001
									c-7.583,20.715-75.977,203.049-141.162,225.769C2155.128,2233.425,2147.454,2234.382,2138.468,2234.382z"/>
							</g>
						</g>
					</g>
				</g>
				<g>
					<g>
						<g>
							<path style="fill:#BF7430;" d="M1584.307,2836.353c0,0,211.385,119.523,538.213,121.532
								c332.255,2.042,507.574-163.404,507.574-163.404s22.128,2.042,22.128,22.808c0,20.766-9.532,55.83-33.702,82.383
								s-145.191,159.319-481.702,177.702c-348.269,19.025-563.489-119.489-563.489-119.489"/>
						</g>
					</g>
					<g>
						<g>
							<path style="fill:#994211;" d="M2618.519,2899.672c17.329-19.037,27.102-42.426,31.264-61.807
								c-30.456,45.144-121.526,142.489-355.689,179.935c-309.419,49.48-576-48.34-576-48.34l-6.035-79.319
								c-81.93-27.889-127.752-53.788-127.752-53.788l-10.979,121.532c0,0,215.221,138.515,563.489,119.489
								C2473.327,3058.991,2594.349,2926.225,2618.519,2899.672z"/>
						</g>
					</g>
					<g style="opacity:0.4;">
						<g>
							<path style="fill:#FFFFFF;" d="M2630.094,2794.481c0,0-175.319,165.447-507.575,163.404
								c-238.479-1.466-415.465-65.492-493.739-100.004c82.176,109.196,444.211,150.096,657.143,118.898
								c184.59-27.046,318.773-115.112,365.677-149.771c0.402-3.477,0.621-6.756,0.621-9.718
								C2652.221,2796.523,2630.094,2794.481,2630.094,2794.481z"/>
						</g>
					</g>
					<g>
						<g>
							<path style="fill:#410700;" d="M2070.504,3095.192c-309.614,0.015-497.458-118.462-505.835-123.857l17.319-26.904
								c2.102,1.348,215.439,135.435,553.957,116.968c212.896-11.631,380.076-72.891,470.742-172.495
								c20.291-22.295,29.534-52.754,29.534-71.616c0-2.329-0.962-3.872-2.222-4.897
								c-36.282,30.903-207.332,161.514-505.281,161.514c-2.114,0-4.172-0.01-6.296-0.02
								c-327.224-2.012-537.212-118.638-545.991-123.604l15.742-27.856c2.085,1.172,212.038,117.505,530.444,119.458
								c1.98,0.015,3.958,0.019,5.925,0.019c317.469,0,488.879-157.47,490.583-159.072l5.252-4.932l7.188,0.649
								c14.736,1.363,36.657,12.803,36.657,38.74c0,25.659-11.711,64.414-37.871,93.159
								c-96.36,105.854-271.323,170.811-492.661,182.905C2114.72,3094.606,2092.288,3095.192,2070.504,3095.192z"/>
						</g>
					</g>
				</g>
			</g>
			<g>
				<g>
					<g>
						<g>
							<path style="fill:#FFD345;" d="M2029.838,3101.119c-31.02-2.622-34.772-12.393-32.596-32.255
								c2.723-24.851,13.787-51.915,29.617-122.213c4.737-21.039,11.813-31.04,45.617-30.298
								c50.041,1.098,102.468,0.341,142.638-3.404s54.35,9.817,49.473,35.206s-43.851,107.795-51.856,125.474
								c-9.787,21.617-16.553,28.383-35.319,29.277C2155.729,3103.939,2066.732,3104.237,2029.838,3101.119z"/>
						</g>
					</g>
					<g>
						<g>
							<path style="fill:#EF9D18;" d="M2254.612,2918.24c-0.006,2.772-0.314,5.734-0.918,8.88
								c-4.877,25.39-43.85,107.795-51.855,125.475c-9.787,21.617-16.553,28.383-35.32,29.277
								c-21.683,1.032-110.68,1.331-147.574-1.787c-9.99-0.844-17.122-2.443-22.168-4.869c-0.495,15.616,5.559,23.579,33.061,25.904
								c36.893,3.118,125.891,2.82,147.574,1.787c18.767-0.894,25.532-7.659,35.319-29.277
								c8.005-17.68,46.979-100.085,51.857-125.475C2267.227,2934.419,2264.227,2924.184,2254.612,2918.24z"/>
						</g>
					</g>
					<g style="opacity:0.6;">
						<g>
							<path style="fill:#FFFFFF;" d="M2013.564,3090.093c2.724-24.851,13.787-51.915,29.617-122.213
								c4.737-21.039,11.813-31.04,45.616-30.298c50.042,1.098,102.469,0.34,142.638-3.404c14.682-1.369,25.857-0.403,33.934,2.585
								c-1.261-17.916-16.618-26.951-50.255-23.815c-40.17,3.745-92.596,4.502-142.637,3.404
								c-33.805-0.742-40.88,9.26-45.617,30.298c-15.83,70.298-26.894,97.361-29.617,122.212
								c-1.695,15.466,0.272,24.791,15.839,29.409C2013.073,3095.754,2013.24,3093.049,2013.564,3090.093z"/>
						</g>
					</g>
					<g>
						<g>
							<path style="fill:#410700;" d="M2126.619,3115.607c-34.314,0-75.652-0.659-97.793-2.529l0,0
								c-18.945-1.602-30.432-6.011-37.249-14.287c-7.512-9.131-7.451-20.405-6.265-31.235c1.531-13.96,5.293-27.754,10.989-48.638
								c5.068-18.579,11.375-41.699,18.85-74.902c5.81-25.791,17.119-40.488,57.588-39.658c54.91,1.211,105.081,0.014,141.262-3.354
								c26.394-2.461,44.248,1.88,54.587,13.271c8.064,8.887,10.684,21.05,7.783,36.147c-3.994,20.781-26.66,71.597-48.306,118.565
								c-1.877,4.072-3.389,7.354-4.402,9.59c-10.706,23.643-20.271,35.108-45.681,36.319
								C2169.061,3115.319,2149.383,3115.607,2126.619,3115.607z M2030.848,3089.162c35.962,3.042,124.05,2.803,145.996,1.758
								c12.332-0.586,16.114-2.71,24.956-22.241c1.028-2.271,2.563-5.601,4.47-9.736c11.638-25.254,42.554-92.329,46.533-113.052
								c1.399-7.28,0.732-12.49-1.985-15.483c-2.729-3.008-10.857-7.744-34.59-5.508c-37.068,3.452-88.21,4.673-144.016,3.452
								c-28.779-0.659-30.313,6.128-33.647,20.938c-7.593,33.726-13.979,57.134-19.109,75.947
								c-5.396,19.78-8.96,32.852-10.286,44.937c-0.796,7.261-0.488,11.631,0.938,13.364
								C2011.139,3084.787,2015.223,3087.844,2030.848,3089.162L2030.848,3089.162z"/>
						</g>
					</g>
				</g>
				<g>
					<g>
						<g>
							<path style="fill:#BF7430;" d="M2048.314,3059.502c0,0,15.319-56.17,23.149-95.319c0,0,96.51,2.723,142.468-3.745
								c0,0-16.34,58.383-38.638,100.936L2048.314,3059.502z"/>
						</g>
					</g>
					<g>
						<g>
							<path style="fill:#994211;" d="M2080.477,3032.608c0,0,3.709-31.891,6.729-68.102c-9.733-0.154-15.742-0.323-15.742-0.323
								c-7.83,39.149-23.149,95.319-23.149,95.319l126.979,1.872c3.038-5.798,5.961-11.893,8.751-18.091L2080.477,3032.608z"/>
						</g>
					</g>
					<g style="opacity:0.4;">
						<g>
							<path style="fill:#FFFFFF;" d="M2071.463,2964.183c-1.034,5.169-2.201,10.639-3.443,16.234l111.18,7.766
								c0,0-3.772,35.679-16.923,73l13.016,0.192c22.298-42.553,38.639-100.936,38.639-100.936
								C2167.973,2966.906,2071.463,2964.183,2071.463,2964.183z"/>
						</g>
					</g>
					<g>
						<g>
							<path style="fill:#410700;" d="M2175.294,3073.376c-0.059,0-0.117,0-0.176-0.005l-126.98-1.87
								c-3.708-0.054-7.185-1.821-9.414-4.785s-2.964-6.792-1.987-10.371c0.151-0.557,15.303-56.23,22.959-94.517
								c1.147-5.732,6.313-9.644,12.107-9.644c0.955,0.034,96.03,2.617,140.457-3.633c4.036-0.547,8.037,0.932,10.703,3.984
								c2.666,3.047,3.616,7.236,2.525,11.133c-0.681,2.436-16.941,60.098-39.563,103.276
								C2183.848,3070.9,2179.752,3073.376,2175.294,3073.376z M2063.873,3047.731l104.109,1.533
								c12.727-25.884,23.264-56.392,29.194-74.976c-39.153,3.178-93.64,2.559-115.996,2.119
								C2075.777,3001.613,2068.38,3030.578,2063.873,3047.731z"/>
						</g>
					</g>
				</g>
			</g>
		</g>
		<g>
			<g>
				<g>
					<path style="fill:#EA4747;" d="M2530.009,1936.098c103.66,35.234,138.638,99.574,138.638,99.574s5.284,81.697-63.064,108.255
						c-89.362,34.723-192.65,36.425-231.644-50.723L2530.009,1936.098z"/>
				</g>
			</g>
			<g>
				<g>
					<path style="fill:#EA4747;" d="M2530.009,1936.098c103.66,35.234,138.638,99.574,138.638,99.574s5.284,81.697-63.064,108.255
						c-89.362,34.723-192.65,36.425-231.644-50.723L2530.009,1936.098z"/>
				</g>
			</g>
			<g style="opacity:0.5;">
				<g>
					<path style="fill:#FFFFFF;" d="M2530.008,1978.991c84.265,28.642,123.144,76.515,134.743,93.428
						c4.933-20.419,3.896-36.747,3.896-36.747s-34.979-64.34-138.639-99.574l-156.069,157.106
						c4.516,10.093,9.928,18.944,16.047,26.74L2530.008,1978.991z"/>
				</g>
			</g>
			<g>
				<g>
					<path style="fill:#FFFFFF;" d="M2663.486,2055.587c-28.941,61.019-61.647,48.638-91.7,9.911c0,0-73.096,43.366-109.181-25.74
						c-10.037,8.31-28.694,9.883-46.524,11.026l-42.141,42.42c38.994,87.149,142.282,85.447,231.645,50.723
						c41.973-16.31,56.161-53.396,60.872-79.604C2665.637,2061.456,2664.663,2058.546,2663.486,2055.587z"/>
				</g>
			</g>
			<g>
				<g>
					<path style="fill:#FFFFFF;" d="M2663.486,2055.587c-28.941,61.019-61.647,48.638-91.7,9.911c0,0-73.096,43.366-109.181-25.74
						c-10.037,8.31-28.694,9.883-46.524,11.026l-42.141,42.42c38.994,87.149,142.282,85.447,231.645,50.723
						c41.973-16.31,56.161-53.396,60.872-79.604C2665.637,2061.456,2664.663,2058.546,2663.486,2055.587z"/>
				</g>
			</g>
			<g>
				<g>
					<path style="fill:#B7CCE2;" d="M2631.563,2098.259c-84.713,32.917-181.899,36.103-225.007-37.889l-32.617,32.833
						c38.994,87.149,142.282,85.447,231.645,50.723c35.128-13.65,50.76-41.835,57.696-66.033
						C2655.04,2086.063,2644.654,2093.172,2631.563,2098.259z"/>
				</g>
			</g>
			<g>
				<g>
					<path style="fill:#410700;" d="M2618.436,2113.967c-16.97,0-33.755-9.424-50.964-28.638
						c-14.937,6.226-41.221,13.994-67.651,6.494c-21.882-6.226-39.175-21.25-51.399-44.658l28.364-14.814
						c8.079,15.469,18.425,24.839,31.636,28.647c26.028,7.51,54.958-9.121,55.249-9.287l12.109-7.07l8.645,11.05
						c13.877,17.881,26.541,27.197,35.566,26.191c9.055-0.986,19.368-12.759,29.041-33.149l28.911,13.711
						c-15.249,32.153-33.071,48.916-54.485,51.25C2621.783,2113.874,2620.108,2113.967,2618.436,2113.967z"/>
				</g>
			</g>
			<g>
				<g>
					<path style="fill:#410700;" d="M2497.955,2182.057c-58.503,0-111.721-22.202-138.621-82.319l29.209-13.067
						c44.006,98.34,172.813,57.271,211.243,42.344c49.202-19.121,52.883-73.921,52.961-88.643
						c-8.181-12.363-44.517-60.789-127.888-89.126l10.298-30.298c108.335,36.824,145.996,104.229,147.547,107.08l1.682,3.096
						l0.227,3.511c0.247,3.813,5.142,93.75-73.235,124.204C2575.096,2172.936,2535.438,2182.052,2497.955,2182.057z"/>
				</g>
			</g>
		</g>
		<g>
			<g>
				<g>
					<path style="fill:#FFD345;" d="M1798.094,2443.162c-16.681-15.319-61.277-3.284-114.042-40.511
						c-52.766-37.227-114.043,132.936-114.043,132.936l3.319,177.702c0,0,161.447,2.121,192.255-20.131s28.085-51.869,28.085-51.869
						L1798.094,2443.162z"/>
				</g>
			</g>
			<g>
				<g>
					<path style="fill:#EF9D18;" d="M1674.179,2606.906c-23.489-25.191-1.155-139.234,79.148-171.404l-16.463-8.258
						c-15.94-4.209-33.844-11.21-52.813-24.594c-52.766-37.227-114.043,132.936-114.043,132.936l3.319,177.702
						c0,0,161.447,2.121,192.256-20.131c30.808-22.252,28.085-51.869,28.085-51.869l0.447-20.025
						C1755.714,2623.466,1690.483,2624.392,1674.179,2606.906z"/>
				</g>
			</g>
			<g>
				<g>
					<path style="fill:#410700;" d="M1589.376,2729.386c-7.026,0-12.61-0.054-16.257-0.098l-15.498-0.205l-3.664-196.143
						l0.998-2.774c7.815-21.704,49.365-130.781,99.964-146.728c13.413-4.224,26.677-2.104,38.357,6.143
						c28.696,20.244,54.553,24.346,75.33,27.646c16.157,2.568,30.112,4.78,40.31,14.146l-21.641,23.574
						c-3.098-2.847-13.564-4.507-23.687-6.113c-22.783-3.618-53.984-8.574-88.76-33.105c-3.489-2.471-6.467-2.969-10.291-1.772
						c-25.742,8.115-60.908,76.606-78.476,124.306l2.974,159.121c64.158-0.024,150.3-5.005,167.178-17.197
						c22.773-16.45,21.543-37.227,21.523-37.432l31.865-2.93c0.147,1.577,3.128,39.019-34.651,66.299
						C1745.924,2727.096,1635.965,2729.386,1589.376,2729.386z"/>
				</g>
			</g>
		</g>
		<g>
			<g>
				<path style="fill:#FFFFFF;stroke:#410700;stroke-width:28;stroke-miterlimit:10;" d="M1753.158,2140.353"/>
			</g>
		</g>
		<g>
			<g>
				<g>
					<g>
						<path style="fill:#FFFFFF;" d="M2240.306,2013.63c0,0,28.422,98.928,123.234,112.255
							c84.766,11.915,232.456-143.014,180.909-267.933s-175.462-70.45-175.462-70.45L2240.306,2013.63z"/>
					</g>
				</g>
				<g>
					<g>
						<path style="fill:#B7CCE2;" d="M2544.45,1857.952c-3.908-9.469-8.236-17.893-12.89-25.402
							c7.129,96.399-53.466,151.547-53.466,151.547l-26.213-32.99c0,0,2.042,75.932-50.554,109.076
							c-37.527,23.648-109.503-4.154-132.544-96.596l-28.477,50.042c0,0,28.421,98.928,123.233,112.255
							C2448.307,2137.8,2595.997,1982.871,2544.45,1857.952z"/>
					</g>
				</g>
				<g>
					<g>
						<path style="fill:#410700;" d="M2372.913,2142.521c-3.958,0-7.825-0.259-11.599-0.791
							c-103.901-14.604-135.107-119.233-136.387-123.682l30.745-8.872c1.065,3.633,27.009,89.19,110.095,100.864
							c35.159,4.917,88.528-27.378,126.887-76.851c43.645-56.292,57.478-119.519,37.004-169.133
							c-13.445-32.583-33.389-54.426-59.277-64.922c-44.949-18.22-94.495,2.817-94.993,3.03l-12.839-29.312
							c2.5-1.099,61.963-26.675,119.558-3.494c34.287,13.801,60.239,41.555,77.131,82.49
							c24.905,60.354,9.468,135.474-41.296,200.945C2475.25,2107.858,2418.536,2142.521,2372.913,2142.521z"/>
					</g>
				</g>
			</g>
			<g>
				<g>
					<g>
						<path style="fill:#FFD345;" d="M2399.03,1984.353c21.958,9.319,17.872,46.085-15.83,74.043
							c-29.135,24.169-56.346,7.173-45.575-26.553C2345.413,2007.459,2376.825,1974.929,2399.03,1984.353z"/>
					</g>
				</g>
				<g style="opacity:0.6;">
					<g>
						<path style="fill:#FFFFFF;" d="M2344.347,2049.211c7.787-24.383,39.199-56.913,61.404-47.489
							c2.665,1.131,4.929,2.681,6.819,4.556c-0.262-10.121-4.8-18.215-13.541-21.925c-22.205-9.424-53.617,23.106-61.404,47.489
							c-4.636,14.515-2.225,25.918,4.336,32.287C2341.872,2059.658,2342.608,2054.657,2344.347,2049.211z"/>
					</g>
				</g>
				<g>
					<g>
						<path style="fill:#EF9D18;" d="M2404.918,1988.136c-2.125,14.125-11.568,30.851-28.938,45.259
							c-15.999,13.272-31.404,14.111-40.271,6.602c-4.229,28.136,20.813,40.528,47.489,18.399
							C2413.426,2033.321,2419.76,2001.226,2404.918,1988.136z"/>
					</g>
				</g>
				<g>
					<g>
						<path style="fill:#410700;" d="M2356.549,2081.784c-6.782,0-13.162-1.831-18.694-5.567
							c-13.701-9.248-18.169-27.651-11.66-48.027c6.834-21.396,26.641-44.258,46.074-53.171c11.157-5.12,22.034-5.705,31.448-1.714
							l0,0c11.162,4.736,18.623,14.697,20.476,27.327c3.171,21.641-9.6,47.315-33.333,66.997
							C2379.61,2076.965,2367.547,2081.784,2356.549,2081.784z M2390.611,1994.697c-2.932,0-5.984,1.057-8.335,2.134
							c-13.257,6.084-28.469,23.787-33.22,38.665c-3.083,9.658-2.212,17.832,2.224,20.83c4.29,2.881,13.452,1.797,24.258-7.163
							c19.407-16.104,26.494-34.229,24.907-45.049c-0.957-6.531-4.832-8.174-6.104-8.713l0,0
							C2393.167,1994.901,2391.9,1994.697,2390.611,1994.697z"/>
					</g>
				</g>
			</g>
		</g>
		<g>
			<g>
				<g>
					<g>
						<path style="fill:#E2334C;" d="M2856.477,1828.353c-32-200.851,198.19-279.426,298.553-157.787
							c110.809,134.298-18.894,343.064-208.851,271.639L2856.477,1828.353z"/>
					</g>
				</g>
				<g>
					<g>
						<path style="fill:#F7637F;" d="M2901.243,1788.523c0,0,17.362-139.915,180.766-122.553
							C3094.264,1728.268,3024.661,1808.438,2901.243,1788.523z"/>
					</g>
				</g>
				<g style="opacity:0.5;">
					<g>
						<path style="fill:#FFFFFF;" d="M3155.03,1670.566c-100.363-121.638-330.553-43.064-298.553,157.787l89.702,113.852
							c27.632,10.39,53.976,14.815,78.503,14.439c-20.063-0.319-41.441-4.268-63.783-12.669l-78.749-99.95
							c-6.34-39.793-0.929-74.096,12.221-102.168c21.126,19.585,64.716,23.8,108.932,8.178
							c50.732-17.924,84.403-55.642,79.617-87.197c23.037,8.005,44.311,22.044,61.326,42.667
							c65.201,79.022,35.543,187.404-41.316,231.415C3194.188,1888.705,3230.706,1762.282,3155.03,1670.566z"/>
					</g>
				</g>
				<g>
					<g>
						<path style="fill:#B71818;" d="M3140.391,1719.97c0,0-54.809,128.809-228.285,126.871
							c-16.316-0.707-29.114,0.285-39.105,2.484l46.173,58.604l20.367-2.98C3161.426,1948.863,3172.903,1750.225,3140.391,1719.97z"
							/>
					</g>
				</g>
				<g>
					<g>
						<path style="fill:#410700;" d="M3022.401,1972.963c-25.205,0-52.583-4.778-81.853-15.784l11.265-29.951
							c93.389,35.117,163.472-3.867,197.9-52.068c35.427-49.595,46.995-128.94-7.024-194.412
							c-49.373-59.836-126.27-61.887-180.576-37.375c-53.625,24.202-105.388,84.844-89.834,182.463l-31.602,5.034
							c-18.391-115.422,43.872-187.603,108.274-216.665c77.363-34.912,167.18-15.925,218.42,46.177
							c56.133,68.03,59.5,161.819,8.381,233.377C3145.374,1936.283,3092.237,1972.963,3022.401,1972.963z"/>
					</g>
				</g>
			</g>
			<g>
				<g>
					<g>
						<path style="fill:#FDD0B4;" d="M2661.243,2021.119c-32.936,15.574-70.383,0.296-63.66-44.34
							c6.128-40.681,39.915-73.872,75.404-73.872c44.936,0,55.915,34.979,57.191,56.426L2661.243,2021.119z"/>
					</g>
				</g>
				<g style="opacity:0.6;">
					<g>
						<path style="fill:#FFFFFF;" d="M2622.349,1994.492c6.128-40.681,39.915-73.873,75.404-73.873
							c7.876,0,14.653,1.125,20.574,3.012c-8.481-11.69-22.517-20.725-45.34-20.725c-35.49,0-69.277,33.192-75.404,73.872
							c-4.333,28.764,9.685,45.315,29.01,49.297C2622.216,2018.079,2620.381,2007.552,2622.349,1994.492z"/>
					</g>
				</g>
				<g>
					<g>
						<path style="fill:#410700;" d="M2636.083,2043.044c-12.669,0-24.61-3.608-34.212-10.747
							c-9.683-7.202-25.171-24.297-20.107-57.9c7.266-48.242,48.188-87.49,91.223-87.49c50.805,0,71.106,36.924,73.164,71.477
							l-31.943,1.899c-1.123-18.874-9.187-41.374-41.221-41.374c-27.376,0-54.661,27.593-59.583,60.254
							c-1.348,8.958-1.133,20.989,7.561,27.454c7.915,5.886,21.04,5.896,33.44,0.039l13.677,28.928
							C2657.535,2040.573,2646.561,2043.044,2636.083,2043.044z"/>
					</g>
				</g>
			</g>
			<g>
				<g>
					<g>
						<path style="fill:#FFD345;" d="M1750.264,2836.098c-3.83,1.532-28.34-22.213-28.34-34.723s1080.936-898.468,1080.936-898.468
							s-20.596-26.042-18.042-52.596c2.938-30.555,41.99-60.797,76.596-46.468c32.681,13.532,85.548,82.798,97.532,109.021
							c21.702,47.489-11.49,86.425-52.76,82.911c-24.792-2.111-41.198-18.826-48.228-24.617L1750.264,2836.098z"/>
					</g>
				</g>
				<g style="opacity:0.6;">
					<g>
						<path style="fill:#FFFFFF;" d="M2912.106,1846.84c-9.112-10.337-18.622-20.027-27.737-27.777
							c-1.414-0.428-2.828-0.8-4.233-1.094c-41.472-8.653-83.526,33.685-89.334,64.047c2.854,6.635,6.111,12.159,8.531,15.863
							l15.782,7.069C2850.764,1854.662,2890.653,1846.993,2912.106,1846.84z"/>
					</g>
				</g>
				<g>
					<g>
						<path style="fill:#EF9D18;" d="M2906.186,1995.775c41.27,3.514,74.461-35.422,52.759-82.911
							c-0.405-0.887-0.866-1.832-1.362-2.813c-0.01,0.072-3.79,30.146-42.553,41.367c-34.047,9.856-103.659-57.447-103.659-57.447
							l11.063,53.872l-1080.851,864.919c0,0-9.173-4.36-19.412-9.169c2.464,12.891,24.478,33.952,28.093,32.506l1107.693-864.94
							C2864.988,1976.949,2881.394,1993.664,2906.186,1995.775z"/>
					</g>
				</g>
				<g>
					<g>
						<path style="fill:#410700;" d="M1749.932,2852.175c-4.114,0-8.406-1.504-12.83-4.497
							c-8.325-5.635-31.179-27.075-31.179-46.304c0-10.205,0-11.772,174.629-157.935c89.683-75.063,214.726-178.799,371.655-308.33
							c236.523-195.229,475.774-391.494,529.414-435.481c-6.785-12.039-14.658-30.818-12.732-50.85
							c2.004-20.832,16.013-41.448,36.565-53.799c19.797-11.9,42.429-14.06,62.078-5.921
							c38.894,16.106,94.052,91.089,105.964,117.153c12.405,27.143,10.869,54.995-4.211,76.411
							c-14.382,20.427-38.459,31.343-64.458,29.092c-21.128-1.797-37.026-11.914-47.246-19.963l-1099.26,858.352l-2.112,0.845
							C1754.171,2851.764,1752.076,2852.175,1749.932,2852.175z M1740.203,2805.212c2.317,3.521,5.938,7.837,9.272,11.201
							l1108.75-865.764l9.905,8.162c0.884,0.728,1.902,1.609,3.047,2.605c7.317,6.353,19.563,16.987,36.365,18.418
							c14.536,1.24,27.815-4.609,35.579-15.635c8.484-12.046,8.936-27.915,1.27-44.685c-11.265-24.656-61.707-89.546-89.099-100.889
							c-13.953-5.774-26.88-0.11-33.352,3.782c-11.658,7.007-20.176,18.836-21.194,29.434c-1.57,16.318,10.076,35.261,14.697,41.184
							l9.604,12.314l-12.046,9.944C2408.502,2246.818,1806.29,2743.259,1740.203,2805.212z"/>
					</g>
				</g>
			</g>
			<g>
				<g>
					<g>
						<path style="fill:#FDD0B4;" d="M1798.094,2443.162c36.767,0,76.766-19.915,114.298-19.149
							c37.532,0.766,51.83,19.915,46.468,34.213s-25.277,27.319-25.277,27.319s62.265,41.874,84.766,77.362
							c22.34,35.234,25.149,57.575,1.362,66.809c-14.108,5.477-28.936,0.341-28.936,0.341c7.319,33.362-9.873,40.987-30.638,40.34
							c7.489,24.936-12.936,49.191-50.383,26.383c0,0,3.149,31.83-15.617,37.447c-21.378,6.399-39.362-16.17-54-45.787
							c0,0-55.158,2.702-77.617-30.638C1740.289,2624.798,1754.088,2489.8,1798.094,2443.162z"/>
					</g>
				</g>
				<g style="opacity:0.6;">
					<g>
						<path style="fill:#FFFFFF;" d="M2019.711,2629.715c23.787-9.234,20.979-31.575-1.362-66.809
							c-22.501-35.488-84.766-77.362-84.766-77.362s19.915-13.021,25.276-27.319c5.361-14.298-8.937-33.447-46.469-34.213
							c-37.531-0.766-77.531,19.149-114.297,19.149c-4.953,5.248-9.5,11.663-13.68,18.878
							c63.842,11.84,131.415-22.701,144.828-9.431c15.574,15.407-42.894,39.064-42.894,39.064s112.721,67.092,128.214,139.592
							C2016.271,2630.884,2017.996,2630.38,2019.711,2629.715z"/>
					</g>
				</g>
				<g>
					<g>
						<path style="fill:#E8A289;" d="M1806.355,2442.818c-2.769,0.203-5.526,0.344-8.261,0.344
							c-44.006,46.638-57.805,181.636-35.574,214.638c22.459,33.34,77.616,30.638,77.616,30.638
							c14.639,29.617,32.622,52.186,54,45.787c3.192-0.955,5.709-2.709,7.757-4.896c-32.275-20.116-53.076-75.784-53.076-75.784
							s-29.617,1.532-50.723-9.702c-21.107-11.234-13.017-144.34,8.26-201.021
							C1806.354,2442.82,1806.355,2442.819,1806.355,2442.818z"/>
					</g>
				</g>
				<g>
					<g>
						<path style="fill:#410700;" d="M1886.612,2751.388c-20.237,0-39.094-15.767-56.25-47.07
							c-19.382-0.962-60.354-6.763-81.111-37.578c-27.769-41.221-10.847-183.633,37.205-234.561l4.736-5.02h6.902
							c15.938,0,33.223-4.375,51.518-9.014c20.513-5.19,41.765-10.625,63.103-10.132c35.684,0.728,50.967,15.518,56.899,24.268
							c6.572,9.697,8.113,21.196,4.226,31.563c-2.954,7.876-8.462,14.99-14.097,20.747c21.008,15.674,55.647,43.77,72.117,69.746
							c18.313,28.887,24.036,49.204,18.55,65.879c-2.534,7.71-8.913,18.203-24.91,24.414c-5.906,2.29-11.794,3.286-17.168,3.54
							c-0.642,9.458-3.594,17.393-8.84,23.716c-5.371,6.47-12.744,10.796-22.019,12.949c-1.052,11.567-6.355,21.968-15.249,28.838
							c-5.505,4.258-18.457,11.528-38.379,6.528c-3.227,12.744-10.552,24.99-25.122,29.351
							C1894.635,2750.778,1890.597,2751.388,1886.612,2751.388z M1849.815,2671.999l4.663,9.351
							c13.149,26.597,25.933,40.298,35.068,37.549c2.81-0.84,5.132-11.978,4.285-20.547l-3.157-31.929l27.402,16.689
							c12.942,7.886,21.331,7.749,24.585,5.234c2.991-2.31,3.855-7.671,2.151-13.35l-6.389-21.279l22.209,0.689
							c10.703,0.317,13.596-2.183,14.241-2.964c1.611-1.938,2.529-7.676,0.273-17.959l-6.121-27.896l26.985,9.351
							c2.558,0.825,11.059,2.524,17.908-0.142c3.491-1.352,5.542-2.89,6.094-4.575c0.752-2.285,1.882-11.841-15.178-38.745
							c-20.422-32.212-79.59-72.256-80.186-72.656l-20.002-13.467l20.178-13.198c6.267-4.14,16.685-13.232,19.055-19.551
							c0.273-0.728-0.435-1.895-0.752-2.363c-3.045-4.492-13.008-9.863-31.064-10.234c-17.056-0.293-35.293,4.272-54.592,9.16
							c-16.958,4.297-34.424,8.721-51.865,9.766c-37.126,47.002-45.518,166.621-29.817,189.927
							c14.165,21.031,50.698,24.16,63.601,23.599L1849.815,2671.999z"/>
					</g>
				</g>
				<g>
					<g>
						<polygon style="fill:#410700;" points="1948.902,2583.757 2002.641,2619.323 1978.908,2640.787 1948.902,2583.757 						"/>
					</g>
				</g>
				<g>
					<g>
						<polygon style="fill:#410700;" points="1919.03,2628.268 1971.588,2659.221 1948.685,2681.57 1919.03,2628.268 						"/>
					</g>
				</g>
			</g>
			<g>
				<g>
					<g>
						<path style="fill:#FDD0B4;" d="M2708.392,2198.736c-26.875,16.281-67.745,26.894-104.17,5.447s-56.34-68.936-59.404-90.638
							c-3.064-21.702,13.532-40.596,30.383-37.787c0,0,0-49.787,48.51-49.276c0,0,2.298-54.894,57.447-47.489
							c0,0,0.255-37.787,43.404-36.766c43.149,1.021,91.294,49.081,100.085,105.191
							C2833.328,2102.821,2755.455,2170.225,2708.392,2198.736z"/>
					</g>
				</g>
				<g style="opacity:0.6;">
					<g>
						<path style="fill:#FFFFFF;" d="M2567.986,2138.558c-3.063-21.702,13.532-40.596,30.384-37.787c0,0,0-49.787,48.51-49.277
							c0,0,2.299-54.894,57.447-47.49c0,0,0.256-37.787,43.404-36.766c17.767,0.42,36.377,8.83,52.743,22.481
							c-20.043-27.854-48.952-46.856-75.912-47.494c-43.149-1.021-43.404,36.766-43.404,36.766
							c-55.149-7.404-57.447,47.49-57.447,47.49c-48.511-0.511-48.511,49.276-48.511,49.276
							c-16.851-2.809-33.446,16.085-30.383,37.787c2.736,19.376,18.942,59.257,48.3,82.858
							C2578.3,2175.449,2569.889,2152.034,2567.986,2138.558z"/>
					</g>
				</g>
				<g>
					<g>
						<path style="fill:#E8A289;" d="M2824.647,2047.417c-3.352-21.391-12.434-41.602-24.768-58.493
							c0.642,2.795,1.213,5.609,1.658,8.451c8.681,55.404-69.191,122.809-116.255,151.319
							c-26.875,16.281-67.745,26.894-104.17,5.447c-14.157-8.335-25.787-20.616-34.937-33.776
							c5.643,23.639,25.043,64.386,58.045,83.818c36.426,21.447,77.296,10.833,104.17-5.447
							C2755.456,2170.225,2833.327,2102.821,2824.647,2047.417z"/>
					</g>
				</g>
				<g>
					<g>
						<path style="fill:#410700;" d="M2648.604,2232.282c-16.548,0-34.563-3.75-52.5-14.312
							c-43.43-25.571-63.982-79.888-67.129-102.188c-2.327-16.475,3.162-33.022,14.678-44.258c5.115-4.985,11.045-8.516,17.3-10.415
							c2.166-9.985,6.992-23.193,17.742-33.828c8.313-8.227,18.962-13.545,31.28-15.703c2.68-10.613,8.53-24.954,21.284-35.647
							c10.129-8.494,22.52-13.039,36.96-13.581c2.271-6.677,6.223-14.346,13.103-21.018c10.774-10.452,25.471-15.547,43.618-15.102
							c51.819,1.225,105.798,56.699,115.515,118.713c10.471,66.821-76.384,138.77-123.772,167.481h-0.002
							C2706.793,2218.41,2680.416,2232.282,2648.604,2232.282z M2571.878,2091.486c-1.804,0-3.948,1.064-5.879,2.949
							c-3.281,3.198-6.406,9.311-5.339,16.875c2.615,18.506,20.454,60.698,51.68,79.082c37.144,21.88,76.565,1.445,87.764-5.342
							c49.267-29.844,115.576-91.509,108.735-135.156c-8.071-51.514-51.35-90.886-84.656-91.672
							c-23.772-0.493-26.802,14.556-27.029,21.084l-0.61,17.656l-17.515-2.114c-11.904-1.594-20.806,0.237-27.209,5.603
							c-10.916,9.15-12.114,26.528-12.122,26.699l-0.649,15.493l-15.505-0.161c-9.739-0.264-17.104,2.363-22.339,7.544
							c-9.573,9.473-10.002,25.576-10.002,25.733v18.887l-18.63-3.105C2572.347,2091.506,2572.115,2091.486,2571.878,2091.486z"/>
					</g>
				</g>
				<g>
					<g>
						<g>
							<line style="fill:#FFFFFF;" x1="2681.158" y1="1978.991" x2="2721.498" y2="2021.119"/>
						</g>
					</g>
					<g>
						<g>
							<polygon style="fill:#410700;" points="2692.714,1967.925 2721.498,2021.119 2669.601,1990.057 2692.714,1967.925 							"/>
						</g>
					</g>
				</g>
				<g>
					<g>
						<g>
							<line style="fill:#FFFFFF;" x1="2623.711" y1="2026.481" x2="2668.647" y2="2076.523"/>
						</g>
					</g>
					<g>
						<g>
							<polygon style="fill:#410700;" points="2635.615,2015.79 2668.647,2076.523 2611.805,2037.17 2635.615,2015.79 							"/>
						</g>
					</g>
				</g>
				<g>
					<g>
						<g>
							<line style="fill:#FFFFFF;" x1="2575.2" y1="2075.757" x2="2619.115" y2="2132.693"/>
						</g>
					</g>
					<g>
						<g>
							<polygon style="fill:#410700;" points="2587.87,2065.985 2619.115,2132.694 2562.531,2085.529 2587.87,2065.985 							"/>
						</g>
					</g>
				</g>
			</g>
		</g>
		<g>
			<g>
				<g>
					<g>
						<path style="fill:#9E644F;" d="M1380.392,977.289c-44.596,24.17-108.256,16.34-114.043,37.106
							c-5.787,20.766,27.915,74.553,27.915,74.553s-65.872,57.702-70.468,81.702c-4.596,24,40.34,63.83,40.34,63.83
							c-53.617,51.574-3.574,189.957,75.064,303.83c485.689,133.537,1005.137,319.032,1268.425,110.298
							c0,0,20.085-41.532,5.106-125.277c0,0,52.3-6.808,72.448-67.404c0,0-23.427-15.66-44.008-59.234
							C2469.29,589.84,1464.817,668.59,1380.392,977.289z"/>
					</g>
				</g>
				<g>
					<g>
						<path style="fill:#7C4231;" d="M1439.397,1011.077c62.244-4.75,42.829-81.187,17.352-141.562
							c-38.55,31.025-65.323,67.43-76.356,107.774c-18.722,10.147-40.794,14.65-60.543,18
							C1350.954,1005.913,1392.276,1014.673,1439.397,1011.077z"/>
					</g>
				</g>
				<g>
					<g>
						<path style="fill:#7C4231;" d="M1394.349,1564.864c0,0-126.298-168.17-124.255-269.617c0.698-34.69,37.787-63.66,37.787-63.66
							l-55.489-48.681c0,0,153.532,4.978,266.894-26.788s51.745,222.873,52.426,229.682c0.681,6.808-2.723,221.957,0,224"/>
					</g>
				</g>
				<g>
					<g>
						<path style="fill:#7C4231;" d="M2330.349,1293.714c-102.128-23.149-61.447,88-61.447,88l-49.267,358.983
							c137.202,7.89,258.19-9.175,352.496-67.303c17.516-87.501-14.484-180.538-14.484-180.538
							c29.44-2.536,60.702-4.078,74.83-29.44c0,0-108.937,37.447-162.043-17.702
							C2426.056,1491.332,2366.264,1504.949,2330.349,1293.714z"/>
					</g>
				</g>
				<g>
					<g>
						<path style="fill:#AD796C;" d="M2381.924,1255.389c-5.495-2.351-4.596,117.475,33.191,152.198
							c18.792,17.269,43.915-25.021,43.915-25.021s60.255,62.808,134.298,51.064
							C2593.328,1433.63,2523.781,1316.097,2381.924,1255.389z"/>
					</g>
				</g>
				<g>
					<g>
						<path style="fill:#7C4231;" d="M2641.172,1396.693c-62.487-293.327-235.021-469.579-433.375-560.318l-140.427,68.743
							l-89.192,85.787c329.792,101.917,563.105,334.376,679.37,434.6C2652.21,1417.675,2646.597,1408.178,2641.172,1396.693z"/>
					</g>
				</g>
				<g>
					<g>
						<path style="fill:#410700;" d="M2617.227,1665.502l-1286.914-111.904l-4.28-6.196
							c-76.221-110.371-128.542-245.278-83.752-311.646c-16.018-16.306-38.76-44.309-34.202-68.113
							c4.422-23.074,43.718-61.721,65.674-81.802c-12.212-21.316-28.54-55.205-22.817-75.74
							c5.754-20.644,29.971-24.617,58.013-29.219c18.931-3.105,40.142-6.587,58.074-14.797
							c43.467-136.787,253.005-230.217,502.622-223.12c315.061,8.994,686.953,184.138,786.78,648.538
							c17.883,37.065,37.573,51.067,37.771,51.206l9.81,6.833l-3.643,11.433c-15.93,47.915-49.507,66.807-69.561,74.014
							c11.057,78.352-7.91,118.804-8.772,120.583L2617.227,1665.502z M1348.133,1523.026l1248.396,108.555
							c4.287-16.05,10.139-51.272,0.454-105.432l-2.954-16.516l16.638-2.168c1.504-0.222,37.168-5.928,55.479-46.675
							c-9.892-9.438-25.317-27.363-39.441-57.263l-0.793-1.682l-0.388-1.819c-95.364-447.661-453.462-616.416-756.792-625.073
							c-235.552-6.719-438.862,82.078-472.908,206.558l-1.802,6.589l-6.006,3.257c-23.767,12.881-51.558,17.441-73.887,21.103
							c-11.75,1.929-27.559,4.524-32.534,7.515c-0.41,9.228,11.541,37.004,26.23,60.483l7.222,11.545l-10.239,8.98
							c-29.817,26.133-63.171,61.572-65.298,72.678c-1.475,7.695,15.657,31.438,35.247,48.855l12.934,11.494l-12.463,12.002
							C1235.34,1284.379,1266.72,1402.704,1348.133,1523.026z"/>
					</g>
				</g>
			</g>
			<g>
				<g>
					<g>
						<path style="fill:#FDD0B4;" d="M1895.031,2153.015c-496.281,10.635-595.915-280.384-604.596-410.597
							c-8.7-130.498,50.043-204.255,50.043-204.255s-22.808-190.638-18.723-258.723s123.234-285.957,156.596-331.574
							c33.362-45.617,358.468-155.234,358.468-155.234L2136.5,957.057c0,0-42.32,176.681,177.255,339.064
							c0,0-18.383,214.808,127.319,331.234c0,0,89.248-80.459,168.851-8c79.659,72.511,11.744,288-189.958,251.745
							C2345.073,1999.908,2224.776,2145.949,1895.031,2153.015z"/>
					</g>
				</g>
				<g>
					<g>
						<path style="fill:#E8A289;" d="M2139.94,1053.865c-12.74-57.981-3.44-96.809-3.44-96.809l-299.681-164.426
							c0,0-325.106,109.617-358.469,155.234c-8.511,11.638-22.61,34.5-38.953,63.212
							C1569.926,988.195,1881.17,950.848,2139.94,1053.865z"/>
					</g>
				</g>
				<g>
					<g>
						<path style="fill:#E8A289;" d="M1670.009,1540.512c49.65-25.41,93.205-16.093,131.829,0
							C1783.348,1471.824,1725.411,1385.535,1670.009,1540.512z"/>
					</g>
				</g>
				<g>
					<g>
						<path style="fill:#E8A289;" d="M2457.753,1816.778c0,0-9.106-107.915,77.872-138.043c59.45-20.592,55.66,67.915,55.66,67.915
							s-21.277-27.83-38.468-26.681c17.191,25.319,18.873,43.38,9.872,59.021
							C2543.541,1812.268,2510.094,1819.672,2457.753,1816.778z"/>
					</g>
				</g>
				<g>
					<g>
						<path style="fill:#E8A289;" d="M2417.557,1857.071c-211.973,182.686-823.122,240.882-1100.654,1.134
							c53.368,137.256,201.532,302.88,578.129,294.81c329.744-7.066,450.042-153.107,524.936-281.916l0,0L2417.557,1857.071z"/>
					</g>
				</g>
				<g>
					<g>
						<path style="fill:#410700;" d="M1868.556,2169.299c-207.046,0-365.046-52.9-469.964-157.432
							c-102.698-102.315-121.013-221.773-124.121-268.384c-7.747-116.208,35.498-189.387,49.387-209.644
							c-3.96-34.028-21.826-192.827-18.076-255.356c4.48-74.649,128.955-298.086,159.653-340.064
							c34.604-47.315,311.179-142.375,366.27-160.95l6.653-2.244l316.548,173.679l-2.847,11.88
							c-1.57,6.773-36.382,168.95,171.211,322.471l7.19,5.317l-0.762,8.911c-0.168,2.002-14.988,197.815,111.528,309.124
							c39.265-29.155,114.658-58.081,179.468,0.913c42.327,38.528,49.871,113.489,17.937,178.242
							c-38.459,77.988-116.577,115.94-210.413,102.854c-81.326,136.321-210.264,273.479-532.844,280.393l-0.342-15.996l0.342,15.996
							C1886.356,2169.206,1877.396,2169.299,1868.556,2169.299z M1835.286,810.041c-124.377,42.236-322.295,117.561-344.021,147.271
							c-32.729,44.751-149.727,259.536-153.54,323.088c-3.953,65.872,18.411,253.97,18.638,255.864l0.793,6.638l-4.165,5.229
							c-0.515,0.657-54.729,71.155-46.592,193.223c4.463,66.948,52.644,395.928,562.139,395.947c8.601,0,17.285-0.093,26.152-0.283
							c314.234-6.733,434.875-142.268,511.443-273.96l5.635-9.688l11.028,1.982c83.896,15.081,153.843-16.228,187.136-83.743
							c25.759-52.236,21.225-111.292-10.779-140.425c-68.096-61.99-144.163,5.166-147.368,8.054l-10.088,9.094l-10.613-8.479
							c-135.195-108.032-135.698-292.739-133.813-336.094c-187.769-142.585-184.153-294.299-178.45-338.154L1835.286,810.041z"/>
					</g>
				</g>
				<g>
					<g>
						<path style="fill:#410700;" d="M2463.37,1761.204c-4.846-40.539,29.858-85.051,72.256-82.468
							c-8.378,6.013-16.311,10.589-23.085,16.739C2490.798,1713.321,2477.307,1736.75,2463.37,1761.204L2463.37,1761.204z"/>
					</g>
				</g>
			</g>
			<g>
				<g>
					<g>
						<path style="fill:#410700;" d="M1416.307,1539.332c24.061-68.396,131.472-87.164,166.468-18.383
							c-30.889-4.219-54.475-7.367-83.108-2.697C1471.256,1522.504,1446.211,1531.657,1416.307,1539.332L1416.307,1539.332z"/>
					</g>
				</g>
				<g>
					<g>
						<path style="fill:#410700;" d="M1954.323,1539.332c6.984-38.622,46.964-64.94,85.813-60.865
							c37.388,3.816,70.115,31.498,81.361,66.992c-24.898-8.263-43.126-17.801-66.157-23.709
							C2019.549,1511.721,1988.556,1522.275,1954.323,1539.332L1954.323,1539.332z"/>
					</g>
				</g>
				<g>
					<g>
						<g>
							<path style="fill:#410700;" d="M1429.072,1269.97c0,0-23.744-23.49-8.17-71.234c15.574-47.745,118.979-70.213,164.681-36
								c15.193,11.373,9.702,57.447-7.915,84.511C1535.438,1229.414,1489.964,1225.994,1429.072,1269.97z"/>
						</g>
					</g>
					<g>
						<g>
							<path style="fill:#410700;" d="M1613.923,1187.502c11.33,12.699,11.175,32.302,4.756,47.221
								c-2.208,5.028-5.296,9.692-9.521,13.545c-0.495-10.808,0.81-20.263,1.717-30.578
								C1611.531,1210.184,1613.073,1195.009,1613.923,1187.502L1613.923,1187.502z"/>
						</g>
					</g>
				</g>
				<g>
					<g>
						<path style="fill:#410700;" d="M1653.243,1666.226c38.23,10.855,73.897,18.336,112.513,14.014
							c23.991-2.13,45.6-9.089,69.444-14.015C1795.124,1728.003,1692.376,1729.646,1653.243,1666.226L1653.243,1666.226z"/>
					</g>
				</g>
				<g>
					<g>
						<g>
							<path style="fill:#410700;" d="M1948.902,1269.97c-4.255-20.341-7.572-67.936,4.513-88.361
								c8.828-14.92,36.338-27.979,78.38-25.086c35.301,2.43,80.796,22.065,92.426,40.34c8.34,13.106,7.149,52.085-8.17,70.809
								C2072.167,1249.55,2026.517,1230.268,1948.902,1269.97z"/>
						</g>
					</g>
					<g>
						<g>
							<path style="fill:#410700;" d="M1923.37,1193.63c4.809,21.955,6.322,42.714,0.001,64.51
								C1907.796,1240.762,1906.546,1210.57,1923.37,1193.63L1923.37,1193.63z"/>
						</g>
					</g>
				</g>
			</g>
			<g>
				<g>
					<g>
						<path style="fill:#9E644F;" d="M1642.519,1823.246c0,0,106.213,60.255,245.787,9.872c0,0,0,148.085-50.043,155.574
							c-22.597,3.382-38.985-23.051-38.985-23.051s-33.526,56.753-60.419,50.966c-26.894-5.787-65.702-65.702-65.702-65.702
							s-19.085,21.001-30.638,21.787C1622.07,1974.086,1592.817,1871.247,1642.519,1823.246z"/>
					</g>
				</g>
				<g>
					<g>
						<path style="fill:#AD796C;" d="M1685.753,1873.289c0,0,25.723,44.521,53.106,44.596c20.34,0.056,48.341-34.383,48.341-34.383
							C1759.395,1886.736,1727.03,1886.31,1685.753,1873.289z"/>
					</g>
				</g>
				<g>
					<g>
						<path style="fill:#AD796C;" d="M1808.307,1879.647c0,0,14.369,19.851,26.213,17.131c14.816-3.403,22.298-26.213,22.298-26.213
							C1845.115,1876.608,1829.413,1879.289,1808.307,1879.647z"/>
					</g>
				</g>
				<g>
					<g>
						<path style="fill:#7C3F2C;" d="M1642.52,1972.693c11.553-0.787,30.638-21.787,30.638-21.787s38.809,59.915,65.702,65.702
							c26.894,5.787,60.42-50.966,60.42-50.966s16.387,26.433,38.984,23.051c50.043-7.489,50.043-155.575,50.043-155.575
							s-27.745,102.979-45.617,106.042c-17.873,3.064-42.383-36.255-42.383-36.255s-42.979,53.617-60.766,54.128
							c-17.787,0.51-69.446-60.255-69.446-60.255s-17.672,35.175-24.171,26.894c-21.106-26.894-3.403-100.426-3.403-100.426
							C1592.817,1871.246,1622.071,1974.086,1642.52,1972.693z"/>
					</g>
				</g>
				<g>
					<g>
						<path style="fill:#410700;" d="M1742.833,2033.029c-2.432,0-4.875-0.249-7.339-0.781c-23.518-5.059-49.88-36.482-64.846-56.88
							c-8.049,6.572-17.849,12.661-27.039,13.289c-8.879,0.637-21.663-3.652-32.188-27.354
							c-16.812-37.854-21.726-109.282,19.983-149.565l8.606-8.311l10.378,5.889c1.406,0.784,102.297,55.75,232.485,8.755
							l21.433-7.737v22.786c0,27.029-3.071,162.327-63.674,171.396c-15.537,2.356-29.219-4.287-39.441-12.798
							C1787.689,2010.08,1766.146,2033.024,1742.833,2033.029z M1675.294,1924.826l11.289,17.375
							c16.968,26.155,43.064,56.06,55.642,58.765c7.905,1.697,29.316-19.829,43.276-43.459l13.445-22.759l13.931,22.463
							c2.844,4.473,13.345,17.102,23.02,15.659c19.27-2.886,32.964-59.516,35.845-117.527
							c-108.943,31.777-194.763,1.406-225.261-12.319c-14.636,20.244-15.901,46.831-15.161,62.043
							c1.211,24.924,8.403,43.04,12.908,50.029c4.634-2.959,11.75-9.099,17.1-14.963L1675.294,1924.826z"/>
					</g>
				</g>
			</g>
			<g>
				<g>
					<g>
						<g>
							<path style="fill:#FFD345;" d="M2648.791,1396.693c-179.59-302.298-588.1-631.83-1260.781-419.404
								c0,0-79.319-227.404-51.404-299.915c27.735-72.044,158.298,41.872,180.766,42.894
								c22.468,1.021,161.957-250.977,236.596-305.362c67.745-49.362,118.756-6.07,144.681,24.851
								c18.815,22.441,145.702,216.851,196.085,238.638c50.383,21.787,167.831-57.015,230.809-76.936
								c66.723-21.106,91.574,4.766,117.787,64c15.094,34.107,61.958,162.723,78.298,174.298
								c16.34,11.575,137.532-13.277,259.404-12.255c53.785,0.451,89.021,1.532,72.681,98.553
								c-11.182,66.392-57.362,204.085-57.362,204.085s67.574-20.766,79.319,4.766
								C2887.414,1160.438,2760.775,1315.672,2648.791,1396.693z"/>
						</g>
					</g>
					<g style="opacity:0.6;">
						<g>
							<path style="fill:#FFFFFF;" d="M2875.669,1134.906c-11.745-25.532-79.319-4.766-79.319-4.766s46.18-137.693,57.361-204.085
								c16.341-97.021-18.895-98.103-72.68-98.553c-121.872-1.021-243.063,23.83-259.404,12.255
								c-16.341-11.574-63.204-140.19-78.298-174.298c-26.213-59.234-51.064-85.107-117.787-64
								c-62.978,19.921-180.426,98.723-230.809,76.936c-50.383-21.787-177.271-216.197-196.085-238.638
								c-25.925-30.921-76.937-74.213-144.681-24.851c-74.639,54.385-214.128,306.383-236.596,305.362
								c-22.469-1.021-153.031-114.938-180.766-42.893c-27.916,72.511,51.403,299.915,51.403,299.915
								c4.036-1.274,8.017-2.436,12.032-3.672c-13.518-60.85-54.095-253.172-29.182-263.052
								c29.617-11.745,133.787,68.936,177.191,69.447c43.404,0.511,168-343.319,263.319-324.936
								c96.391,18.59,201.232,277.914,282.042,296.851c84.256,19.745,203.234-131.234,283.405-93.447
								c45.866,21.618,104.681,238.979,140.426,258.894c35.745,19.915,291.57-64.045,307.404-26.042
								c12.766,30.638-80.682,268.732-72.511,287.115c8.17,18.383,106.724-37.292,108.255-13.353
								c0.252,3.931-0.361,8.489-1.544,13.353C2872.176,1157.43,2878.764,1141.636,2875.669,1134.906z"/>
						</g>
					</g>
					<g>
						<g>
							<path style="fill:#FFE888;" d="M1592.477,792.631c0,0,125.276-286.491,197.617-286.491
								c72.34,0,197.617,252.453,197.617,252.453C1860.392,746.481,1742.206,742.61,1592.477,792.631z"/>
						</g>
					</g>
					<g>
						<g>
							<path style="fill:#FFE888;" d="M2140.392,785.63c0,0,178.723-111.977,223.66-89.872
								c56.385,27.737,60.842,248.741,60.842,248.741C2338.349,874.845,2293.583,828.013,2140.392,785.63z"/>
						</g>
					</g>
					<g>
						<g>
							<path style="fill:#FFE888;" d="M2481.022,1000.825c0,0,248.135-115.245,293.072-93.14
								c56.385,27.737-71.489,257.409-71.489,257.409C2616.059,1095.441,2577.328,1087.587,2481.022,1000.825z"/>
						</g>
					</g>
					<g>
						<g>
							<path style="fill:#EF9D18;" d="M2628.489,1309.693c60.552-46.578,117.69-96.649,117.69-96.649
								c-165.106,12.841-326.125-246.319-502.128-332.436c-241.022-117.93-465.179-99.187-649.617-56.17
								c-135.744,31.66-190.248,24.521-190.248,24.521l26.252,87.51C2046.569,753.59,2436.586,1028.632,2628.489,1309.693z"/>
						</g>
					</g>
					<g>
						<g>
							<path style="fill:#410700;" d="M2643.98,1419.923l-8.945-15.059c-94.421-158.933-463.056-658.362-1242.209-412.319
								l-14.809,4.678l-5.115-14.666c-8.315-23.843-80.41-235.134-51.228-310.933c6.006-15.601,16.699-26.389,30.925-31.204
								c38.44-13.01,93.979,21.101,134.531,46.008c9.91,6.084,21.775,13.372,28.332,16.514
								c12.739-12.407,44.375-59.519,70.212-98.003c53.735-80.029,114.639-170.735,158.872-202.966
								c57.361-41.797,116.445-32.029,166.362,27.502c4.682,5.586,13.96,18.74,28.003,38.65
								c38.093,54.016,127.305,180.505,162.171,195.583c27.385,11.851,91.753-19.275,143.476-44.277
								c28.132-13.599,54.705-26.443,76.155-33.228c77.08-24.392,108.677,8.225,137.246,72.778
								c4.136,9.343,10.481,25.313,17.83,43.804c14.343,36.089,43.765,110.122,54.814,123.433
								c10.166,2.219,47.356-1.414,80.325-4.629c48.457-4.722,108.76-10.613,170.237-10.088c30.752,0.256,59.797,0.5,77.771,21.938
								c15.317,18.269,18.574,47.651,10.554,95.268c-8.325,49.431-34.983,135.542-49.087,179.378
								c25.828-4.197,58.684-4.031,69.802,20.132c3.34,7.261,13.501,29.356-69.373,127.119
								c-50.288,59.319-111.096,117.009-162.663,154.319L2643.98,1419.923z M1797.53,893.459
								c146.877,0,284.673,28.64,412.327,85.913c179.124,80.364,336.013,219.871,443.491,393.965
								c105.105-80.667,202.261-206.221,206.909-232.747c-5.42-4.011-31.414-3.65-59.219,4.849l-29.731,9.087l9.873-29.473
								c0.459-1.365,45.911-137.268,56.753-201.655c6.069-36.028,4.885-59.375-3.518-69.397c-7.915-9.441-25.498-10.264-53.518-10.5
								c-59.79-0.461-119.155,5.288-166.865,9.941c-65.815,6.416-89.207,8.186-101.653-0.628
								c-13.662-9.678-30.742-48.669-66.326-138.208c-7.229-18.186-13.469-33.892-17.356-42.673
								c-24.729-55.884-43.31-72.612-98.33-55.22c-19.253,6.091-44.817,18.447-71.882,31.531
								c-63.557,30.72-129.282,62.5-170.103,44.836c-39.795-17.207-111.518-115.618-175.622-206.509
								c-12.598-17.864-22.549-31.975-26.372-36.536c-39.167-46.706-79.392-53.967-122.998-22.197
								c-39.661,28.899-101.477,120.964-151.148,194.939c-64.187,95.601-78.418,114.17-95.596,113.474
								c-9.883-0.449-21.326-7.239-46.262-22.554c-31.157-19.133-83.293-51.182-107.529-42.964
								c-3.506,1.187-7.959,3.667-11.318,12.39c-19.678,51.108,23.186,203.464,46.614,274.258
								C1537.491,914.77,1670.902,893.459,1797.53,893.459z M2860.43,1138.947L2860.43,1138.947
								C2860.43,1138.944,2860.43,1138.947,2860.43,1138.947z"/>
						</g>
					</g>
					<g>
						<g>
							<path style="fill:#410700;" d="M2670.396,1367.953c-87.058-210.19-576.416-724.08-1301.338-430.134l-12.026-29.653
								c391.448-158.733,704.455-77.859,898.108,17.935c231.868,114.697,390.483,298.413,444.822,429.607L2670.396,1367.953z"/>
						</g>
					</g>
				</g>
				<g>
					<g>
						<g>
							
								<ellipse transform="matrix(0.1157 -0.9933 0.9933 0.1157 901.0363 2349.2717)" style="fill:#AF1230;" cx="1769.931" cy="668.59" rx="83.064" ry="62.755"/>
						</g>
					</g>
					<g>
						<g>
							
								<ellipse transform="matrix(0.1157 -0.9933 0.9933 0.1157 909.9452 2324.5073)" style="fill:#E2334C;" cx="1760.475" cy="651.205" rx="59.389" ry="44.868"/>
						</g>
					</g>
					<g>
						<g>
							
								<ellipse transform="matrix(0.1157 -0.9933 0.9933 0.1157 904.7589 2318.6777)" style="fill:#F7637F;" cx="1754.602" cy="651.205" rx="35.548" ry="26.856"/>
						</g>
					</g>
					<g>
						<g>
							<path style="fill:#410700;" d="M1766.021,767.428c-2.51,0-5.027-0.146-7.551-0.44c-21.753-2.534-40.647-15.706-53.208-37.09
								c-11.709-19.937-16.523-44.946-13.557-70.42c6.323-54.258,46.553-94.307,89.688-89.29
								c43.135,5.027,73.083,53.257,66.765,107.512c-2.969,25.476-13.403,48.708-29.382,65.42
								C1803.629,758.966,1785.133,767.428,1766.021,767.428z M1774.056,601.764c-23.884,0-46.563,27.048-50.564,61.416
								c-2.168,18.604,1.157,36.543,9.363,50.513c7.358,12.527,17.769,20.166,29.316,21.509
								c11.563,1.355,23.438-3.694,33.477-14.194c11.196-11.711,18.557-28.406,20.723-47.007
								c4.207-36.108-13.506-69.092-38.679-72.024C1776.478,601.835,1775.265,601.764,1774.056,601.764z"/>
						</g>
					</g>
				</g>
				<g>
					<g>
						<g>
							
								<ellipse transform="matrix(0.6236 -0.7817 0.7817 0.6236 186.1636 2488.7275)" style="fill:#AF1230;" cx="2677.581" cy="1051.036" rx="83.064" ry="46.037"/>
						</g>
					</g>
					<g>
						<g>
							
								<ellipse transform="matrix(0.6236 -0.7817 0.7817 0.6236 192.2865 2479.9314)" style="fill:#E2334C;" cx="2671.506" cy="1040.28" rx="56.561" ry="31.348"/>
						</g>
					</g>
					<g>
						<g>
							
								<ellipse transform="matrix(0.6236 -0.7817 0.7817 0.6236 192.2862 2479.9309)" style="fill:#F7637F;" cx="2671.506" cy="1040.28" rx="34.853" ry="19.317"/>
						</g>
					</g>
					<g>
						<g>
							<path style="fill:#410700;" d="M2644.627,1138.097c-10.979,0-20.803-3.22-28.826-9.622
								c-14.363-11.458-20.073-30.811-16.074-54.49c3.433-20.317,13.857-42.207,29.358-61.638
								c34.641-43.428,83.081-60.447,110.273-38.752c27.192,21.694,21.36,72.705-13.281,116.128l0,0
								c-15.5,19.431-34.529,34.461-53.577,42.319C2662.704,1136.086,2653.304,1138.097,2644.627,1138.097z M2710.509,996.093
								c-13.574,0-36.421,11.157-56.409,36.211c-11.995,15.036-20.313,32.173-22.82,47.009c-1.917,11.355-0.244,20.383,4.478,24.148
								c4.717,3.762,13.889,3.398,24.539-1.001c13.911-5.74,28.77-17.656,40.767-32.693c25.53-32.002,27.913-63.518,18.34-71.157
								C2717.325,996.952,2714.271,996.093,2710.509,996.093z"/>
						</g>
					</g>
				</g>
			</g>
		</g>
		<g>
			<g>
				<g>
					<path style="fill:#EA4747;" d="M1273.328,2197.544c-19.915-74.298-22.177-131.104-1.532-173.106
						c49.362-100.426,206.979-88.511,339.064-38.128c0,0,179.234,66.213,233.362,153.532c27.638,44.585,4.851,97.787-28.085,114.128
						c0,0-3.064,46.723-22.979,100.851c-19.915,54.128-21.731,86.521-57.021,89.021c-40.851,2.894-58.894,2.213-89.192,73.872
						c-37.653,89.055-40.17,380.936-30.979,561.702c9.192,180.766,15.319,272.681,15.66,295.489c0.34,22.809-1.021,48-82.723,58.894
						c-81.702,10.894-236.255,2.042-315.404-48.511c-79.149-50.553-63.151-124.339-54.298-145.532
						c11.234-26.894,51.083-25.795,51.083-25.795s-29.636-309.864-29.636-567.226S1273.328,2197.544,1273.328,2197.544z"/>
				</g>
			</g>
			<g>
				<g>
					<path style="fill:#F96262;" d="M1605.753,2397.326c-136.851,2.942-280.127,96.641-280.127,96.641s26.17,58.812,172.553,89.79
						c146.383,30.979,44.834-53.144,44.834-53.144L1605.753,2397.326z"/>
				</g>
			</g>
			<g>
				<g>
					<path style="fill:#F96262;" d="M1276.84,3406.486c6.689,2.536,13.62,4.891,20.73,7.088l67.842-111.434
						c-12.255-229.872-97.702-365.315-97.702-365.315s16.001,174.932,14.638,336.975
						C1281.858,3332.275,1279.513,3375.478,1276.84,3406.486z"/>
				</g>
			</g>
			<g>
				<g>
					<path style="fill:#B71818;" d="M1628.16,3304.983c-2.745-48.963-6.974-122.925-12.193-225.566
						c-6.282-123.558-7.091-299.016,5.048-426.145c-292.25,21.32-366.58-152.919-366.58-152.919s-30.603,115.404,56.528,222.128
						c-20.443-2.213-68.085-21.447-68.085-21.447s41.891,73.532,118.128,127.66c-32.528-0.51-66.374-1.588-66.374-1.588
						s79.292,97.077,110.952,456.566C1422.479,3475.517,1530.801,3408.865,1628.16,3304.983z"/>
				</g>
			</g>
			<g>
				<g>
					<path style="fill:#B71818;" d="M1816.131,2253.99c0,0-3.04,46.72-22.96,100.84c-13.12,35.56-18.44,61.68-30.521,76.16
						c-52.72-25.24-104.88-48.72-129-55.24c-88.92-24-206.16,41.28-206.16,41.28s17.041-82.04,139.121-98.92
						c-79.761-80.6-186.921-83.76-263.761-71.8c12.521-53,24.761-90.76,24.761-90.76s-37.121,1.12-63.721,1.2
						c-10.52-54.72-8.8-98.36,7.92-132.32c49.36-100.4,206.96-88.52,339.04-38.12c0,0,179.24,66.2,233.36,153.52
						C1871.851,2184.43,1849.091,2237.629,1816.131,2253.99z"/>
				</g>
			</g>
			<g>
				<g>
					<path style="fill:#FFFFFF;" d="M1271.795,2024.438c-20.645,42.002-18.383,98.808,1.532,173.106
						c76.086-71.012,271.15-7.659,480.761,56.658c0,0-5.082,80.704-75.116,92.483c-154.759,26.029-218.272,153.945-236.94,249.828
						c-46.661,239.655,5.083,656.18,5.083,656.18s-135.489,7.49-216.831-38.731c0,0-39.85-1.099-51.084,25.795
						c-8.853,21.193-24.851,94.979,54.299,145.532c79.148,50.553,233.701,59.404,315.404,48.511
						c81.701-10.894,83.063-36.085,82.723-58.894c-0.34-22.808-6.468-114.723-15.659-295.49
						c-9.191-180.766-6.675-472.646,30.979-561.702c30.298-71.659,48.341-70.979,89.191-73.872
						c35.29-2.5,37.106-34.894,57.021-89.021c19.915-54.127,22.979-100.851,22.979-100.851
						c32.937-16.341,55.724-69.542,28.085-114.128c-54.127-87.319-233.361-153.532-233.361-153.532
						C1478.775,1935.927,1321.158,1924.012,1271.795,2024.438z"/>
				</g>
			</g>
			<g>
				<g>
					<path style="fill:#B7CCE2;" d="M1806.354,2311.429c-3.412-2.414-6.975-2.309-10.643,1.309
						c-24.852,24.51-29.693,99.104-61.139,101.438c-45.022,3.342-89.5-1.143-132.904,79.791
						c-46.562,86.82-40.879,541.671-33.361,621.705c14.979,159.489,40.17,257.511-25.294,265
						c-65.463,7.49-191.959-43.559-191.959-43.559l14.358,41.538c-68.766-14.979-130.749-70.897-130.749-70.897l8.214,36.855
						c0,0-53.813-29.86-65.571-99.736c-8.709,26.137-17.515,93.339,56.192,140.417c79.148,50.553,233.701,59.404,315.404,48.511
						c81.701-10.894,83.063-36.085,82.723-58.894c-0.34-22.808-6.468-114.723-15.659-295.49
						c-9.191-180.766-6.675-472.646,30.979-561.702c30.298-71.659,48.341-70.979,89.191-73.872
						c35.29-2.5,37.106-34.894,57.021-89.021C1798.809,2339.46,1803.101,2324.699,1806.354,2311.429z"/>
				</g>
			</g>
			<g>
				<g>
					<path style="fill:#B7CCE2;" d="M1426.26,2727.698c-1.311,20.382-2.239,41.167-2.84,62.142
						c42.269,22.041,133.509,26.377,189.029,20.598c0.536-22.724,1.305-45.194,2.339-67.056
						C1567.673,2748.859,1493.678,2751.377,1426.26,2727.698z"/>
				</g>
			</g>
			<g>
				<g>
					<path style="fill:#B7CCE2;" d="M1850.913,2213.208c-56.504,24.103-150.182-24.345-150.182-24.345l33.41-16.766l-248.218-57.787
						l44.596-29.617l-213.616,12.596l5.957-38.128c0,0-59.756,26.677-55.358,114.786c1.742,7.673,3.659,15.512,5.826,23.596
						c76.086-71.012,271.15-7.659,480.761,56.658c0,0-0.481,7.442-3.085,18.111l64.45-11.16c0.511-4.603,0.683-7.183,0.683-7.183
						C1831.078,2246.557,1843.91,2231.547,1850.913,2213.208z"/>
				</g>
			</g>
			<g style="opacity:0.5;">
				<g>
					<path style="fill:#FFFFFF;" d="M1288.956,3237.087c-16.449-210.721-113.742-737.957,48.887-1064.726
						c-38.473-9.711-64.516,25.182-64.516,25.182s-72.681,191.83-72.681,449.191c0,257.362,29.637,567.226,29.637,567.226
						S1238.15,3220.204,1288.956,3237.087z"/>
				</g>
			</g>
			<g>
				<g>
					<path style="fill:#410700;" d="M1479.583,3453.83c-84.123,0-191.536-14.717-254.7-55.054
						c-80.664-51.523-75.95-128.076-60.447-165.185c9.561-22.891,32.278-31.104,48.462-34.033
						c-5.974-66.782-28.252-330.742-28.252-552.822c0-237.822,60.396-417.778,71.926-449.966
						c-20.61-79.194-20.317-136.294,0.862-179.385c55.911-113.76,228.403-95.894,359.128-46.023
						c7.371,2.722,184.88,69.104,241.257,160.051c14.758,23.809,18.625,51.87,10.889,79.019
						c-6.384,22.397-20.071,41.685-37.427,53.223c-1.853,16.44-7.49,54.243-23.11,96.689c-3.936,10.703-7.219,20.757-10.117,29.624
						c-12.246,37.481-21.919,67.085-60.789,69.839l-3.284,0.229c-35.835,2.485-46.648,3.237-72.302,63.911
						c-33.589,79.448-40.391,345.068-29.736,554.658c4.636,91.153,8.44,158.799,11.218,208.194
						c2.673,47.539,4.287,76.235,4.463,87.866c0.569,38.271-15.393,64.165-96.609,74.995
						C1531.073,3452.321,1506.522,3453.83,1479.583,3453.83z M1229.783,3229.958c-1.467,0-29.26,0.259-35.82,15.967
						c-1.279,3.066-30.466,75.674,48.147,125.879c73.325,46.836,224.06,56.875,304.678,46.138
						c69.341-9.248,69.097-25.542,68.84-42.798c-0.164-10.972-1.765-39.419-4.414-86.548
						c-2.781-49.429-6.589-117.129-11.228-208.369c-8.984-176.733-7.817-474.043,32.222-568.74
						c31.89-75.425,54.812-80.269,99.558-83.374l3.24-0.229c15.898-1.123,20.09-9.468,32.632-47.852
						c2.983-9.131,6.365-19.482,10.503-30.732c18.804-51.104,22-95.942,22.031-96.387c0.383-5.679,3.755-10.742,8.853-13.271
						c12.993-6.45,24.07-21.001,28.911-37.983c5.237-18.369,2.639-37.334-7.312-53.389
						c-50.586-81.602-223.569-146.306-225.31-146.951c-127.639-48.682-275.72-58.191-319.158,30.178
						c-18,36.621-17.166,88.066,2.627,161.909c0.869,3.238,0.696,6.67-0.491,9.805c-0.715,1.895-71.643,192.368-71.643,443.525
						c0,253.623,29.267,562.612,29.563,565.703c0.437,4.565-1.106,9.097-4.238,12.446c-3.13,3.349-7.544,5.063-12.131,5.073
						C1229.837,3229.958,1229.818,3229.958,1229.783,3229.958z"/>
				</g>
			</g>
			<g>
				<g>
					<path style="fill:#410700;" d="M1789.539,2275.212c-32.813,0-72.742-15.049-119.922-32.832
						c-41.028-15.464-87.532-32.988-140.278-45.337c-128.276-30.049-221.233-16.972-243.586,10.581l-24.849-20.156
						c40.571-50.014,167.717-46.88,275.73-21.582c54.783,12.827,102.324,30.742,144.268,46.553
						c57.522,21.675,102.947,38.818,128.535,27.002l13.399,29.063C1812.694,2273.176,1801.598,2275.212,1789.539,2275.212z"/>
				</g>
			</g>
			<g>
				<g>
					<path style="fill:#410700;" d="M1406.673,3270.612c-109.568,0-181.104-40.879-184.446-42.827l16.089-27.661
						c0.798,0.459,77.952,44.214,191.624,37.817c-5.415-71.475-26.389-356.138-25.376-464.038
						c0.793-84.59,16.011-291.387,139.836-384.385c53.84-40.439,96.895-50.479,128.333-57.808
						c15.381-3.584,27.532-6.416,35.535-11.694c12.236-8.071,25.239-46.035,30.171-69.146l31.301,6.655
						c-2.488,11.704-16.287,71.021-43.857,89.204c-12.781,8.428-28.12,12.007-45.884,16.148
						c-30.264,7.056-67.93,15.835-116.379,52.227c-77.998,58.579-125.496,192.822-127.058,359.102
						c-1.125,119.819,26.23,473.687,26.506,477.246c0.676,8.706-5.752,16.348-14.443,17.168
						C1434.107,3269.997,1420.103,3270.612,1406.673,3270.612z"/>
				</g>
			</g>
			<g>
				<g>
					<path style="fill:#410700;" d="M1472.222,2737.289c24.299,1.514,50.89,3.234,75.087,3.611
						c8.386,0.378,16.83,0.322,26.019,1.495c-7.488,5.274-15.871,8.864-24.588,11.004
						C1522.904,2759.609,1492.297,2755.985,1472.222,2737.289L1472.222,2737.289z"/>
				</g>
			</g>
			<g>
				<g>
					<path style="fill:#410700;" d="M1257.838,2524.863c9.818,37.908,21.821,72.779,42.168,105.489
						c20.21,32.158,43.372,61.466,75.959,82.938c-10.14-0.503-20.156-3.727-29.565-7.914
						C1282.184,2673.918,1241.954,2595.054,1257.838,2524.863L1257.838,2524.863z"/>
				</g>
			</g>
			<g>
				<g>
					<path style="fill:#410700;" d="M1421.413,2422.736c8.913-15.427,22.665-27.343,37.483-36.873
						c37.616-24.229,83.052-36.208,127.722-35.47c9.005,0.078,17.958,1.001,26.94,1.706l-4.304,31.709
						c-31.882-4.511-64.337-4.986-96.05,1.553C1480.512,2391.703,1450.677,2406.849,1421.413,2422.736L1421.413,2422.736z"/>
				</g>
			</g>
			<g>
				<g>
					<path style="fill:#410700;" d="M1514.104,2302.736c22.045-11.25,49.646-10.237,71.016,2.221
						c7.119,4.524,13.518,10.826,16.548,18.715c-7.848-3.196-14.644-5.358-21.617-7.2
						C1558.804,2311.06,1535.389,2309.152,1514.104,2302.736L1514.104,2302.736z"/>
				</g>
			</g>
			<g>
				<g>
					<polygon style="fill:#410700;" points="1477.583,3351.587 1431.824,3257.404 1462.406,3247.982 1477.583,3351.587 					"/>
				</g>
			</g>
		</g>
		<g>
			<g>
				<g>
					<path style="fill:#FFD345;" d="M1701.626,2118.012c13.048-15.521,45.166-7.977,63.574,5.617
						c24.894,18.383,46.683,51.479,31.66,66.91c-15.106,15.516-46.258-0.676-61.404-10.995
						C1696.524,2153.021,1689.498,2132.438,1701.626,2118.012z"/>
				</g>
			</g>
			<g>
				<g>
					<path style="fill:#EF9D18;" d="M1743.966,2154.183c-22.525-15.347-34.315-28.691-37.948-40.018
						c-1.611,1.093-3.116,2.329-4.393,3.847c-12.127,14.426-5.102,35.009,33.83,61.532c15.147,10.319,46.298,26.511,61.404,10.995
						c5.34-5.485,5.967-13.219,3.518-21.714C1784.184,2177.448,1757.605,2163.474,1743.966,2154.183z"/>
				</g>
			</g>
			<g style="opacity:0.6;">
				<g>
					<path style="fill:#FFFFFF;" d="M1765.2,2123.629c-18.408-13.594-50.525-21.138-63.574-5.617
						c-3.997,4.755-5.859,10.193-5.238,16.279c13.898-13.276,44.251-5.86,61.962,7.219c18.066,13.341,34.421,34.407,36.333,50.871
						c0.745-0.575,1.495-1.14,2.178-1.841C1811.883,2175.108,1790.094,2142.012,1765.2,2123.629z"/>
				</g>
			</g>
			<g>
				<g>
					<path style="fill:#410700;" d="M1780.24,2208.976c-20.725,0.005-43.147-13.794-51.543-19.517
						c-27.395-18.667-41.841-35.918-44.155-52.739c-1.318-9.575,1.414-18.716,7.901-26.431c18.718-22.261,58.42-12.163,79.888,3.687
						c19.28,14.238,39.539,38.486,41.335,60.557c0.786,9.624-2.053,18.057-8.208,24.38
						C1798.302,2206.261,1789.437,2208.976,1780.24,2208.976z M1723.905,2121.384c-5.832,0-10.598,1.387-13.091,4.35l-0.002,0.005
						c-2.708,3.218-2.754,5.811-2.493,7.71c0.596,4.341,5.095,16.558,33.892,36.177c16.982,11.577,38.894,19.902,46.05,12.544
						c0.539-0.557,1.799-1.846,1.484-5.688c-0.962-11.816-14.875-30.791-31.672-43.198
						C1747.811,2125.705,1734.2,2121.384,1723.905,2121.384z"/>
				</g>
			</g>
		</g>
	</g>
</g>
</svg>
