<?xml version="1.0" encoding="utf-8"?>
<!-- Generator: Adobe Illustrator 27.5.0, SVG Export Plug-In . SVG Version: 6.00 Build 0)  -->
<svg version="1.1" id="Layer_1" xmlns="http://www.w3.org/2000/svg" xmlns:xlink="http://www.w3.org/1999/xlink" x="0px" y="0px"
	 viewBox="400 500 4000 4000" style="enable-background:new 0 0 4000 4000;" xml:space="preserve">
<g>
	<g>
		<g style="opacity:0.2;">
			<ellipse style="fill:#390176;" cx="2026.655" cy="3461.911" rx="915.878" ry="141.694"/>
		</g>
		<g>
			<g>
				<g>
					<g>
						<path style="fill:#FFB78A;" d="M1914.804,3390.178c0.053,1.382,0.053,2.763,0,4.092
							c-0.744,72.848-91.021,104.517-288.472,86.876c-5.367-0.478-10.839-1.01-16.365-1.541
							c-77.312-53.986-10.521-118.651,76.408-137.249L1914.804,3390.178z"/>
					</g>
					<g style="opacity:0.2;">
						<path style="fill:#390176;" d="M1914.804,3394.27c-0.744,72.848-91.021,104.517-288.472,86.876
							c-60.149-52.179,4.198-111.425,86.876-129.119L1914.804,3394.27z"/>
					</g>
					<g>
						<path style="fill:#390176;" d="M1639.393,3352.05c39.622,31.008,68.26,69.435,85.915,115.283
							c-64.184,1.447-127.538,1.729-151.341-53.414c-38.8,31.671-40.021,141.005,159.978,125.524
							c12.637-0.978,25.312-1.527,37.985-1.713c140.763-2.068,165.291-63.05,145.669-139.796
							c-31.385,44.146-65.127,70.608-103.268,64.058c-13.7-45.772-36.257-75.29-64.987-93.475L1639.393,3352.05z"/>
					</g>
					<g>
						<path style="fill:#390176;" d="M1723.644,3496.601c-33.818,0-72.009-2.139-114.726-6.401
							c-1.809-0.181-3.542-0.825-5.032-1.865c-37.568-26.255-41.121-53.184-37.485-71.147c7.595-37.534,54.924-71.782,117.773-85.22
							c1.448-0.313,2.947-0.317,4.399-0.01l228.389,47.822c4.788,1.001,8.274,5.142,8.442,10.034
							c0.886,25.557-7.686,46.963-25.471,63.633C1869.142,3482.299,1811.046,3496.601,1723.644,3496.601z M1613.839,3469.325
							c143.018,14.028,234.365,3.467,271.56-31.387c11.362-10.649,17.498-23.516,18.623-39.155l-217.578-45.557
							c-51.977,11.646-93.535,40.117-99.211,68.174C1583.893,3437.9,1592.843,3454.018,1613.839,3469.325z"/>
					</g>
				</g>
				<g>
					<g>
						<path style="fill:#FFB78A;" d="M2134.94,3390.178c-0.052,1.382-0.052,2.763,0,4.092
							c0.744,72.848,91.021,104.517,288.472,86.876c5.367-0.478,10.839-1.01,16.365-1.541
							c77.312-53.986,10.521-118.651-76.408-137.249L2134.94,3390.178z"/>
					</g>
					<g style="opacity:0.2;">
						<path style="fill:#390176;" d="M2134.94,3394.27c0.744,72.848,91.021,104.517,288.472,86.876
							c60.149-52.179-4.198-111.425-86.876-129.119L2134.94,3394.27z"/>
					</g>
					<g>
						<path style="fill:#390176;" d="M2410.351,3352.05c-39.622,31.008-68.26,69.435-85.915,115.283
							c64.185,1.447,127.538,1.729,151.341-53.414c38.801,31.671,40.021,141.005-159.978,125.524
							c-12.637-0.978-25.312-1.527-37.985-1.713c-140.763-2.068-165.291-63.05-145.668-139.796
							c31.385,44.146,65.126,70.608,103.268,64.058c13.7-45.772,36.257-75.29,64.987-93.475L2410.351,3352.05z"/>
					</g>
					<g>
						<path style="fill:#390176;" d="M2326.1,3496.601c-87.415,0-145.496-14.297-176.289-43.154
							c-17.786-16.67-26.355-38.076-25.469-63.633c0.168-4.893,3.655-9.033,8.442-10.034l228.389-47.822
							c1.448-0.308,2.947-0.303,4.399,0.01c62.849,13.438,110.178,47.686,117.771,85.22c3.635,17.964,0.083,44.893-37.485,71.147
							c-1.489,1.04-3.223,1.685-5.032,1.865C2398.116,3494.462,2359.913,3496.601,2326.1,3496.601z M2145.724,3398.783
							c1.123,15.64,7.258,28.506,18.621,39.155c37.195,34.854,128.555,45.41,271.56,31.387
							c20.996-15.308,29.946-31.426,26.606-47.925c-5.676-28.057-47.234-56.528-99.209-68.174L2145.724,3398.783z"/>
					</g>
				</g>
			</g>
			<g>
				<g>
					<g style="opacity:0.6;">
						<path style="fill:#39D4FF;" d="M3049.723,3076.414c-7.704,26.568-22.848,50.372-43.73,68.491
							c-54.677,47.45-121.415,84.539-194.688,112.594c-127.79,48.991-275.347,70.511-412.968,71.573l-61.637-1106.758l-2.923-52.02
							l670.994,376.252c22.53,12.646,39.852,32.997,48.141,57.44C3093.56,2724.126,3101.158,2898.676,3049.723,3076.414z"/>
					</g>
					<g>
						<path style="fill:#390176;" d="M2398.316,3345.014c-8.45,0-15.442-6.602-15.913-15.054l-64.541-1158.765
							c-0.325-5.811,2.544-11.333,7.478-14.414c4.941-3.071,11.162-3.223,16.233-0.381l671.008,376.24
							c26.27,14.731,45.95,38.257,55.42,66.23l0,0c46.089,136.182,44.978,316.353-2.971,481.958
							c-8.586,29.648-25.393,55.972-48.611,76.118c-135.4,117.49-360.645,186.04-617.976,188.066
							C2398.402,3345.014,2398.358,3345.014,2398.316,3345.014z M2351.31,2198.412l62.075,1114.521
							c243.477-4.458,455.022-69.761,582.141-180.068c18.564-16.108,32.009-37.168,38.879-60.903
							c46.208-159.585,47.478-332.622,3.396-462.866v-0.005c-6.936-20.498-21.431-37.773-40.813-48.643L2351.31,2198.412z"/>
					</g>
					<g style="opacity:0.6;">
						<path style="fill:#FFFFFF;" d="M3060.601,2628.823c-72.584,79.588-180.922,41.24-252.59-52.033
							c-73.061,44.253-166.677,3.979-208.556-98.283c-81.423,31.657-153.207-47.423-196.601-148.38l31.863,242.529
							c51.483,29.854,93.343,22.343,130.846-2.091c54.219,102.328,130.043,145.079,234.478,108.927
							c74.7,101.714,165.815,122.797,278.672,37.089L3060.601,2628.823z"/>
					</g>
					<g>
						<path style="fill:#390176;" d="M2946.466,2780.61c-7.178,0-14.265-0.508-21.274-1.523
							c-46.558-6.748-89.951-36.04-129.067-87.104c-98.223,31.006-177.07-4.819-234.553-106.572
							c-43.059,24.18-86.411,22.983-132.188-3.56c-2.852-1.655-4.775-4.541-5.205-7.813l-31.863-242.529
							c-0.691-5.259,2.605-10.225,7.72-11.631c5.112-1.387,10.486,1.177,12.581,6.055c18.474,42.974,86.26,180.269,182.988,142.671
							c5.396-2.109,11.484,0.513,13.684,5.874c21.221,51.816,57.773,89.585,100.286,103.613
							c31.626,10.439,64.634,6.753,92.932-10.391c4.634-2.798,10.63-1.68,13.933,2.617c42.122,54.819,96.812,88.794,146.292,90.879
							c34.524,1.509,64.771-11.851,90.02-39.536c2.693-2.949,6.819-4.136,10.664-3.086c3.855,1.06,6.787,4.189,7.595,8.101
							l18.11,87.759c0.828,4.009-0.72,8.135-3.979,10.61C3036.507,2761.977,2989.962,2780.61,2946.466,2780.61z M2800.038,2668.862
							c3.315,0,6.526,1.558,8.567,4.341c36.819,50.132,77.07,78.682,119.636,84.849c42.131,6.104,88.765-9.351,138.696-45.942
							l-12.832-62.188c-26.599,22.769-58.118,33.994-92.271,32.51c-54.236-2.285-110.886-35.664-156.545-91.938
							c-31.768,16.392-67.771,19.204-102.378,7.783c-45.803-15.117-85.232-53.687-109.319-106.553
							c-61.462,18.066-123.098-18.76-172.07-101.069l23.037,175.337c40.42,21.87,77.148,20.454,115.203-4.331
							c2.498-1.626,5.574-2.144,8.462-1.382c2.888,0.747,5.332,2.676,6.729,5.313c54.407,102.676,126.892,136.655,221.611,103.857
							C2797.704,2669.052,2798.878,2668.862,2800.038,2668.862z"/>
					</g>
					<g style="opacity:0.3;">
						<g>
							<path style="fill:#390176;" d="M2612.95,2934.436c-2.604,54.942-3.879,111.531,15.197,163.125
								c29.171,78.8,102.551,133.636,183.158,159.938c-127.79,48.991-275.347,70.511-412.968,71.573l-61.637-1106.758
								c8.66,1.488,17.375,5.899,25.186,10.308c152.552,86.08,305.05,172.213,457.549,258.292l-3.507,12.38
								c-45.591-27.896-108.609-2.922-140.012,40.276c-31.403,43.2-39.001,98.779-44.634,151.861
								C2622.886,2774.923,2616.776,2854.627,2612.95,2934.436z"/>
						</g>
					</g>
					<g style="opacity:0.6;">
						<path style="fill:#39D4FF;" d="M1026.364,3076.414c7.704,26.568,22.849,50.372,43.73,68.491
							c54.676,47.45,121.415,84.539,194.688,112.594c127.79,48.991,275.347,70.511,412.968,71.573l61.637-1106.758l2.923-52.02
							l-670.994,376.252c-22.529,12.646-39.852,32.997-48.141,57.44C982.527,2724.126,974.929,2898.676,1026.364,3076.414z"/>
					</g>
					<g>
						<path style="fill:#390176;" d="M1677.77,3345.014c-0.044,0-0.085,0-0.127,0c-257.334-2.026-482.576-70.576-617.974-188.066
							c-23.218-20.146-40.027-46.47-48.613-76.118c-47.949-165.605-49.06-345.776-2.971-481.958
							c9.468-27.979,29.15-51.499,55.422-66.23l671.008-376.24c5.071-2.847,11.294-2.695,16.233,0.381
							c4.934,3.081,7.803,8.604,7.478,14.414l-64.543,1158.765C1693.212,3338.407,1686.219,3345.009,1677.77,3345.014z
							 M1724.779,2198.412l-645.681,362.041c-19.382,10.864-33.877,28.14-40.813,48.638v0.005
							c-44.082,130.244-42.812,303.281,3.396,462.866c6.87,23.735,20.317,44.795,38.882,60.903
							c127.117,110.308,338.66,175.61,582.139,180.068L1724.779,2198.412z M1023.185,2603.984h0.049H1023.185z"/>
					</g>
					<g style="opacity:0.6;">
						<path style="fill:#FFFFFF;" d="M1015.487,2628.823c72.585,79.588,180.922,41.24,252.59-52.033
							c73.061,44.253,166.677,3.979,208.557-98.283c81.423,31.657,153.207-47.423,196.601-148.38l-31.863,242.529
							c-51.483,29.854-93.343,22.343-130.846-2.091c-54.219,102.328-130.043,145.079-234.478,108.927
							c-74.7,101.714-165.815,122.797-278.672,37.089L1015.487,2628.823z"/>
					</g>
					<g>
						<path style="fill:#390176;" d="M1129.62,2780.61c-43.496,0-90.037-18.628-138.674-55.566c-3.259-2.476-4.807-6.602-3.98-10.61
							l18.113-87.759c0.808-3.911,3.743-7.041,7.595-8.101c3.843-1.055,7.974,0.137,10.664,3.086
							c25.249,27.686,55.527,41.011,90.02,39.536c49.48-2.085,104.17-36.06,146.292-90.879c3.303-4.297,9.304-5.415,13.933-2.617
							c28.293,17.144,61.299,20.82,92.932,10.391c42.512-14.028,79.065-51.797,100.286-103.613
							c2.197-5.361,8.279-7.983,13.684-5.874c96.704,37.583,164.512-99.697,182.986-142.671c2.097-4.883,7.463-7.441,12.581-6.055
							c5.115,1.406,8.411,6.372,7.72,11.631l-31.863,242.529c-0.43,3.271-2.354,6.157-5.205,7.813
							c-45.776,26.543-89.126,27.739-132.185,3.56c-57.478,101.758-136.308,137.578-234.556,106.572
							c-39.116,51.064-82.507,80.356-129.065,87.104C1143.89,2780.102,1136.798,2780.61,1129.62,2780.61z M1009.149,2712.109
							c49.934,36.597,96.563,52.021,138.699,45.942c42.564-6.167,82.815-34.717,119.634-84.849
							c2.756-3.755,7.642-5.278,12.041-3.755c94.717,32.788,167.207-1.182,221.614-103.857c1.396-2.637,3.838-4.565,6.728-5.313
							c2.888-0.762,5.964-0.244,8.462,1.382c38.049,24.795,74.78,26.216,115.2,4.331l23.037-175.337
							c-40.791,68.569-90.378,105.566-141.328,105.576c-10.217,0-20.471-1.484-30.74-4.507
							c-24.087,52.866-63.516,91.436-109.319,106.553c-34.604,11.421-70.603,8.618-102.378-7.783
							c-45.659,56.274-102.31,89.653-156.545,91.938c-34.119,1.455-65.671-9.746-92.271-32.51L1009.149,2712.109z"/>
					</g>
					<g style="opacity:0.3;">
						<g>
							<path style="fill:#390176;" d="M1463.137,2934.436c2.604,54.942,3.879,111.531-15.197,163.125
								c-29.171,78.8-102.551,133.636-183.158,159.938c127.79,48.991,275.347,70.511,412.968,71.573l61.637-1106.758
								c-8.66,1.488-17.375,5.899-25.186,10.308c-152.552,86.08-305.05,172.213-457.549,258.292l3.507,12.38
								c45.591-27.896,108.609-2.922,140.012,40.276c31.403,43.2,39.001,98.779,44.634,151.861
								C1453.201,2774.923,1459.311,2854.627,1463.137,2934.436z"/>
						</g>
					</g>
				</g>
				<g>
					<g>
						<g>
							<path style="fill:#FAC611;" d="M3365.826,1884.268c25.452-81.35-4.516-163.125-66.95-182.68
								c-62.434-19.553-133.742,30.5-159.194,111.797c-10.255,32.837-11.53,65.782-5.207,94.635l-50.159-53.454
								c-62.434,30.553-80.5,136.558-73.061,208.556l120.086,9.139l-476.04,1323.497c-8.449,23.485,3.719,49.362,27.205,57.811
								c5.048,1.807,10.202,2.657,15.25,2.657c18.544,0,35.866-11.477,42.508-29.862l471.577-1311.063l69.076,95.271
								c47.131-33.422,91.659-118.226,91.659-192.935l-116.685-19.713C3302.86,1987.67,3346.909,1944.523,3365.826,1884.268z
								 M3228.524,1936.606c-25.186-6.695-35.708-49.363-23.539-95.271c12.221-45.909,42.562-77.684,67.748-70.99
								c25.186,6.695,35.707,49.363,23.539,95.272C3284.051,1911.526,3253.763,1943.301,3228.524,1936.606z"/>
						</g>
						<g style="opacity:0.7;">
							<g>
								<path style="fill:#FFFFFF;" d="M3163.744,1933.011c-6.323-28.853-5.048-61.797,5.207-94.634
									c25.452-81.298,96.761-131.351,159.195-111.797c6.063,1.899,11.81,4.4,17.24,7.415
									c-12.229-15.208-27.916-26.583-46.511-32.407c-62.434-19.553-133.742,30.5-159.194,111.797
									c-9.357,29.964-11.162,59.98-6.616,86.931L3163.744,1933.011z"/>
							</g>
							<g>
								<path style="fill:#FFFFFF;" d="M3039.081,2065.24c-1.814-68.239,17.494-154.043,70.637-183.601l-25.404-27.073
									c-62.434,30.553-80.5,136.558-73.061,208.556L3039.081,2065.24z"/>
							</g>
							<g>
								<path style="fill:#FFFFFF;" d="M2684.569,3420.75c158.597-439.716,317.196-879.431,475.793-1319.147
									c6.527-18.097-10.856-35.671-29.023-29.342l0,0c-158.68,441.166-317.36,882.331-476.04,1323.497
									c-8.848,24.594,4.913,51.81,30.604,58.888c0.011-0.012,0.006-0.007,0.017-0.019
									C2681.265,3444.308,2680.433,3432.248,2684.569,3420.75z"/>
							</g>
						</g>
						<g style="opacity:0.3;">
							<g>
								<path style="fill:#390176;" d="M3238.132,2095.596l-23.477-32.38c-6.338-8.742-19.876-6.82-23.531,3.341l-462.971,1287.138
									c-6.642,18.385-23.964,29.861-42.508,29.861c-5.048,0-10.202-0.85-15.25-2.657c-2.959-1.064-5.736-2.408-8.317-3.986
									l-6.261,17.406c-8.179,22.741,1.919,48.791,24.154,58.258c5.848,2.49,11.888,3.649,17.783,3.649
									c18.544,0,35.866-11.477,42.508-29.862l471.577-1311.063l69.076,95.271c47.131-33.422,91.659-118.226,91.659-192.935
									l-23.195-3.919c-9.156,29.839-23.311,58.348-39.867,81.681C3292.136,2119.89,3255.758,2119.907,3238.132,2095.596z"/>
							</g>
						</g>
						<g>
							<path style="fill:#390176;" d="M2697.755,3469.511c-6.724,0-13.362-1.157-19.727-3.438
								c-14.719-5.293-26.475-15.986-33.123-30.117c-6.646-14.126-7.395-30-2.107-44.697l470.134-1307.075l-102.688-7.817
								c-6.406-0.488-11.545-5.493-12.205-11.88c-7.214-69.827,8.252-186.528,80.435-221.853c5.247-2.561,11.538-1.411,15.527,2.842
								l23.315,24.846c0.122-20.1,3.364-40.662,9.683-60.896c13.181-42.102,38.315-77.837,70.776-100.63
								c33.528-23.54,70.84-30.61,105.068-19.883c69.314,21.707,103.254,111.121,75.659,199.321
								c-14.072,44.824-41.963,82.141-75.991,104.094l72.273,12.209c6.394,1.079,11.072,6.614,11.072,13.098
								c0,74.326-43.63,165.737-97.256,203.77c-5.942,4.214-14.163,2.852-18.44-3.037l-54.326-74.927l-463.074,1287.417
								C2744.41,3453.984,2722.308,3469.511,2697.755,3469.511z M3023.539,2050.732l108.809,8.281
								c4.136,0.317,7.886,2.544,10.142,6.025c2.253,3.481,2.754,7.817,1.35,11.719l-476.04,1323.496
								c-2.886,8.022-2.478,16.685,1.147,24.395c3.625,7.705,10.037,13.54,18.054,16.421c3.464,1.24,7.09,1.87,10.754,1.87
								c13.396,0,25.457-8.472,30.012-21.089l471.572-1311.045c1.667-4.634,5.759-7.964,10.632-8.657
								c4.885-0.684,9.731,1.367,12.622,5.356l60.896,83.989c36.167-32.422,71.619-99.355,75.457-162.686l-105.269-17.783
								c-6.274-1.064-10.918-6.423-11.069-12.786c-0.151-6.36,4.231-11.936,10.449-13.293
								c43.853-9.573,83.142-50.654,100.095-104.658c23.218-74.209-2.91-148.691-58.247-166.023
								c-26.174-8.193-55.244-2.415-81.863,16.275c-27.695,19.446-49.246,50.278-60.684,86.816
								c-9.287,29.731-10.984,60.102-4.91,87.82c1.279,5.84-1.499,11.814-6.787,14.597c-5.283,2.783-11.785,1.694-15.876-2.664
								l-42.976-45.801C3037.333,1901.015,3019.007,1981.735,3023.539,2050.732z"/>
						</g>
						<g>
							<path style="fill:#390176;" d="M3168.014,1969.694c-4.211,0-8.352-1.997-10.93-5.72l-33.528-48.389
								c-4.18-6.03-2.678-14.307,3.352-18.484c6.028-4.182,14.307-2.681,18.484,3.352l33.528,48.389
								c4.18,6.03,2.678,14.307-3.352,18.484C3173.26,1968.925,3170.624,1969.694,3168.014,1969.694z"/>
						</g>
						<g>
							<path style="fill:#390176;" d="M3235.326,1948.105c-3.198,0-6.375-0.403-9.517-1.238
								c-16.108-4.28-27.961-18.716-33.379-40.645c-4.866-19.697-4.048-43.708,2.305-67.61
								c13.921-52.371,49.368-86.877,80.72-78.542c31.345,8.333,44.995,55.884,31.077,108.254
								C3294.007,1915.448,3264.039,1948.105,3235.326,1948.105z M3265.985,1780.102c-16.699,0-40.171,24.326-50.708,63.97
								c-5.452,20.505-6.238,40.767-2.214,57.053c3.423,13.85,10.059,23.035,18.206,25.2c16.704,4.441,43.308-20.525,54.722-63.459
								l0,0c11.411-42.935,0.73-77.808-15.994-82.253C3268.714,1780.27,3267.372,1780.102,3265.985,1780.102z"/>
						</g>
					</g>
					<g>
						<g>
							<g>
								<g>
									<path style="fill:#FFFFFF;" d="M1653.644,2253.984c-113.072,142.137-285.762,254.466-511.003,340.492
										c3.453-47.822,1.594-94.688-6.27-140.543c-9.565-56.484-28.321-111.425-57.492-164.561
										c117.004-38.523,222.796-103.189,321.522-184.326c20.669-16.95,40.967-34.644,61.052-52.977L1653.644,2253.984z"/>
								</g>
								<g>
									<path style="fill:#390176;" d="M1142.66,2610.419c-3.376,0-6.716-1.074-9.507-3.145c-4.373-3.247-6.785-8.501-6.397-13.936
										c7.839-109.409-12.388-206.318-61.831-296.27c-2.283-4.155-2.6-9.111-0.864-13.521c1.738-4.409,5.344-7.817,9.846-9.302
										c126.855-41.782,250.112-118.311,376.816-233.95c6.409-5.85,16.313-5.493,22.292,0.781l192.173,201.895
										c5.486,5.762,5.881,14.688,0.93,20.918c-112.012,140.786-286.216,257.021-517.773,345.479
										C1146.502,2610.073,1144.576,2610.419,1142.66,2610.419z M1101.686,2298.437c41.904,82.9,61.431,174.277,58.181,272.236
										c208.853-82.856,367.681-189.009,472.571-315.869l-171.802-180.488C1340.455,2181.957,1222.728,2255.473,1101.686,2298.437
										z"/>
								</g>
								<g>
									<path style="fill:#FAC611;" d="M1162.685,2256.58c80.072,55.836,112.915,177.839,80.072,296.345l-100.098,41.552
										c10.877-103.993-13.246-205.483-63.763-305.086L1162.685,2256.58z"/>
								</g>
								<g>
									<path style="fill:#390176;" d="M1142.66,2610.419c-3.384,0-6.733-1.079-9.531-3.164c-4.507-3.359-6.909-8.848-6.326-14.438
										c10.139-96.909-10.183-193.804-62.124-296.216c-2.034-4.009-2.28-8.691-0.679-12.891c1.599-4.199,4.897-7.524,9.082-9.165
										l83.789-32.808c4.968-1.948,10.564-1.274,14.932,1.768c85.486,59.609,120.979,188.599,86.313,313.677
										c-1.309,4.727-4.722,8.584-9.25,10.464l-100.098,41.553C1146.8,2610.014,1144.725,2610.419,1142.66,2610.419z
										 M1100.86,2297.909c44.002,92.056,64.028,183.325,59.673,271.885l68.833-28.569
										c26.907-106.416-0.991-213.745-69.05-266.597L1100.86,2297.909z"/>
								</g>
								<g style="opacity:0.3;">
									<g>
										<path style="fill:#390176;" d="M1653.644,2253.984c-113.072,142.137-285.762,254.466-511.003,340.492
											c3.453-47.822,1.594-94.688-6.27-140.543c12.54-3.295,25.08-6.535,37.407-10.415
											c63.497-20.085,120.511-56.696,173.859-96.6c30.288-22.583,60.203-46.918,81.085-78.48
											c20.883-31.51,31.828-71.521,21.042-107.759c-7.333-24.495-26.249-45.803-49.362-55.633
											c20.669-16.95,40.967-34.644,61.052-52.977L1653.644,2253.984z"/>
									</g>
								</g>
							</g>
							<g>
								<path style="fill:#FFD0B6;" d="M1142.641,2594.476l-100.355,15.775c-28.01,4.403-56.918-3.344-77.984-22.322
									c-57.874-52.136-43.615-154.427,31.792-220.607l-30.553-57.121c-4.711-13.824,1.771-26.568,19.926-26.568l64.815,3.993
									c18.256,1.125,34.33,12.247,42.072,28.818C1134.09,2405.786,1150.861,2498.462,1142.641,2594.476z"/>
							</g>
							<g style="opacity:0.3;">
								<path style="fill:#390176;" d="M1092.352,2316.445c-2.433-5.207-5.763-9.796-9.65-13.786
									c13.142,40.569,21.325,81.801,24.539,123.696c3.761,49.02-30.896,92.683-79.463,100.317l-21.359,3.358
									c-27.831,4.374-56.532-3.272-77.563-21.986c1.035,30.669,12.429,58.878,34.932,79.419
									c21.153,19.308,50.361,27.21,78.653,22.763l100.199-15.75C1150.861,2498.462,1134.091,2405.786,1092.352,2316.445z"/>
							</g>
							<g>
								<path style="fill:#390176;" d="M1026.668,2627.416c-27.173,0-53.079-9.663-73.037-27.646
									c-26.587-23.95-41.089-58.511-40.837-97.319c0.298-45.854,21.157-93.682,56.66-131.514
									c-1.851-1.401-3.638-2.891-5.359-4.458c-20.139-18.374-24.77-41.953-25.74-54.375c-0.149-1.914,0.049-3.838,0.583-5.679
									c3.171-10.938,9.736-20.796,18.486-27.769c16.162-12.886,34.185-12.354,41.204-11.519l53.032,4.609
									c23.603,1.45,44.883,16.006,55.134,37.949c42.744,91.499,60.149,187.769,51.726,286.138
									c-0.625,7.314-6.16,13.252-13.406,14.39l-100.354,15.771C1038.705,2626.948,1032.652,2627.416,1026.668,2627.416z
									 M970.477,2312.714c1.025,7.393,4.351,20.4,15.105,30.21c4.504,4.106,9.819,7.256,15.801,9.36
									c5.342,1.88,9.285,6.455,10.361,12.012c1.074,5.562-0.881,11.274-5.137,15.01c-38.498,33.784-61.65,79.897-61.931,123.35
									c-0.195,30.01,10.278,55.4,30.293,73.433c17.185,15.479,40.825,22.188,64.841,18.413l87.866-13.809
									c5.505-88.423-11.218-174.985-49.768-257.5c-5.305-11.362-16.27-18.892-28.613-19.658l-53.921-4.688
									c-2.854-0.327-11.113-0.811-18.079,4.741C973.688,2306.459,971.627,2309.98,970.477,2312.714z M1142.64,2594.477h0.049
									H1142.64z"/>
							</g>
							<g>
								<path style="fill:#390176;" d="M987.522,2353.882l34.923-12.629c7.883-3,14.384,7.413,8.4,13.174
									c0,0-25.97,26.67-25.97,26.67C984.457,2399.18,962.53,2364.74,987.522,2353.882L987.522,2353.882z"/>
							</g>
						</g>
						<g>
							<g>
								<g>
									<path style="fill:#FFFFFF;" d="M2382.05,2253.984c113.072,142.137,285.762,254.466,511.003,340.492
										c-3.453-47.822-1.594-94.688,6.27-140.543c9.565-56.484,28.321-111.425,57.492-164.561
										c-117.004-38.523-222.796-103.189-321.522-184.326c-20.669-16.95-40.967-34.644-61.052-52.977L2382.05,2253.984z"/>
								</g>
								<g>
									<path style="fill:#390176;" d="M2893.033,2610.419c-1.917,0-3.843-0.347-5.686-1.05
										c-231.56-88.457-405.764-204.692-517.771-345.479c-4.954-6.23-4.558-15.156,0.928-20.918l192.173-201.895
										c5.974-6.284,15.886-6.631,22.292-0.781c126.702,115.64,249.961,192.168,376.816,233.95
										c4.502,1.484,8.108,4.893,9.846,9.302c1.736,4.409,1.418,9.365-0.864,13.521c-49.443,89.951-69.67,186.86-61.831,296.27
										c0.388,5.435-2.024,10.688-6.399,13.936C2899.75,2609.345,2896.407,2610.419,2893.033,2610.419z M2403.255,2254.804
										c104.888,126.86,263.716,233.008,472.571,315.869c-3.25-97.959,16.277-189.336,58.181-272.236
										c-121.045-42.964-238.77-116.479-358.95-224.121L2403.255,2254.804z"/>
								</g>
								<g>
									<path style="fill:#FAC611;" d="M2873.009,2256.58c-80.072,55.836-112.915,177.839-80.072,296.345l100.098,41.552
										c-10.877-103.993,13.246-205.483,63.762-305.086L2873.009,2256.58z"/>
								</g>
								<g>
									<path style="fill:#390176;" d="M2893.033,2610.419c-2.065,0-4.141-0.4-6.108-1.221l-100.098-41.553
										c-4.529-1.88-7.942-5.737-9.25-10.464c-34.666-125.078,0.828-254.067,86.313-313.677c4.365-3.042,9.963-3.721,14.932-1.768
										l83.789,32.808c4.185,1.641,7.483,4.966,9.082,9.165c1.602,4.199,1.355,8.882-0.679,12.891
										c-51.941,102.417-72.263,199.307-62.124,296.216c0.583,5.591-1.819,11.079-6.326,14.438
										C2899.767,2609.34,2896.415,2610.419,2893.033,2610.419z M2806.327,2541.225l68.833,28.569
										c-4.355-88.555,15.671-179.824,59.673-271.885l-59.456-23.281C2807.318,2327.48,2779.42,2434.809,2806.327,2541.225z"/>
								</g>
								<g style="opacity:0.3;">
									<g>
										<path style="fill:#390176;" d="M2382.05,2253.984c113.072,142.137,285.762,254.466,511.003,340.492
											c-3.453-47.822-1.594-94.688,6.27-140.543c-12.54-3.295-25.08-6.535-37.407-10.415
											c-63.497-20.085-120.511-56.696-173.859-96.6c-30.288-22.583-60.203-46.918-81.085-78.48
											c-20.883-31.51-31.828-71.521-21.042-107.759c7.333-24.495,26.249-45.803,49.362-55.633
											c-20.669-16.95-40.967-34.644-61.052-52.977L2382.05,2253.984z"/>
									</g>
								</g>
							</g>
							<g>
								<path style="fill:#390176;" d="M2928.065,2608.056c-0.374,0-0.75-0.01-1.123-0.02c-15.518-0.449-29.607-3.877-41.873-10.186
									c-5.1-2.622-8.398-7.788-8.635-13.521c-4.67-113.33,16.716-213.247,63.567-296.963c2.82-5.039,8.14-8.159,13.911-8.159
									h40.417c21.462,0,41.609,9.214,55.276,25.269c24.26,28.511,36.064,66.216,31.572,100.864
									c-3.44,26.553-16.516,48.96-36.819,63.086c-18.279,12.71-42.869,10.669-58.479-4.858c-2.336-2.324-4.407-4.756-6.208-7.271
									c-7.9,13.506-12.012,28.926-11.731,44.517c0.547,30.503-0.454,55.068-3.064,75.107
									C2962.464,2594.423,2946.742,2608.056,2928.065,2608.056z M2907.94,2572.944c6.001,1.953,12.59,3.013,19.927,3.228
									c2.791,0.093,5.054-1.753,5.396-4.37c2.405-18.462,3.32-41.499,2.803-70.41c-0.498-27.476,8.877-54.497,26.396-76.084
									l13.169-16.221c4.727-5.825,12.881-7.568,19.563-4.185c6.694,3.384,10.125,10.972,8.242,18.232
									c-1.892,7.3-0.466,12.466,4.927,17.832c4.756,4.731,12.078,5.259,17.791,1.289c16.436-11.436,21.802-28.613,23.408-41.011
									c3.306-25.493-5.981-54.653-24.236-76.104c-7.598-8.931-18.896-14.048-30.996-14.048h-30.962
									C2923.312,2386.288,2905.135,2472.148,2907.94,2572.944z"/>
							</g>
							<g>
								<path style="fill:#FFD0B6;" d="M3066.143,2388.576c0.531,23.698-7.121,46.068-24.124,61.372
									c-2.073,1.912-4.357,3.719-6.748,5.367c-11.956,8.342-27.843,7.226-38.151-3.029c-7.599-7.545-10.999-16.153-10.309-25.824
									c0.106-2.391,0.531-4.835,1.169-7.333l-4.092,5.048l-9.032,11.159c-3.614,4.463-6.855,9.192-9.67,14.134
									c-1.223,2.179-2.338,4.411-3.402,6.642c-2.55,5.367-4.622,10.946-6.163,16.685c-0.426,1.435-0.797,2.922-1.116,4.463
									c-0.372,1.488-0.691,3.029-0.957,4.57c-1.116,6.323-1.647,12.805-1.541,19.287c0.053,3.454,0.106,6.908,0.106,10.309
									c0.159,22.636-0.638,43.837-3.029,62.434c-1.435,10.786-10.787,18.544-21.679,18.226
									c-12.805-0.372-24.549-3.029-35.069-8.396c-3.985-97.981,11.211-187.833,50.585-267.59
									c3.454-7.067,7.12-14.028,10.999-20.936h40.437c16.524,0,32.412,7.068,43.092,19.661
									C3055.569,2336.078,3065.611,2363.071,3066.143,2388.576z"/>
							</g>
							<g>
								<path style="fill:#390176;" d="M2928.065,2608.056c-0.374,0-0.75-0.01-1.123-0.02c-15.518-0.449-29.607-3.877-41.873-10.186
									c-5.1-2.622-8.398-7.788-8.635-13.521c-4.67-113.33,16.716-213.247,63.567-296.963c2.82-5.039,8.14-8.159,13.911-8.159
									h40.417c21.462,0,41.609,9.214,55.276,25.269c24.26,28.511,36.064,66.216,31.572,100.864
									c-3.44,26.553-16.516,48.96-36.819,63.086c-18.279,12.71-42.869,10.669-58.479-4.858c-2.336-2.324-4.407-4.756-6.208-7.271
									c-7.9,13.506-12.012,28.926-11.731,44.517c0.547,30.503-0.454,55.068-3.064,75.107
									C2962.464,2594.423,2946.742,2608.056,2928.065,2608.056z M2907.94,2572.944c6.001,1.953,12.59,3.013,19.927,3.228
									c2.791,0.093,5.054-1.753,5.396-4.37c2.405-18.462,3.32-41.499,2.803-70.41c-0.498-27.476,8.877-54.497,26.396-76.084
									l13.169-16.221c4.727-5.825,12.881-7.568,19.563-4.185c6.694,3.384,10.125,10.972,8.242,18.232
									c-1.892,7.3-0.466,12.466,4.927,17.832c4.756,4.731,12.078,5.259,17.791,1.289c16.436-11.436,21.802-28.613,23.408-41.011
									c3.306-25.493-5.981-54.653-24.236-76.104c-7.598-8.931-18.896-14.048-30.996-14.048h-30.962
									C2923.312,2386.288,2905.135,2472.148,2907.94,2572.944z"/>
							</g>
							<g>
								<path style="fill:#FFD0B6;" d="M3065.398,2603.455c-1.647,1.169-3.347,2.338-5.048,3.507
									c-26.089,17.641-60.787,17.11-85.176-2.763c-9.67-7.917-18.385-17.96-26.089-30.34l3.029-62.434l1.435-29.596
									c0.265-1.541,0.584-3.029,0.957-4.57c0.319-1.488,0.69-2.975,1.116-4.463c1.594-5.792,3.666-11.318,6.163-16.685
									c1.063-2.231,2.179-4.463,3.402-6.642c4.994-9.139,11.264-17.588,18.438-25.558c1.382-1.647,2.87-3.187,4.357-4.782
									c-0.265,2.923-0.265,5.633,0,8.183c2.338,27.843,30.021,36.398,51.807,21.891c14.506-9.617,26.356-29.437,26.356-60.627
									C3148.396,2459.512,3144.623,2546.601,3065.398,2603.455z"/>
							</g>
							<g>
								<path style="fill:#390176;" d="M3019.21,2635.492c-19.456,0-38.687-6.367-54.111-18.97
									c-11.047-9.023-20.986-20.532-29.543-34.204c-1.726-2.759-2.566-5.981-2.41-9.233l4.482-92.036
									c0.037-0.708,0.117-1.411,0.247-2.109c4.685-25.464,17.322-48.638,38.63-70.845c4.668-4.868,11.904-6.265,18.059-3.496
									c6.152,2.778,9.888,9.131,9.329,15.854c-0.403,4.834-0.151,13.555,6.06,17.617c4.868,3.174,12.065,2.891,18.787-0.757
									c13.438-7.275,21.45-25.498,21.438-48.74c-0.005-6.235,3.63-11.904,9.299-14.502c5.671-2.598,12.332-1.646,17.056,2.422
									c44.929,38.774,68.196,85.088,65.515,130.42c-2.549,43.086-28.391,83.311-72.769,113.271
									C3054.117,2630.419,3036.573,2635.492,3019.21,2635.492z M2965.24,2569.487c6.042,8.911,12.766,16.411,20.029,22.349
									c18.386,15.02,45.598,15.82,66.172,1.924c36.477-24.624,56.804-55.308,58.779-88.73c1.66-28.042-9.619-56.333-32.847-82.983
									c-5.967,19.521-17.461,34.644-33.455,43.306c-17.034,9.229-36.733,9.004-51.406-0.596
									c-4.536-2.964-8.379-6.65-11.472-10.928c-5.786,9.639-9.585,19.463-11.624,29.878L2965.24,2569.487z"/>
							</g>
							<g>
								<path style="fill:#390176;" d="M2972.07,2418.774c4.075-8.06,1.824-17.428-2.949-25.649
									c-3.587-6.11,3.807-13.149,9.704-9.424c13.916,7.678,24.392,23.053,25.75,39.797c1.478,9.38-4.93,18.181-14.311,19.658
									C2976.975,2445.669,2965.966,2430.651,2972.07,2418.774L2972.07,2418.774z"/>
							</g>
							<g style="opacity:0.3;">
								<g>
									<path style="fill:#390176;" d="M3065.398,2603.455c-1.647,1.169-3.347,2.338-5.048,3.507
										c-26.089,17.641-60.787,17.11-85.176-2.763c-9.67-7.917-18.385-17.96-26.089-30.34
										c-1.435,10.786-10.787,18.544-21.679,18.226c-12.805-0.372-24.549-3.029-35.069-8.396
										c-3.985-97.981,11.211-187.833,50.585-267.59c-4.304,26.515,0.797,54.517,14.506,77.578
										c6.854,11.584,15.782,21.839,26.196,30.234c0.106,0.16,0.16,0.213,0.265,0.266c0.957,0.797,1.913,1.541,2.923,2.285
										c0.372,0.319,0.797,0.638,1.169,0.85c13.921,10.361,30.128,17.641,47.131,20.882c1.541,0.266,3.135,0.532,4.676,1.009
										c0.797,0.16,1.541,0.426,2.232,0.745c0.69,0.265,1.328,0.637,1.913,1.009c5.048,3.401,6.164,10.627,4.516,16.472
										c-1.647,5.898-5.473,10.84-8.661,16.047c-13.177,21.254-16.791,48.194-9.564,72.158
										C3036.014,2574.975,3048.767,2592.085,3065.398,2603.455z"/>
								</g>
							</g>
						</g>
					</g>
					<g>
						<g>
							<g>
								<g>
									<path style="fill:#FFFFFF;" d="M2516.775,3294.109c-52.338,54.092-164.72,84.751-323.754,97.344
										c-17.801,1.435-36.239,2.604-55.208,3.56c-33.794,1.701-69.288,2.71-106.589,3.135h-4.57c-2.231,0-4.41-0.053-6.589-0.053
										h-1.435c-1.169,0-2.338-0.053-3.506-0.053c-26.834-0.319-52.711-1.009-77.737-2.019c-4.676-0.212-9.299-0.372-13.868-0.637
										c-18.81-0.85-37.035-1.966-54.73-3.294c-163.498-12.115-278.961-42.933-332.256-97.982
										c-10.468-10.839-15.143-26.036-13.284-41.021l63.019-517.485v-0.053l4.835-39.427l21.733-178.375l4.41-36.345l0.212-1.753
										l0.16-1.17l19.395-159.353l31.137-255.687l17.375-142.456c5.739,1.701,11.53,3.294,17.322,4.888
										c5.101,1.488,10.202,2.87,15.303,4.145c0.638,0.213,1.328,0.372,1.966,0.532c200.373,52.71,404.52,55.154,613.076,0.053
										c11.531-3.082,23.061-6.217,34.591-9.618l15.993,131.085l31.457,258.451l45.483,373.754l0.691,5.473l0.743,5.686
										l67.907,557.656C2531.919,3268.073,2527.242,3283.27,2516.775,3294.109z"/>
								</g>
								<g style="opacity:0.3;">
									<path style="fill:#390176;" d="M1610.518,2516.605c272.59,139.751,544.962,139.978,817.113,0l27.418,216.921
										c-258.539,164.281-603.919,164.281-872.161,0L1610.518,2516.605z"/>
								</g>
								<g>
									<path style="fill:#390176;" d="M2026.654,3414.091l-11.531-0.107c-26.431-0.313-52.737-0.996-78.381-2.031l-4.634-0.2
										c-3.201-0.137-6.375-0.269-9.524-0.454c-17.966-0.811-36.541-1.929-54.99-3.315
										c-176.145-13.052-288.188-46.67-342.515-102.783c-13.721-14.214-20.149-33.916-17.651-54.072l62.971-517.075
										c0.015-0.151,0.029-0.298,0.046-0.439l99.258-814.558c0.566-4.653,3.157-8.823,7.078-11.396
										c3.921-2.578,8.779-3.296,13.271-1.956c5.64,1.67,11.331,3.235,17.024,4.802c5.134,1.494,10.034,2.822,14.937,4.045
										c0.415,0.105,0.825,0.225,1.23,0.361l0.366,0.081c0.086,0.022,0.479,0.12,0.562,0.142
										c201.211,52.922,404.744,52.949,604.949,0.056c10.774-2.878,22.402-6.03,34.158-9.495c4.5-1.318,9.341-0.605,13.262,1.968
										c3.916,2.576,6.501,6.741,7.068,11.392l162.275,1332.107c2.498,20.122-3.928,39.824-17.639,54.023
										c-0.005,0-0.007,0.005-0.012,0.01c-53.381,55.171-162.617,88.584-333.953,102.148c-17.148,1.387-35.884,2.593-55.662,3.589
										c-33.445,1.685-68.513,2.715-107.212,3.154L2026.654,3414.091z M1602.137,2737.109c-0.015,0.146-0.029,0.283-0.046,0.425
										l-63.02,517.485c-1.311,10.586,1.943,20.786,8.928,28.018c47.954,49.531,156.284,80.879,321.965,93.154
										c18.149,1.362,36.406,2.461,54.275,3.271c3.189,0.186,6.184,0.308,9.207,0.435l4.673,0.205
										c25.252,1.021,51.253,1.694,77.193,2.002l15.913,0.103c38.1-0.435,72.764-1.45,105.788-3.115
										c19.456-0.981,37.871-2.168,54.727-3.525c160.996-12.749,266.484-43.877,313.569-92.529l0,0
										c6.985-7.231,10.242-17.432,8.931-27.983l-67.91-557.69l-1.428-11.094l-90.681-744.849
										c-5.796,1.602-11.458,3.125-16.912,4.583c-205.635,54.326-414.636,54.312-621.248-0.039
										c-0.759-0.183-1.509-0.379-2.234-0.596c-4.91-1.233-9.819-2.564-14.729-3.984L1602.137,2737.109z M2516.776,3294.111h0.049
										H2516.776z"/>
								</g>
								<g>
									<path style="fill:#FAC611;" d="M1617.603,2478.507c272.59,139.751,544.962,139.978,817.113,0l27.418,216.921
										c-258.539,164.281-603.919,164.281-872.161,0L1617.603,2478.507z"/>
								</g>
								<g>
									<path style="fill:#390176;" d="M2029.691,2831.923c-158.501,0-312.954-43.281-446.658-125.166
										c-4.458-2.729-6.899-7.822-6.238-13.008l27.632-216.924c0.547-4.292,3.152-8.052,6.98-10.073
										c3.831-2.017,8.406-2.046,12.256-0.068c267.512,137.148,538.342,137.148,804.975,0.01c3.85-1.987,8.43-1.963,12.271,0.059
										c3.833,2.021,6.44,5.786,6.985,10.088l27.419,216.924c0.645,5.103-1.714,10.117-6.055,12.876
										C2340.272,2788.603,2188.272,2831.923,2029.691,2831.923z M1604.242,2688.539c261.868,156.675,591.12,156.724,843.65,0.146
										l-23.997-189.858c-263.616,129.946-531.055,129.941-795.486-0.034L1604.242,2688.539z"/>
								</g>
								<g>
									<path style="fill:#FFFFFF;" d="M1617.603,2543.708c67.91,36.718,216.336,105.18,415.959,103.46
										c191.243-1.648,333.512-66.882,401.154-103.46c3.844,34.487,7.687,68.973,11.531,103.46
										c-58.395,37.271-207.879,121.719-416.555,122.211c-212.786,0.502-364.925-86.58-422.985-123.981
										C1610.339,2611.501,1613.971,2577.604,1617.603,2543.708z"/>
								</g>
								<g>
									<polygon style="fill:#FF1B40;" points="1621.09,2558.108 1648.26,2670.318 1717.942,2595.728 									"/>
								</g>
								<g>
									<path style="fill:#FF1B40;" d="M1721.383,2600.438l27.17,112.211c24.82-27.436,49.64-54.871,74.46-82.307
										C1789.136,2620.374,1755.259,2610.406,1721.383,2600.438z"/>
								</g>
								<g>
									<path style="fill:#FF1B40;" d="M1838.375,2636.094c14.141,37.27,28.281,74.541,42.422,111.811
										c25.239-31.66,50.479-63.32,75.718-94.979C1917.135,2647.314,1877.755,2641.704,1838.375,2636.094z"/>
								</g>
								<g>
									<path style="fill:#FF1B40;" d="M1971.126,2652.921c20.43,36.869,40.86,73.739,61.29,110.608
										c17.723-36.664,35.445-73.328,53.168-109.993C2047.431,2653.332,2009.278,2653.126,1971.126,2652.921z"/>
								</g>
								<g>
									<path style="fill:#FF1B40;" d="M2093.183,2654.439c25.514,33.552,51.028,67.105,76.542,100.657
										c12.273-38.83,24.545-77.659,36.818-116.489C2168.756,2643.885,2130.969,2649.162,2093.183,2654.439z"/>
								</g>
								<g>
									<path style="fill:#FF1B40;" d="M2216.298,2628.823c30.348,29.253,60.697,58.506,91.044,87.759
										c8.812-40.038,17.624-80.075,26.436-120.113C2294.617,2607.253,2255.457,2618.038,2216.298,2628.823z"/>
								</g>
								<g>
									<path style="fill:#FF1B40;" d="M2341.069,2591.327c20.594,25.182,41.19,50.364,61.784,75.546
										c10.621-38.966,21.242-77.932,31.863-116.898C2403.5,2563.759,2372.284,2577.543,2341.069,2591.327z"/>
								</g>
								<g>
									<polygon style="fill:#45C4EF;" points="2402.853,2666.873 2428.092,2575.214 2446.247,2647.168 									"/>
								</g>
								<g>
									<polygon style="fill:#45C4EF;" points="2311.194,2708.226 2341.069,2591.327 2398.319,2666.873 									"/>
								</g>
								<g>
									<path style="fill:#45C4EF;" d="M2170.915,2750.739c15.128-40.638,30.255-81.277,45.383-121.916
										c28.271,28.227,56.542,56.453,84.813,84.68C2257.712,2725.915,2214.313,2738.327,2170.915,2750.739z"/>
								</g>
								<g>
									<path style="fill:#45C4EF;" d="M2028.085,2769.183c19.431-40.514,38.864-81.029,58.295-121.543
										c23.721,34.971,47.442,69.942,71.164,104.914C2114.392,2758.097,2071.238,2763.64,2028.085,2769.183z"/>
								</g>
								<g>
									<path style="fill:#45C4EF;" d="M1884.118,2753.882c27.701-36.242,55.401-72.484,83.102-108.726
										c20.075,39.919,40.151,79.837,60.225,119.756C1979.67,2761.236,1931.894,2757.559,1884.118,2753.882z"/>
								</g>
								<g>
									<path style="fill:#45C4EF;" d="M1747.295,2714.695c29.108-29.752,58.215-59.505,87.323-89.257
										c15.393,40.823,30.787,81.645,46.18,122.467C1836.297,2736.834,1791.796,2725.765,1747.295,2714.695z"/>
								</g>
								<g>
									<path style="fill:#45C4EF;" d="M1653.644,2666.208c22.804-23.911,45.608-47.822,68.412-71.733
										c8.832,39.391,17.665,78.782,26.498,118.173C1716.916,2697.169,1685.28,2681.689,1653.644,2666.208z"/>
								</g>
								<g>
									<path style="fill:#45C4EF;" d="M1607.15,2640.969c5.203-25.32,10.407-50.64,15.61-75.96
										c8.003,33.052,16.007,66.105,24.01,99.158C1633.564,2656.435,1620.357,2648.702,1607.15,2640.969z"/>
								</g>
								<g>
									<path style="fill:#390176;" d="M2027.884,2782.665c-202.339,0-355.159-78.94-428.369-126.099
										c-4.224-2.72-6.55-7.588-6.016-12.583l10.896-101.689c0.471-4.404,3.105-8.281,7.024-10.342
										c3.916-2.051,8.606-2.031,12.502,0.073c87.532,47.319,229.868,103.462,409.524,101.86
										c173.506-1.494,310.542-56.216,394.951-101.86c3.884-2.095,8.562-2.129,12.476-0.088c3.916,2.051,6.555,5.908,7.046,10.298
										l11.531,103.462c0.559,5.029-1.79,9.941-6.057,12.666c-88.457,56.46-233.765,123.853-423.669,124.302
										C2029.115,2782.665,2028.49,2782.665,2027.884,2782.665z M1620.795,2638.613
										c73.181,45.908,217.707,117.485,407.087,117.485c0.598,0,1.179,0,1.777-0.005c178.618-0.42,316.411-62.124,402.463-115.723
										l-8.455-75.845c-87.922,44.941-222.478,94.482-389.993,95.923c-2.503,0.024-5.029,0.034-7.517,0.034
										c-170.562,0.005-307.573-50.005-397.429-95.918L1620.795,2638.613z"/>
								</g>
								<g>
									<path style="fill:#390176;" d="M2029.691,2777.348c-3.01,0-5.767-1.694-7.122-4.39l-56.848-113.042l-79.102,100.181
										c-1.797,2.275-4.685,3.413-7.561,2.92c-2.866-0.474-5.244-2.471-6.211-5.21l-41.484-117.637l-79.756,81.606
										c-2.075,2.119-5.156,2.92-7.998,2.061c-2.842-0.854-4.973-3.218-5.53-6.133l-20.952-109.429l-63.042,67.48
										c-2.002,2.144-5.007,3.013-7.851,2.271c-2.832-0.747-5.029-2.988-5.72-5.835l-30.657-126.606
										c-1.035-4.277,1.592-8.584,5.872-9.619c4.258-1.06,8.586,1.592,9.622,5.869l27.178,112.236l63.655-68.135
										c2.053-2.192,5.156-3.042,8.037-2.217c2.881,0.83,5.051,3.213,5.615,6.157l21.033,109.849l78.049-79.858
										c1.924-1.973,4.729-2.813,7.419-2.212c2.69,0.596,4.883,2.534,5.798,5.132l40.938,116.079l77.893-98.652
										c1.687-2.134,4.321-3.281,7.06-2.988c2.71,0.273,5.09,1.914,6.316,4.351l55.073,109.512l50.977-109.468
										c1.206-2.593,3.708-4.341,6.56-4.58c2.813-0.181,5.608,1.069,7.229,3.423l68.672,99.766l45.701-117.271
										c0.986-2.524,3.188-4.38,5.847-4.917c2.668-0.537,5.408,0.317,7.297,2.261l79.517,81.87l29.746-115.977
										c0.759-2.959,3.147-5.229,6.147-5.83c2.986-0.625,6.074,0.562,7.925,2.998l54.092,71.372l27.852-112.935
										c1.055-4.272,5.374-6.865,9.648-5.83c4.272,1.055,6.882,5.376,5.83,9.648l-31.853,129.155
										c-0.737,2.983-3.12,5.278-6.13,5.898c-2.998,0.605-6.106-0.547-7.961-2.993l-54.211-71.533l-29.177,113.76
										c-0.715,2.793-2.886,4.98-5.671,5.723c-2.791,0.718-5.757-0.083-7.766-2.153l-80.781-83.174l-46.66,119.731
										c-1.072,2.749-3.577,4.683-6.506,5.02c-2.952,0.376-5.813-0.967-7.485-3.394l-69.294-100.669l-52.041,111.753
										c-1.289,2.769-4.048,4.561-7.104,4.604C2029.772,2777.348,2029.73,2777.348,2029.691,2777.348z"/>
								</g>
								<g>
									<path style="fill:#FAC611;" d="M1868.802,2803.235v589.732c117.942,7.172,226.717,7.22,324.197-1.508v-588.224
										C2083.008,2823.4,1974.871,2824.148,1868.802,2803.235z"/>
								</g>
								<g>
									<path style="fill:#390176;" d="M2030.87,3411.435c-51.384,0-105.776-1.733-162.874-5.205
										c-7.012-0.43-12.478-6.24-12.478-13.262v-589.731c0-3.975,1.777-7.739,4.849-10.264c3.069-2.52,7.1-3.555,11.006-2.769
										c101.997,20.112,209.402,20.103,319.231-0.034c3.884-0.708,7.876,0.337,10.898,2.861c3.03,2.524,4.78,6.265,4.78,10.205
										v588.223c0,6.88-5.249,12.617-12.1,13.232C2143.956,3409.184,2089.364,3411.435,2030.87,3411.435z M1882.086,3380.444
										c110.615,6.27,210.603,5.869,297.629-1.182v-560.215c-102.031,17.002-201.999,17.061-297.629,0.186V3380.444z"/>
								</g>
								<g>
									<path style="fill:#45C4EF;" d="M1923.508,2812.071v583.338c69.615,3.744,141.133,3.562,214.29,0v-583.338
										C2064.388,2820.578,1992.841,2821.08,1923.508,2812.071z"/>
								</g>
								<g>
									<path style="fill:#390176;" d="M2027.977,3411.42c-36.04,0-71.182-0.918-105.183-2.744
										c-7.051-0.381-12.571-6.206-12.571-13.267v-583.34c0-3.823,1.646-7.456,4.517-9.98s6.69-3.691,10.479-3.193
										c65.977,8.574,136.985,8.564,211.05-0.02c3.794-0.474,7.537,0.752,10.366,3.276c2.83,2.52,4.448,6.128,4.448,9.917v583.34
										c0,7.085-5.562,12.925-12.639,13.267C2100.899,3410.502,2063.99,3411.42,2027.977,3411.42z M1936.791,3382.778
										c59.582,2.778,122.612,2.754,187.724-0.054v-555.85c-65.364,6.621-128.372,6.68-187.724,0.166V3382.778z"/>
								</g>
								<g>
									<path style="fill:#FF1B40;" d="M2031.678,2851.148c-17.734,21.568-35.467,43.135-53.2,64.702
										c16.729,22.945,33.459,45.89,50.188,68.834c16.602-20.799,33.205-41.599,49.807-62.398
										C2062.874,2898.574,2047.276,2874.861,2031.678,2851.148z"/>
								</g>
								<g>
									<path style="fill:#390176;" d="M2028.666,2995.312c-0.078,0-0.154,0-0.232,0c-3.313-0.073-6.404-1.685-8.357-4.365
										l-50.185-68.838c-2.857-3.916-2.7-9.268,0.378-13.008l53.201-64.702c2.143-2.612,5.4-4.048,8.772-3.862
										c3.374,0.176,6.46,1.948,8.315,4.771l46.794,71.138c2.527,3.843,2.295,8.872-0.574,12.471l-49.807,62.402
										C2034.952,2993.847,2031.893,2995.312,2028.666,2995.312z M1991.915,2916.24l37.134,50.933l36.308-45.488l-34.631-52.646
										L1991.915,2916.24z"/>
								</g>
								<g>
									<path style="fill:#FF1B40;" d="M2031.605,3064.52c-16.872,20.52-33.743,41.039-50.615,61.558
										c15.917,21.83,31.833,43.66,47.75,65.49c15.795-19.789,31.591-39.578,47.386-59.366
										C2061.285,3109.641,2046.445,3087.08,2031.605,3064.52z"/>
								</g>
								<g>
									<path style="fill:#390176;" d="M2028.739,3202.192c-0.078,0-0.154,0-0.232,0c-3.313-0.073-6.404-1.685-8.355-4.365
										l-47.749-65.488c-2.857-3.916-2.7-9.268,0.378-13.008l50.615-61.558c2.141-2.612,5.43-4.058,8.772-3.862
										c3.372,0.176,6.458,1.948,8.313,4.771l44.521,67.681c2.529,3.843,2.297,8.872-0.571,12.471l-47.388,59.365
										C2035.026,3200.727,2031.966,3202.192,2028.739,3202.192z M1994.427,3126.469l34.695,47.583l33.887-42.451l-32.356-49.189
										L1994.427,3126.469z"/>
								</g>
								<g>
									<path style="fill:#FF1B40;" d="M2031.649,3254.747c-17.389,21.148-34.777,42.296-52.166,63.444
										c16.404,22.499,32.809,44.998,49.213,67.496c16.279-20.395,32.559-40.791,48.838-61.185
										C2062.239,3301.25,2046.944,3277.998,2031.649,3254.747z"/>
								</g>
								<g>
									<path style="fill:#390176;" d="M2028.695,3396.313c-0.078,0-0.154,0-0.232,0c-3.313-0.073-6.404-1.685-8.354-4.365
										l-49.212-67.495c-2.856-3.916-2.7-9.263,0.376-13.008l52.168-63.447c2.143-2.612,5.43-4.028,8.772-3.862
										c3.371,0.176,6.458,1.948,8.315,4.771l45.886,69.756c2.527,3.843,2.295,8.877-0.574,12.471l-48.84,61.187
										C2034.981,3394.848,2031.922,3396.313,2028.695,3396.313z M1992.921,3318.583l36.157,49.59l35.339-44.272l-33.721-51.265
										L1992.921,3318.583z"/>
								</g>
								<g style="opacity:0.2;">
									<path style="fill:#390176;" d="M2516.775,3294.109c-52.338,54.092-164.72,84.751-323.754,97.344
										c-17.801,1.435-36.239,2.604-55.208,3.56c-33.794,1.701-69.288,2.71-106.589,3.135h-4.57c-2.231,0-4.41-0.053-6.589-0.053
										h-1.435c-1.169,0-2.338-0.053-3.506-0.053c-26.834-0.319-52.711-1.009-77.737-2.019c-4.676-0.212-9.299-0.372-13.868-0.637
										c-18.81-0.85-37.035-1.966-54.73-3.294c-163.498-12.115-278.961-42.933-332.256-97.982
										c-10.468-10.839-15.143-26.036-13.284-41.021l63.019-517.485v-0.053l4.835-39.427l21.733-178.375l4.41-36.345l0.212-1.753
										l0.16-1.17l19.395-159.353l31.137-255.687l17.375-142.456c5.739,1.701,11.53,3.294,17.322,4.888
										c5.101,1.435,10.202,2.816,15.303,4.145c0.638,0.213,1.328,0.372,1.966,0.532l-15.941,151.223l-27.1,257.281
										l-16.844,160.151l-4.145,39.426l-2.497,23.486l-0.85,8.289l-8.662,82.466h-0.053l-0.956,9.139l-0.532,5.048l-5.791,54.942
										l-4.145,39.692l-41.074,389.961c-1.594,14.931,2.444,30.181,11.477,41.021c43.677,52.179,135.761,82.626,265.783,95.963
										c17.535,1.807,35.813,3.348,54.73,4.517c23.645,1.488,48.353,2.497,74.017,3.082c9.565,0.212,19.288,0.372,29.118,0.477
										c10.946-0.106,21.68-0.265,32.254-0.531c27.47-0.691,53.773-1.86,78.906-3.56c19.128-1.276,37.513-2.923,55.208-4.835
										c125.559-13.868,214.561-44.103,257.281-95.113c9.033-10.839,13.072-26.09,11.478-41.021l-41.818-397.134l-3.4-32.306
										l-5.686-53.773l-0.532-4.941l-1.541-14.772l-0.265-2.497v-0.159l-8.502-80.766l-0.372-3.666l-3.135-29.703l-3.507-33.103
										l-17.588-166.898l-27.206-258.504l-15.037-142.827c11.531-3.082,23.061-6.217,34.591-9.618l15.993,131.085l31.457,258.451
										l45.483,373.754l0.691,5.473l0.743,5.686l67.907,557.656C2531.919,3268.073,2527.242,3283.27,2516.775,3294.109z"/>
								</g>
							</g>
							<g style="opacity:0.3;">
								<g>
									<path style="fill:#390176;" d="M1685.436,1933.158c-2.853,35.741-5.706,71.482-8.558,107.223
										c-0.9,11.273-1.501,23.658,5.242,32.736c8.042,10.827,23.219,12.741,36.673,13.684
										c203.076,14.231,406.88,13.088,610.451,11.938c24.585-0.139,55.01-4.141,63.417-27.244
										c3.691-10.142,1.75-21.36-0.234-31.97c-4.897-26.19-9.794-52.38-14.691-78.57c-2.093-11.195-4.819-23.45-13.923-30.293
										c-7.55-5.674-17.662-6.178-27.103-6.445c-216.182-6.113-432.556-5.455-648.697,1.973"/>
								</g>
							</g>
							<g style="opacity:0.3;">
								<path style="fill:#390176;" d="M2011.617,2404.517c2.338,0,4.676,0,7.014-0.053c2.338,0.053,4.623,0.053,6.961,0.053
									H2011.617z"/>
							</g>
							<g style="opacity:0.3;">
								<path style="fill:#390176;" d="M2415.234,2310.521c-12.647,7.598-25.931,14.718-39.799,21.413
									c-93.731,45.484-213.976,71.733-356.805,72.53c-135.176-0.744-250.161-24.283-341.555-65.41
									c-13.921-6.216-27.258-12.858-40.064-19.926l31.137-255.687c10.468,6.642,22.583,12.752,36.026,18.331
									c157.44,65.675,499.792,60.468,644.054-8.343c13.762-6.536,25.718-13.709,35.547-21.361L2415.234,2310.521z"/>
							</g>
							<g>
								<g>
									<path style="fill:#FAC611;" d="M2025.591,2347.839c-335.639,0-548.307-139.313-587.465-340.067l187.999-46.825
										c56.742,151.324,731.562,143.354,784.96,0l187.999,46.825c-39.158,200.754-251.826,340.067-587.465,340.067"/>
								</g>
								<g>
									<path style="fill:#390176;" d="M2025.592,2363.783c-2.334,0-4.663-0.01-6.985-0.024c-2.942,0.02-5.955,0.239-8.823-0.083
										c-321.123-4.258-545.52-138.633-587.305-352.852c-1.624-8.328,3.562-16.47,11.794-18.521l188-46.826
										c7.871-1.948,15.935,2.29,18.779,9.873c22.197,59.199,175.471,100.288,372.859,100.181
										c199.949-0.22,360.701-42.339,382.234-100.149c2.83-7.605,10.916-11.863,18.792-9.905l187.998,46.826
										c8.232,2.051,13.418,10.193,11.794,18.521c-41.785,214.219-266.179,348.594-587.302,352.852
										C2026.825,2363.744,2026.212,2363.783,2025.592,2363.783z M1457.008,2019.496
										c46.628,191.655,259.673,310.581,561.599,312.383c301.921-1.802,514.966-120.728,561.594-312.383l-160.576-39.995
										c-45.818,74.16-232.703,107.72-405.679,107.91c-0.462,0-0.925,0-1.389,0c-156.323,0-347.61-28.535-395.073-107.883
										L1457.008,2019.496z"/>
								</g>
								<g>
									<path style="fill:#390176;" d="M2016.359,2307.133c-33.196,0-66.338-1.709-98.989-5.103
										c-257.107-26.704-429.226-146.987-438.489-306.436c-0.339-5.859,4.136-10.884,9.995-11.226
										c5.828-0.32,10.884,4.136,11.225,9.995c10.481,180.415,232.512,267.109,419.465,286.528
										c269.961,28.022,575.032-60.591,635.74-284.253c1.538-5.667,7.39-8.992,13.04-7.473c5.664,1.538,9.011,7.376,7.473,13.04
										C2519.474,2209.794,2266.732,2307.133,2016.359,2307.133z"/>
								</g>
								<g>
									<polygon style="fill:#FF1B40;" points="1994.596,2173.378 2026.655,2125.556 2055.701,2173.378 2026.655,2230.055 
																			"/>
								</g>
								<g>
									<polygon style="fill:#FF1B40;" points="2120.453,2170.115 2145.975,2118.508 2181.033,2162.115 2159.657,2222.108 
																			"/>
								</g>
								<g>
									<polygon style="fill:#FF1B40;" points="2239.703,2150.08 2257.365,2095.282 2298.45,2133.265 2286.121,2195.748 									
										"/>
								</g>
								<g>
									<polygon style="fill:#FF1B40;" points="2360.656,2123.656 2364.027,2075.892 2404.757,2098.399 2407.22,2151.31 									
										"/>
								</g>
								<g>
									<polygon style="fill:#FF1B40;" points="2446.343,2049.345 2442.06,2003.131 2484.554,2018.256 2495.226,2068.476 									
										"/>
								</g>
								<g>
									<polygon style="fill:#FF1B40;" points="1931.419,2170.115 1905.897,2118.508 1870.839,2162.115 1892.215,2222.108 
																			"/>
								</g>
								<g>
									<polygon style="fill:#FF1B40;" points="1812.169,2150.08 1794.507,2095.282 1753.422,2133.265 1765.752,2195.748 									
										"/>
								</g>
								<g>
									<polygon style="fill:#FF1B40;" points="1691.216,2123.656 1687.845,2075.892 1647.116,2098.399 1644.652,2151.31 									
										"/>
								</g>
								<g>
									<polygon style="fill:#FF1B40;" points="1605.529,2049.345 1609.812,2003.131 1567.318,2018.256 1556.646,2068.476 
																			"/>
								</g>
								<g>
									<path style="fill:#390176;" d="M2026.654,2240.683c-3.826,0-7.361-2.056-9.25-5.396l-32.058-56.68
										c-1.978-3.496-1.814-7.808,0.422-11.147l32.058-47.822c2.021-3.008,5.459-4.683,9.065-4.707
										c3.628,0.083,6.963,2.007,8.845,5.107l29.048,47.822c1.917,3.154,2.058,7.08,0.376,10.366l-29.048,56.68
										c-1.782,3.477-5.332,5.693-9.238,5.776C2026.8,2240.683,2026.725,2240.683,2026.654,2240.683z M2007.071,2173.852
										l19.121,33.804l17.341-33.838l-17.322-28.521L2007.071,2173.852z"/>
								</g>
								<g>
									<path style="fill:#390176;" d="M2159.654,2232.734c-3.303,0-6.458-1.538-8.484-4.229l-39.204-51.992
										c-2.417-3.208-2.82-7.505-1.04-11.108l25.522-51.611c1.609-3.252,4.766-5.459,8.372-5.854
										c3.586-0.356,7.163,1.079,9.436,3.906l35.059,43.608c2.314,2.881,2.969,6.748,1.729,10.229l-21.377,59.99
										c-1.311,3.687-4.539,6.348-8.401,6.938C2160.729,2232.695,2160.189,2232.734,2159.654,2232.734z M2132.884,2168.949
										l23.381,31.011l12.764-35.815l-20.906-26.006L2132.884,2168.949z"/>
								</g>
								<g>
									<path style="fill:#390176;" d="M2286.122,2206.371c-2.747,0-5.435-1.064-7.454-3.052l-46.418-45.669
										c-2.864-2.817-3.894-7.007-2.661-10.835l17.661-54.795c1.113-3.452,3.911-6.099,7.419-7.017
										c3.513-0.918,7.249,0.015,9.91,2.476l41.086,37.983c2.71,2.505,3.926,6.24,3.213,9.858l-12.329,62.48
										c-0.757,3.838-3.56,6.948-7.292,8.101C2288.226,2206.22,2287.169,2206.371,2286.122,2206.371z M2251.83,2147.099
										l27.686,27.236l7.358-37.3l-24.502-22.651L2251.83,2147.099z"/>
								</g>
								<g>
									<path style="fill:#390176;" d="M2407.22,2159.277c-1.409,0-2.815-0.371-4.07-1.113l-46.565-27.651
										c-2.59-1.543-4.092-4.409-3.882-7.417l3.372-47.764c0.193-2.715,1.755-5.142,4.146-6.44s5.281-1.289,7.661,0.024
										l40.73,22.505c2.422,1.343,3.977,3.843,4.106,6.606l2.463,52.91c0.137,2.93-1.345,5.693-3.857,7.202
										C2410.06,2158.901,2408.641,2159.277,2407.22,2159.277z M2368.951,2119.316l29.619,17.588l-1.567-33.687l-25.903-14.312
										L2368.951,2119.316z"/>
								</g>
								<g>
									<path style="fill:#390176;" d="M2495.226,2076.445c-0.979,0-1.963-0.181-2.905-0.547l-48.882-19.131
										c-2.805-1.099-4.753-3.687-5.032-6.685l-4.285-46.216c-0.251-2.707,0.898-5.359,3.047-7.029
										c2.146-1.67,4.995-2.136,7.563-1.216l42.495,15.125c2.607,0.928,4.548,3.144,5.122,5.854l10.671,50.22
										c0.61,2.866-0.403,5.835-2.639,7.734C2498.917,2075.795,2497.083,2076.445,2495.226,2076.445z M2453.827,2043.715
										l30.527,11.948l-6.67-31.391l-26.536-9.443L2453.827,2043.715z"/>
								</g>
								<g>
									<path style="fill:#390176;" d="M1892.218,2232.734c-0.535,0-1.072-0.039-1.611-0.122c-3.862-0.591-7.09-3.252-8.401-6.938
										l-21.377-59.99c-1.24-3.481-0.586-7.349,1.729-10.229l35.059-43.608c2.275-2.827,5.864-4.258,9.436-3.906
										c3.606,0.396,6.763,2.603,8.372,5.854l25.523,51.611c1.78,3.604,1.377,7.9-1.04,11.108l-39.204,51.992
										C1898.675,2231.196,1895.521,2232.734,1892.218,2232.734z M1882.843,2164.145l12.764,35.815l23.381-31.011l-15.239-30.811
										L1882.843,2164.145z"/>
								</g>
								<g>
									<path style="fill:#390176;" d="M1765.751,2206.371c-1.047,0-2.104-0.151-3.135-0.469c-3.733-1.152-6.536-4.263-7.293-8.101
										l-12.329-62.48c-0.713-3.618,0.503-7.354,3.213-9.858l41.086-37.983c2.664-2.461,6.404-3.394,9.91-2.476
										c3.508,0.918,6.306,3.564,7.419,7.017l17.661,54.795c1.233,3.828,0.203,8.018-2.661,10.835l-46.418,45.669
										C1771.185,2205.307,1768.497,2206.371,1765.751,2206.371z M1764.999,2137.035l7.358,37.3l27.686-27.236l-10.542-32.715
										L1764.999,2137.035z"/>
								</g>
								<g>
									<path style="fill:#390176;" d="M1644.652,2159.277c-1.421,0-2.839-0.376-4.104-1.138c-2.512-1.509-3.994-4.272-3.857-7.202
										l2.463-52.91c0.129-2.764,1.684-5.264,4.106-6.606l40.73-22.505c2.378-1.313,5.269-1.323,7.661-0.024
										c2.39,1.299,3.953,3.726,4.146,6.44l3.372,47.764c0.21,3.008-1.292,5.874-3.882,7.417l-46.565,27.651
										C1647.467,2158.906,1646.058,2159.277,1644.652,2159.277z M1654.869,2103.217l-1.567,33.687l29.619-17.588l-2.149-30.41
										L1654.869,2103.217z"/>
								</g>
								<g>
									<path style="fill:#390176;" d="M1556.647,2076.445c-1.858,0-3.692-0.649-5.156-1.89c-2.236-1.899-3.25-4.868-2.639-7.734
										l10.671-50.22c0.574-2.71,2.515-4.927,5.122-5.854l42.495-15.125c2.559-0.92,5.415-0.454,7.564,1.216
										c2.148,1.67,3.298,4.321,3.047,7.029l-4.285,46.216c-0.278,2.998-2.227,5.586-5.032,6.685l-48.882,19.131
										C1558.609,2076.264,1557.626,2076.445,1556.647,2076.445z M1574.188,2024.272l-6.67,31.391l30.527-11.948l2.678-28.887
										L1574.188,2024.272z M1605.528,2049.345h0.049H1605.528z"/>
								</g>
								<g>
									<g style="opacity:0.3;">
										<g>
											<path style="fill:#390176;" d="M2025.591,2347.839c-2.356,0-4.642-0.077-6.986-0.091
												c-2.344,0.014-4.631,0.091-6.987,0.091H2025.591z"/>
										</g>
									</g>
									<g style="opacity:0.3;">
										<g>
											<path style="fill:#390176;" d="M2599.084,2007.773l-12.889-3.21c-0.333,0.941-0.729,1.855-1.07,2.792
												c-4.528-6.257-12.999-8.579-20.71-10.246c-41.583-8.991-83.336-17.203-125.228-24.631
												c-7.223-1.28-14.724-2.529-21.815-0.645c-6.62,1.759-12.714,7.074-13.613,13.739
												c35.072,26.328,48.858,75.281,42.052,118.959c-2.029,13.021-5.579,25.629-10.294,37.833
												c-17.548,45.421-54.11,80.874-99.346,98.893c-87.17,34.722-193.748,54.416-317.203,55.138
												c2.344,0.013,4.63,0.091,6.986,0.091h-13.973c2.356,0,4.643-0.078,6.987-0.091
												c-128.298-0.75-238.326-22.02-327.312-59.334c-53.044-22.243-93.655-68.092-105.269-124.427
												c-0.553-2.683-1.043-5.384-1.467-8.103c-6.806-43.678,6.98-92.631,42.052-118.959
												c-0.898-6.665-6.994-11.98-13.613-13.739c-7.089-1.884-14.591-0.636-21.815,0.645
												c-41.891,7.428-83.643,15.64-125.227,24.631c-6.919,1.496-14.455,3.515-19.209,8.427l-8.983,2.237
												c1.719,8.815,3.894,17.468,6.279,26.04c6.905,33.619,21.543,65.266,41.819,92.908
												c86.372,133.499,271.818,219.505,532.381,221.028C2350.171,2345.81,2560.2,2207.117,2599.084,2007.773z"/>
										</g>
									</g>
									<g style="opacity:0.3;">
										<g>
											<path style="fill:#390176;" d="M1631.573,1982.228c-1.594,1.049-3.085,2.208-4.599,3.344
												c0.063,0.474,0.172,0.937,0.18,1.423L1631.573,1982.228z"/>
										</g>
									</g>
									<g style="opacity:0.3;">
										<g>
											<path style="fill:#390176;" d="M2403.579,1986.995c0.009-0.487,0.117-0.95,0.181-1.423
												c-1.513-1.136-3.006-2.295-4.599-3.344L2403.579,1986.995z"/>
										</g>
									</g>
								</g>
							</g>
						</g>
						<g>
							<g>
								<g>
									<path style="fill:#FFD0B6;" d="M2669.433,1587.879c-1.328,90.755-12.327,171.68-38.098,237.462
										c-326.783,257.707-919.242,255.05-1198.522,0c-26.461-73.54-38.257-156.377-39.639-245.911v-0.319
										c-1.86-118.545,14.612-248.726,39.639-384.487l1198.522-40.064C2653.652,1308.812,2671.346,1458.387,2669.433,1587.879z"/>
								</g>
								<g style="opacity:0.2;">
									<path style="fill:#390176;" d="M2669.433,1587.879c-1.328,90.755-12.327,171.68-38.098,237.462
										c-326.783,257.707-919.242,255.05-1198.522,0c-26.461-73.54-38.257-156.377-39.639-245.911v-0.319
										c0.213-12.114,0.585-24.388,1.116-36.769c3.72,75.824,15.675,146.388,38.523,209.991
										c279.28,255.05,871.74,257.707,1198.522,0c22.53-57.599,33.741-126.782,37.089-203.934
										C2668.902,1561.736,2669.274,1574.914,2669.433,1587.879z"/>
								</g>
								<g>
									<path style="fill:#390176;" d="M2016.029,2033.564c-0.601,0-1.191,0-1.792,0
										c-240.015-0.357-455.852-71.961-592.173-196.453c-1.914-1.748-3.374-3.935-4.25-6.375
										c-54.233-150.779-54.441-347.856-0.676-639.009c1.36-7.361,7.661-12.786,15.144-13.037l1198.521-40.071
										c8.213-0.222,15.146,5.608,16.309,13.648c34.597,238.913,65.908,508.108-0.933,678.884
										c-1.033,2.637-2.749,4.951-4.973,6.707C2483.436,1962.277,2255.65,2033.564,2016.029,2033.564z M1446.49,1816.222
										c275.449,247.805,852.744,247.478,1171.548-0.715c60.698-160.515,32.454-415.198-0.444-644.546l-1171.409,39.165
										C1396.251,1486.056,1396.368,1673.661,1446.49,1816.222z"/>
								</g>
								<g>
									<path style="fill:#390176;" d="M2246.882,1365.527c19.137-54.605,98.234-67.387,144.805-42.061
										c16.738,8.743,31.315,23.399,37.154,41.114c1.176,3.564-0.763,7.41-4.329,8.584c-2.178,0.716-4.457,0.277-6.172-0.991
										c-18.835-13.619-37.712-20.598-59.601-23.54c-35.385-4.438-73.664-0.232-102.79,22.592
										C2252.006,1374.891,2245.312,1370.601,2246.882,1365.527L2246.882,1365.527z"/>
								</g>
								<g>
									<path style="fill:#390176;" d="M1796.56,1371.226c-44.528-31.615-117.478-29.402-162.39,0.946
										c-3.088,2.399-7.636,1.764-9.802-1.539c-1.228-1.848-1.405-4.116-0.698-6.052c6.438-17.268,21.04-31.406,37.678-39.856
										c40.991-20.714,95.979-15.171,129.473,17.253c4.93,5.089,22.411,26.245,11.165,30.462
										C1800,1373.061,1798.034,1372.482,1796.56,1371.226L1796.56,1371.226z"/>
								</g>
								<g>
									<g>
										<ellipse style="fill:#390176;" cx="1717.691" cy="1563.738" rx="87.517" ry="126.509"/>
									</g>
									<g>
										<ellipse style="fill:#FFFFFF;" cx="1740.732" cy="1538.131" rx="36.337" ry="49.298"/>
									</g>
									<g style="opacity:0.35;">
										
											<ellipse transform="matrix(0.9084 -0.4181 0.4181 0.9084 -520.7253 852.8731)" style="fill:#FFFFFF;" cx="1686.157" cy="1614.892" rx="22.092" ry="34.145"/>
									</g>
									<g>
										<path style="fill:#390176;" d="M1686.702,1504.58c-43.559,21.614-83.811,8.828-107.192-33.402
											c-2.785-4.668,3.682-9.523,7.373-5.57c24.396,25.48,52.389,32.984,80.722,8.016
											C1689.861,1457.134,1711.45,1492.039,1686.702,1504.58L1686.702,1504.58z"/>
									</g>
									<g>
										<path style="fill:#390176;" d="M1667.622,1543.228c-49.301,31.9-102.342,12.661-140.965-25.394
											c-5.686-5.302,1.634-14.397,8.008-9.974c17.895,11.781,38.255,22.134,59.277,24.077
											c19.892,1.969,37.762-4.932,52.33-18.155C1666.853,1497.054,1689.953,1528.792,1667.622,1543.228L1667.622,1543.228z"/>
									</g>
								</g>
								<g>
									<g>
										<ellipse style="fill:#390176;" cx="2329.469" cy="1563.738" rx="87.517" ry="126.509"/>
									</g>
									<g>
										<ellipse style="fill:#FFFFFF;" cx="2306.428" cy="1538.131" rx="36.337" ry="49.298"/>
									</g>
									<g style="opacity:0.35;">
										
											<ellipse transform="matrix(0.4181 -0.9084 0.9084 0.4181 -93.0806 3084.4792)" style="fill:#FFFFFF;" cx="2361.004" cy="1614.892" rx="34.145" ry="22.092"/>
									</g>
									<g>
										<path style="fill:#390176;" d="M2379.556,1473.625c28.343,24.982,56.353,17.439,80.723-8.019
											c1.79-1.881,4.796-1.924,6.639-0.092c1.543,1.528,1.788,3.875,0.734,5.664c-4.747,8.066-10.287,15.928-17.324,22.996
											c-23.661,25.431-60.346,25.406-89.868,10.404C2335.738,1492.052,2357.25,1457.14,2379.556,1473.625L2379.556,1473.625z"/>
									</g>
									<g>
										<path style="fill:#390176;" d="M2400.889,1513.782c32.766,31.475,78.078,17.312,111.608-5.924
											c6.47-4.366,13.679,4.614,8.008,9.977c-27.009,25.879-63.617,47.414-102.941,40.278
											c-13.852-2.317-26.904-7.95-38.432-15.136C2357.454,1528.235,2380.53,1497.208,2400.889,1513.782L2400.889,1513.782z"/>
									</g>
								</g>
								<g>
									<path style="fill:#390176;" d="M1938.345,1713.965c52.807,47.114,124.553,56.717,175.229,1.153
										c2.912-3.386,8.771-0.01,7.351,4.179c-19.71,64.475-99.923,81.363-152.712,45.348
										c-16.865-11.154-30.586-26.537-38.691-44.191C1926.971,1715.047,1934.003,1709.923,1938.345,1713.965L1938.345,1713.965z"
										/>
								</g>
								<g style="opacity:0.2;">
									<g>
										<path style="fill:#390176;" d="M1626.125,1265.161c-39.149,14.104-69.611,46.401-89.875,82.746
											c-20.264,36.345-31.534,76.891-42.626,116.998c-23.022,83.24-46.044,166.481-69.066,249.721
											c-19.41-141.695-5.464-285.744,13.451-427.507c2.004-15.015,4.09-30.142,9.086-44.443
											c4.059-11.621,10.2-22.802,19.503-30.864c21.545-18.67,55.472-16.073,80.052-1.632
											c24.58,14.441,41.966,38.234,58.635,61.362"/>
									</g>
								</g>
								<g style="opacity:0.2;">
									<g>
										<path style="fill:#390176;" d="M2429.594,1265.161c39.149,14.104,69.611,46.401,89.875,82.746
											s31.534,76.891,42.626,116.998c23.022,83.24,46.044,166.481,69.065,249.721c19.41-141.695,5.464-285.744-13.451-427.507
											c-2.003-15.015-4.09-30.142-9.085-44.443c-4.059-11.621-10.2-22.802-19.503-30.864
											c-21.545-18.67-55.472-16.073-80.052-1.632s-41.966,38.234-58.635,61.362"/>
									</g>
								</g>
							</g>
							<g>
								<g>
									<g>
										<path style="fill:#5A5593;" d="M2942.55,1878.476c-92.457,82.573-225.401,112.009-359.568,79.703
											c50.85-171.468,34.272-403.67,0-651.812l-37.195-50.903c-337.781,60.043-676.626,61.478-1016.693,3.719
											c-7.174-1.222-14.4-2.444-21.573-3.719l-37.195,50.903c-34.272,248.143-50.851,480.344,0,651.812
											c-134.167,32.306-267.112,2.87-359.567-79.703c0.053-10.202,0.159-20.298,0.318-30.34
											c5.419-391.874,71.414-668.071,198.088-828.7c227.579-708.454,1284.974-594.213,1434.975,0
											C2874.057,1184.156,2940.158,1470.502,2942.55,1878.476z"/>
									</g>
									<g style="opacity:0.6;">
										<g>
											<path style="fill:#FFFFFF;" d="M1309.149,1070.46c227.597-708.472,1284.992-594.231,1435.013,0
												c124.459,157.837,190.331,427.422,197.7,808.596c0.221-0.197,0.451-0.383,0.672-0.58
												c-2.362-407.962-68.486-694.302-198.372-859.022c-150.021-594.231-1207.416-708.472-1435.013,0
												c-129.887,164.72-196.01,451.061-198.372,859.022c0.221,0.197,0.451,0.383,0.672,0.58
												C1118.818,1497.882,1184.69,1228.297,1309.149,1070.46z"/>
										</g>
										<g>
											<path style="fill:#FFFFFF;" d="M2614.977,1717.208c-1.472,88.598-10.946,169.994-31.993,240.971
												c4.073,0.981,8.146,1.901,12.216,2.768C2610.853,1887.858,2616.369,1805.643,2614.977,1717.208z"/>
										</g>
										<g>
											<path style="fill:#FFFFFF;" d="M1458.111,1960.948c4.07-0.868,8.142-1.788,12.216-2.768
												c-21.047-70.977-30.52-152.373-31.993-240.971C1436.942,1805.643,1442.458,1887.858,1458.111,1960.948z"/>
										</g>
									</g>
									<g>
										<path style="fill:#390176;" d="M1365.023,1986.781c-100.073,0.005-194.39-33.481-264.863-96.416
											c-3.411-3.047-5.349-7.41-5.322-11.982c2.361-407.839,69.653-699.353,200.017-866.531
											c123.591-380.237,467.69-506.247,748.867-497.331c162.427,5.164,321.787,54.167,448.726,137.986
											c136.758,90.303,228.789,214.646,266.328,359.756c130.159,167.241,197.339,458.606,199.697,866.121
											c0.027,4.573-1.912,8.936-5.322,11.982c-95.74,85.5-235.51,116.653-373.899,83.313c-4.25-1.025-7.893-3.748-10.076-7.534
											c-2.185-3.787-2.717-8.306-1.475-12.495c52.952-178.579,29.924-423.911,0.042-641.106l-28.97-39.661
											c-339.307,59.15-683.784,59.155-1024.233-0.005l-28.972,39.666c-29.883,217.195-52.91,462.527,0.042,641.106
											c1.243,4.19,0.71,8.708-1.475,12.495c-2.183,3.787-5.825,6.509-10.076,7.534
											C1437.538,1982.475,1400.904,1986.781,1365.023,1986.781z M1126.766,1871.279c84.009,71.743,203.423,99.275,323.65,74.988
											c-48.975-183.728-25.598-426.997,4.119-642.063c0.361-2.61,1.365-5.09,2.917-7.219l37.195-50.923
											c3.589-4.914,9.661-7.356,15.654-6.294c343.213,60.793,690.667,60.798,1032.698,0c5.994-1.055,12.073,1.374,15.664,6.294
											l37.195,50.923c1.553,2.129,2.556,4.609,2.917,7.219c29.717,215.066,53.093,458.335,4.119,642.061
											c120.22,24.287,239.641-3.247,323.65-74.985c-3.076-398.589-68.638-681.831-194.9-841.953
											c-1.389-1.76-2.39-3.794-2.939-5.969c-68.206-270.164-350.298-466.301-685.994-476.97
											c-270.335-8.564-600.972,112.456-718.386,477.944c-0.581,1.809-1.482,3.501-2.659,4.995
											C1195.404,1189.448,1129.842,1472.69,1126.766,1871.279z"/>
									</g>
									<g>
										<path style="fill:#390176;" d="M1231.77,1957.844c-12.908-72.334-2.718-143.936,9.011-214.81
											c1.495-8.083,13.579-6.63,13.016,1.666c-2.872,35.007-4.795,70.041-4.098,104.726c0.741,34.627,4.1,69.107,13.121,101.177
											C1268.011,1971.958,1236.619,1979.377,1231.77,1957.844L1231.77,1957.844z"/>
									</g>
									<g>
										<path style="fill:#390176;" d="M2790.503,1950.557c9.014-32.053,12.368-66.521,13.109-101.13
											c0.697-34.685-1.226-69.719-4.098-104.727c-0.606-8.19,11.483-9.836,13.015-1.665
											c6.002,34.88,11.112,70.063,13.578,105.842c2.371,35.742,2.277,72.249-4.567,108.967
											c-1.615,8.665-9.948,14.38-18.612,12.766C2793.742,1968.949,2787.909,1959.518,2790.503,1950.557L2790.503,1950.557z"/>
									</g>
									<g>
										<path style="fill:#5A5593;" d="M2610.447,1042.479c30.701,37.195,51.955,92.101,63.763,164.72
											c-403.309,123.983-904.553,127.525-1297.755,0c11.808-72.619,33.062-127.525,63.762-164.72H2610.447z"/>
									</g>
									<g style="opacity:0.2;">
										<path style="fill:#390176;" d="M2610.447,1042.479h-10.929c2.281,6.235,4.448,12.701,6.502,19.399
											c13.35,43.552-12.698,89.239-56.531,101.634c-332.744,94.096-724.364,96.608-1050.061,0.551
											c-43.122-12.718-68.146-58.225-55.072-101.24c2.138-7.036,4.402-13.817,6.79-20.344h-10.929
											c-30.701,37.195-51.955,92.101-63.762,164.72c393.201,127.525,894.446,123.983,1297.755,0
											C2662.402,1134.58,2641.147,1079.674,2610.447,1042.479z"/>
									</g>
									<g>
										<path style="fill:#390176;" d="M1445.024,1046.448c-27.479,51.246-38.333,107.605-52.835,163.308
											c-0.001,0-10.818-17.72-10.818-17.72c415.451,128.7,871.939,122.68,1288.13-0.064c0.093-0.059-11.05,17.788-11.027,17.783
											c-10.795-56.536-23.118-113.53-54.346-162.493c-2.28-3.789-1.056-8.711,2.736-10.991c3.19-1.919,7.183-1.35,9.727,1.135
											c11.192,10.891,20.772,23.424,29.006,36.672c24.454,39.653,38.01,85.729,44.443,131.264
											c1.076,7.778-3.802,15.007-11.148,17.092c-105.813,32.397-214.191,55.636-323.533,71.216
											c-327.724,45.126-667.26,28.846-983.823-71.29c-7.51-2.421-11.979-9.899-10.858-17.455
											c3.389-46.311,17.86-92.355,43.555-131.275c8.765-13.012,19.032-25.18,31.175-35.122c2.715-2.222,6.718-1.824,8.94,0.891
											C1446.032,1041.458,1446.209,1044.247,1445.024,1046.448L1445.024,1046.448z"/>
									</g>
									<g>
										<path style="fill:#390176;" d="M1599.695,1266.956c1.845-76.801,11.039-154.93,39.962-226.651
											c1.331-3.276,5.064-4.853,8.34-3.525c3.122,1.267,4.701,4.724,3.693,7.874c-11.09,35.652-17.135,72.649-19.972,109.802
											c-2.819,37.194-2.444,74.603-0.146,111.875C1632.152,1288.221,1600.02,1288.972,1599.695,1266.956L1599.695,1266.956z"/>
									</g>
									<g>
										<path style="fill:#390176;" d="M1874.16,1298.848c-0.164-79.441,1.267-159.92,20.576-237.622
											c1.023-4.014,5.104-6.435,9.117-5.412c3.862,0.98,6.248,4.804,5.515,8.657c-6.862,38.103-8.784,77.073-8.739,115.999
											c0.11,38.96,2.316,77.988,5.383,117C1907,1319.214,1875.111,1320.732,1874.16,1298.848L1874.16,1298.848z"/>
									</g>
									<g>
										<path style="fill:#390176;" d="M2422.567,1266.296c4.441-74.282,1.951-150.094-20.119-221.643
											c-1.077-3.382,0.808-7.002,4.199-8.054c3.195-0.994,6.588,0.667,7.833,3.706c14.512,35.747,23.975,73.442,30.12,111.504
											c6.13,38.101,8.984,76.641,9.843,115.146c0.197,8.811-6.786,16.111-15.596,16.309
											C2429.553,1283.518,2421.936,1275.564,2422.567,1266.296L2422.567,1266.296z"/>
									</g>
									<g>
										<path style="fill:#390176;" d="M2148.125,1297.468c5.715-77.525,9.978-156.301-3.366-233.064
											c-1.577-9.324,12.158-12.403,14.642-3.178c19.31,77.701,20.74,158.18,20.577,237.622
											C2179.073,1320.601,2147.181,1319.349,2148.125,1297.468L2148.125,1297.468z"/>
									</g>
									<g style="opacity:0.4;">
										<g>
											<path style="fill:#390176;" d="M1384.513,1194.624c0.744,3.082,1.488,6.163,2.179,9.245
												c-2.284-0.85-4.623-1.754-6.908-2.604L1384.513,1194.624z"/>
										</g>
									</g>
									<g style="opacity:0.2;">
										<g>
											<path style="fill:#390176;" d="M1529.094,1259.183c-7.174-1.222-14.4-2.444-21.573-3.719l-37.195,50.903
												c-34.272,248.143-50.851,480.344,0,651.812c-134.167,32.306-267.112,2.87-359.567-79.703
												c0.053-10.202,0.159-20.298,0.318-30.34c17.588,9.405,36.451,16.259,56.164,19.66
												c48.46,8.396,101.701-5.526,135.602-41.18c33.582-35.282,44.687-85.654,54.464-133.37
												c32.997-161.425,65.941-329.121,29.384-489.377c42.083,15.941,84.114,31.775,126.197,47.662
												C1518.467,1253.656,1524.153,1255.836,1529.094,1259.183z"/>
										</g>
									</g>
									<g style="opacity:0.2;">
										<g>
											<path style="fill:#390176;" d="M2524.198,1259.183c7.174-1.222,14.4-2.444,21.573-3.719l37.195,50.903
												c34.272,248.143,50.851,480.344,0,651.812c134.167,32.306,267.112,2.87,359.567-79.703
												c-0.053-10.202-0.159-20.298-0.318-30.34c-17.588,9.405-36.451,16.259-56.164,19.66
												c-48.46,8.396-101.701-5.526-135.602-41.18c-33.582-35.282-44.687-85.654-54.464-133.37
												c-32.997-161.425-65.941-329.121-29.384-489.377c-42.083,15.941-84.114,31.775-126.197,47.662
												C2534.826,1253.656,2529.14,1255.836,2524.198,1259.183z"/>
										</g>
									</g>
								</g>
								<g>
									<g>
										<path style="fill:#FAC611;" d="M1293.208,1042.479c-3.868-20.441-7.218-43.853-5.698-66.067
											c2.333-34.079,25.079-63.237,57.2-74.857c446.676-161.597,910.163-165.471,1358.599-1.218
											c33.423,12.242,57.481,42.333,61.081,77.745c1.941,19.098-0.165,38.283-6.859,55.541
											C2269.751,905.424,1781.643,908.552,1293.208,1042.479z"/>
									</g>
									<g>
										<path style="fill:#FF1B40;" d="M1296.159,944.704c472.76-161.77,958.756-162.044,1458.056,0l10.798,44.603
											c-503.922-141.925-996.531-141.923-1477.828,0L1296.159,944.704z"/>
									</g>
									<g>
										<path style="fill:#390176;" d="M2765.013,997.28c-0.723,0-1.448-0.098-2.161-0.3
											c-500.093-140.845-995.82-140.857-1473.413-0.027c-2.668,0.789-5.576,0.122-7.634-1.765
											c-2.06-1.885-2.983-4.712-2.432-7.451l8.97-44.604c0.559-2.778,2.554-5.051,5.234-5.969
											c236.208-80.825,479.009-121.824,721.655-121.858c0.09,0,0.215,0,0.305,0c242.724,0,492.053,40.981,741.138,121.819
											c2.632,0.854,4.634,3.015,5.286,5.706l10.798,44.604c0.667,2.751-0.178,5.649-2.217,7.615
											C2769.039,996.498,2767.047,997.28,2765.013,997.28z M2017.657,875.388c243.325,0,489.294,34.187,736.413,102.59
											l-6.553-27.063c-491.904-158.74-977.825-158.799-1444.451-0.146l-5.469,27.195
											C1533.788,909.584,1774.393,875.388,2017.657,875.388z"/>
									</g>
									<g>
										<path style="fill:#390176;" d="M1293.209,1058.42c-2.957,0-5.886-0.823-8.44-2.417c-3.777-2.358-6.394-6.184-7.222-10.559
											c-3.672-19.399-7.666-44.9-5.94-70.12c2.739-40.037,29.304-74.875,67.681-88.76
											c225.215-81.477,455.354-123.113,684.018-123.752c230.913-0.615,461.699,40.586,685.486,122.556
											c39.246,14.377,67.295,50.137,71.458,91.104c2.246,22.112-0.469,43.867-7.854,62.913
											c-2.932,7.561-11.064,11.711-18.916,9.656c-482.427-126.794-972.322-123.828-1456.055,8.813
											C1296.039,1058.234,1294.62,1058.42,1293.209,1058.42z M2028.622,793.854c-225.713,0-452.395,40.896-678.489,122.69
											c-26.504,9.587-44.841,33.516-46.719,60.957c-1.035,15.132,0.43,30.896,2.542,45.007
											c478.75-128.279,963.271-131.028,1440.771-8.167c2.395-10.906,3.022-22.661,1.804-34.648
											c-2.937-28.909-22.839-54.182-50.706-64.39C2476.776,834.338,2253.18,793.854,2028.622,793.854z"/>
									</g>
									<g>
										<path style="fill:#FAC611;" d="M2026.109,593.928c294.091-17.269,216.953,355.748,0,363.977
											C1809.156,949.676,1732.018,576.659,2026.109,593.928z"/>
									</g>
									<g style="opacity:0.3;">
										<path style="fill:#390176;" d="M2026.109,882.864c-101.37-3.845-172.201-87.332-188.916-173.433
											c-22.481,104.837,57.578,243.492,188.916,248.474c131.338-4.982,211.397-143.637,188.916-248.474
											C2198.31,795.533,2127.479,879.019,2026.109,882.864z"/>
									</g>
									<g>
										<path style="fill:#FAC611;" d="M2096.036,689.886c2.235,32.001,7.706,58.351,17.595,76.988
											c7.5,14.135,11.877,29.713,12.434,45.705c2.672,76.698-22.64,126.075-82.406,141.816c-11.473,3.022-23.626,3.022-35.098,0
											c-59.766-15.741-85.078-65.118-82.406-141.816c0.557-15.992,4.933-31.57,12.434-45.705
											c9.889-18.636,15.36-44.987,17.595-76.988H2096.036z"/>
									</g>
									<g>
										<path style="fill:#390176;" d="M2026.109,967.289c-6.816,0-13.63-0.874-20.256-2.62
											c-62.878-16.558-93.267-67.854-90.32-152.461c0.598-17.195,5.325-34.595,13.667-50.315
											c8.633-16.274,14.146-40.75,16.382-72.747c0.388-5.569,5.019-9.888,10.601-9.888h139.853
											c5.581,0,10.212,4.319,10.601,9.888c2.234,31.997,7.747,56.472,16.382,72.747c8.34,15.715,13.066,33.113,13.667,50.313
											c2.947,84.609-27.441,135.903-90.32,152.463C2039.74,966.415,2032.923,967.289,2026.109,967.289z M1965.975,700.514
											c-2.879,30.576-8.792,53.982-18,71.34c-6.841,12.891-10.713,27.1-11.201,41.091
											c-2.59,74.382,21.777,117.288,74.495,131.172c9.707,2.559,19.976,2.559,29.683,0
											c52.717-13.884,77.085-56.79,74.495-131.172c-0.491-13.994-4.363-28.203-11.201-41.091
											c-9.211-17.358-15.125-40.762-18.003-71.34H1965.975z"/>
									</g>
									<g>
										<path style="fill:#FAC611;" d="M2113.631,766.874c-56.145,46.464-114.648,43.185-175.043,0
											c-11.428,19.233-15.243,46.357-11.433,81.386c71.365,47.936,136.926,44.307,197.909,0
											C2128.748,820.253,2127.155,792.865,2113.631,766.874z"/>
									</g>
									<g style="opacity:0.3;">
										<path style="fill:#390176;" d="M2114.035,765.278c-56.145,46.464-114.648,43.185-175.043,0
											c-11.428,19.233-15.243,46.357-11.433,81.386c71.365,47.936,136.926,44.307,197.909,0
											C2129.153,818.658,2127.559,791.27,2114.035,765.278z"/>
									</g>
									<g>
										<path style="fill:#390176;" d="M2028.077,893.461c-35.044,0-70.737-12.124-106.848-36.382
											c-2.603-1.748-4.299-4.556-4.639-7.671c-4.048-37.195,0.281-66.79,12.861-87.961c1.519-2.559,4.041-4.363,6.953-4.973
											c2.908-0.608,5.945,0.027,8.364,1.755c58.714,41.982,111.733,42.131,162.087,0.459c2.473-2.048,5.742-2.857,8.884-2.229
											c3.147,0.637,5.837,2.661,7.317,5.51c13.113,25.2,17.097,53.059,12.542,87.676c-0.381,2.891-1.931,5.498-4.29,7.209
											C2097.726,881.259,2063.226,893.461,2028.077,893.461z M1937.23,842.17c62.139,40.078,120.408,40.127,177.844,0.151
											c2.476-22.629,0.662-41.694-5.657-58.782c-51.926,37.178-107.881,36.86-166.624-0.962
											C1936.935,797.919,1935.067,817.888,1937.23,842.17z"/>
									</g>
									<g>
										<path style="fill:#390176;" d="M2026.109,973.844c-0.203,0-0.403-0.002-0.605-0.01
											c-75.581-2.869-143.245-48.003-180.996-120.737c-35.969-69.297-36.336-146.233-0.957-200.786
											c24.177-37.278,75.454-80.381,182.558-74.351c107.051-6.035,158.381,37.073,182.556,74.351
											c35.381,54.553,35.015,131.492-0.955,200.789c-37.751,72.732-105.415,117.866-180.996,120.735
											C2026.512,973.842,2026.312,973.844,2026.109,973.844z M2006.673,609.286c-63.711,0-110.64,20.691-136.372,60.371
											c-28.711,44.27-27.729,110.51,2.503,168.752c32.297,62.224,89.578,100.894,153.306,103.542
											c63.728-2.649,121.008-41.318,153.303-103.54c30.232-58.245,31.216-124.485,2.505-168.755
											c-28.167-43.428-81.729-64.111-154.873-59.817c-0.625,0.039-1.245,0.039-1.87,0
											C2018.861,609.469,2012.692,609.286,2006.673,609.286z"/>
									</g>
									<g>
										<path style="fill:#FAC611;" d="M2041.479,727.674c37.556-19.973,65.391-43.415,81.761-70.95
											c5.978-10.054,6.467-22.685,0.34-32.649c-15.902-25.859-54.458-31.639-97.471-33.469
											c-43.013,1.83-81.569,7.61-97.471,33.469c-6.127,9.964-5.638,22.595,0.339,32.649
											c16.37,27.535,44.205,50.977,81.762,70.95C2020.315,732.767,2031.903,732.767,2041.479,727.674z"/>
									</g>
									<g style="opacity:0.3;">
										<path style="fill:#390176;" d="M2124.531,625.917c-0.417,0.856-0.811,1.721-1.301,2.545
											c-16.371,27.535-44.205,50.977-81.761,70.95c-9.576,5.093-21.164,5.093-30.74,0
											c-37.557-19.973-65.392-43.415-81.762-70.95c-0.486-0.818-0.878-1.677-1.291-2.527c-5.011,9.647-4.317,21.342,1.3,30.789
											c16.371,27.534,44.205,50.977,81.762,70.95c9.576,5.093,21.163,5.093,30.74,0c37.557-19.973,65.391-43.415,81.762-70.95
											C2128.86,647.271,2129.552,635.567,2124.531,625.917z"/>
									</g>
									<g>
										
											<ellipse transform="matrix(0.866 -0.5 0.5 0.866 -48.2307 1122.2374)" style="fill:#390176;" cx="2070.004" cy="651.118" rx="18.099" ry="12.132"/>
									</g>
									<g>
										
											<ellipse transform="matrix(0.5 -0.866 0.866 0.5 428.1094 2043.7445)" style="fill:#390176;" cx="1983.991" cy="651.118" rx="12.132" ry="18.099"/>
									</g>
									<g>
										<path style="fill:#390176;" d="M2026.109,742.143c-6.992,0-13.984-1.694-20.361-5.086
											c-40.146-21.35-69.05-46.553-85.906-74.902c-8.218-13.816-8.316-30.542-0.256-43.645
											c18.872-30.693,62.134-36.653,106.072-38.521c0.303-0.015,0.601-0.015,0.903,0c43.938,1.868,87.2,7.827,106.072,38.521
											c8.057,13.103,7.957,29.827-0.256,43.645c-16.855,28.35-45.759,53.55-85.908,74.902
											C2040.094,740.448,2033.102,742.143,2026.109,742.143z M2026.109,601.244c-37.917,1.636-74.8,6.25-88.418,28.398
											c-3.906,6.35-3.745,14.646,0.42,21.65c14.839,24.958,40.952,47.5,77.617,67c6.499,3.457,14.26,3.457,20.759,0l0,0
											c36.667-19.5,62.781-42.041,77.617-66.997c4.165-7.007,4.326-15.303,0.422-21.653
											C2100.909,607.494,2064.027,602.88,2026.109,601.244z"/>
									</g>
									<g style="opacity:0.3;">
										<path style="fill:#390176;" d="M2764.39,978.082c-3.471-34.151-25.998-63.302-57.574-76.32
											c0.387,2.311,0.706,4.644,0.927,7.006c0.018,0.191,0.035,0.382,0.053,0.573c2.526,28.08-24.258,49.789-51.51,42.563
											c-419.856-111.335-839.973-108.553-1260.353,7.917c-26.186,7.255-51.838-12.361-52.088-39.532
											c-0.041-4.422,0.062-8.829,0.337-13.19c0.118-1.868,0.317-3.714,0.546-5.55l-0.017,0.006
											c-31.938,11.055-54.52,39.916-57.11,73.614c-1.736,22.581,1.667,46.488,5.607,67.31
											c488.434-133.927,976.543-137.055,1464.323-8.856C2764.225,1016.365,2766.332,997.18,2764.39,978.082z"/>
									</g>
								</g>
							</g>
						</g>
					</g>
				</g>
			</g>
		</g>
		<g>
			<g>
				<path style="fill:#FFFFFF;" d="M965.194,1159.251c24.192-39.582,36.121-87.097,31.017-136.806
					c-12.388-120.653-120.239-208.419-240.892-196.031C634.666,838.802,546.9,946.653,559.288,1067.306
					c12.388,120.653,120.239,208.419,240.892,196.031c33.56-3.446,64.562-14.296,91.585-30.735l101.629,22.792L965.194,1159.251z"/>
			</g>
			<g style="opacity:0.5;">
				<g>
					<path style="fill:#FFFFFF;" d="M759.633,868.431c112.707-11.572,214.217,64.262,237.201,172.649
						c0.027-7.742-0.306-15.553-1.115-23.428C983.331,896.998,875.481,809.232,754.827,821.62
						c-120.653,12.388-208.419,120.239-196.031,240.892c0.812,7.909,2.057,15.668,3.667,23.275
						C562.887,974.944,646.89,880.006,759.633,868.431z"/>
				</g>
			</g>
			<g>
				<path style="fill:#390176;" d="M777.308,1280.453c-53.943,0-105.823-18.364-148.235-52.878
					c-48.801-39.712-79.216-96.052-85.642-158.64c-13.267-129.202,81.057-245.11,210.259-258.379
					c62.568-6.433,123.933,11.904,172.737,51.619c48.801,39.712,79.216,96.055,85.642,158.643
					c5.063,49.321-5.176,97.773-29.631,140.586l26.252,89.504c1.589,5.417,0.195,11.27-3.664,15.388
					c-3.86,4.119-9.602,5.889-15.12,4.653l-95.476-21.414c-28.518,16.301-59.646,26.274-92.622,29.658
					C793.612,1280.036,785.436,1280.453,777.308,1280.453z M778.128,841.181c-7.029,0-14.094,0.361-21.182,1.089
					c-111.716,11.472-193.271,111.694-181.802,223.408c5.557,54.116,31.856,102.832,74.05,137.17
					c42.195,34.336,95.237,50.173,149.356,44.631c30.405-3.12,58.979-12.71,84.929-28.496c3.528-2.144,7.744-2.842,11.775-1.936
					l75.229,16.873l-20.586-70.181c-1.267-4.316-0.652-8.965,1.694-12.8c23.406-38.296,33.35-82.166,28.762-126.865
					c-5.557-54.119-31.856-102.834-74.05-137.17C869.635,857.062,824.769,841.181,778.128,841.181z"/>
			</g>
			<g style="opacity:0.2;">
				<path style="fill:#390176;" d="M966.427,1157.142c-60.152,50.878-143.02,73.159-225.311,52.678
					c-91.262-22.714-158.503-92.208-182.689-176.552c-0.578,11.183-0.318,22.551,0.861,34.037
					c12.388,120.653,120.239,208.419,240.892,196.031c33.56-3.446,64.561-14.296,91.585-30.735l101.63,22.792l-28.2-96.144
					C965.619,1158.557,966.01,1157.841,966.427,1157.142z"/>
			</g>
			<g>
				<path style="fill:#FF0068;" d="M847.973,983.208L847.973,983.208c-19.005-19.006-49.819-15.6-68.825,3.405l-2.958,2.958
					l-2.958-2.958c-19.005-19.005-49.819-22.411-68.825-3.405l0,0c-19.005,19.005-19.005,49.819,0,68.825l2.958,2.958l59.753,59.753
					c5.01,5.01,13.134,5.01,18.144,0l59.753-59.753l2.958-2.958C866.978,1033.027,866.978,1002.213,847.973,983.208z"/>
			</g>
		</g>
	</g>
</g>
</svg>
